<?xml version="1.0" standalone="no"?>
<!DOCTYPE svg PUBLIC "-//W3C//DTD SVG 20010904//EN"
 "http://www.w3.org/TR/2001/REC-SVG-20010904/DTD/svg10.dtd">
<svg version="1.0" xmlns="http://www.w3.org/2000/svg"
 width="300.000000pt" height="240.000000pt" viewBox="0 0 300.000000 240.000000"
 preserveAspectRatio="xMidYMid meet">

<g transform="translate(0.000000,240.000000) scale(0.100000,-0.100000)"
fill="#ffffff" stroke="none">
<path d="M1605 2151 c-33 -10 -94 -33 -135 -51 -123 -52 -176 -69 -376 -115
-214 -49 -211 -49 -346 -122 -53 -29 -103 -53 -111 -53 -23 0 -27 -32 -27
-262 0 -232 11 -312 49 -352 11 -12 29 -43 40 -69 12 -27 40 -69 63 -93 24
-25 64 -67 90 -94 44 -46 46 -51 53 -124 6 -60 3 -94 -13 -163 -42 -177 -37
-200 55 -267 113 -83 159 -96 400 -119 29 -3 84 -20 122 -37 82 -38 92 -39
195 -11 86 23 151 60 206 116 19 19 54 45 77 56 30 15 54 37 77 73 51 79 138
144 206 155 47 8 67 50 79 167 6 49 21 138 35 199 22 93 26 136 26 281 l1 172
-32 73 c-31 70 -33 82 -38 229 -3 85 -9 160 -13 166 -5 7 -31 20 -59 30 -35
13 -65 34 -94 66 -29 33 -54 50 -85 58 -24 6 -66 25 -95 41 -60 34 -190 69
-249 68 -23 0 -68 -9 -101 -18z m201 -16 c33 -7 98 -32 144 -54 46 -23 92 -41
101 -41 27 0 36 -19 64 -150 50 -239 58 -266 101 -361 62 -136 63 -132 -48
-127 -51 3 -101 8 -110 12 -13 6 -18 4 -18 -7 0 -18 49 -27 154 -27 l79 0 -7
-47 c-4 -27 -11 -142 -15 -258 -5 -152 -12 -220 -23 -245 -14 -34 -44 -168
-40 -182 1 -4 -24 -15 -56 -23 -31 -9 -70 -21 -87 -26 -36 -11 -95 -67 -95
-88 0 -36 -51 -120 -102 -167 -62 -59 -116 -89 -185 -104 -26 -6 -57 -15 -69
-21 -17 -9 -40 -3 -120 29 -54 22 -153 60 -219 85 -74 28 -153 67 -205 101
-47 31 -102 59 -122 62 -35 6 -38 9 -38 41 0 19 9 71 21 116 16 64 20 98 15
155 -4 39 -3 72 1 72 31 0 98 -28 153 -64 142 -93 164 -106 184 -106 12 0 32
-7 44 -16 19 -13 22 -13 22 -1 0 14 -25 27 -80 43 -13 4 -36 15 -50 24 -122
83 -190 121 -237 131 -49 11 -60 20 -141 106 -48 52 -95 112 -104 135 -10 22
-27 53 -38 68 -34 48 -50 118 -50 226 0 82 3 104 16 115 9 8 41 45 70 84 30
38 78 102 109 142 30 40 64 77 75 83 11 6 18 15 15 21 -9 14 -54 -25 -105 -91
-120 -158 -161 -210 -171 -215 -6 -4 -9 32 -7 105 l3 112 130 69 c125 65 140
70 330 114 146 33 241 61 350 104 222 88 248 93 361 66z m416 -218 l56 -25 4
-154 c3 -146 5 -156 34 -223 32 -72 49 -135 36 -135 -4 0 -20 8 -37 19 -23 14
-41 44 -77 127 -25 60 -49 118 -52 129 -9 31 -66 308 -66 319 0 5 10 0 23 -11
12 -11 47 -32 79 -46z m109 -547 c17 -10 19 -22 19 -143 0 -96 -6 -155 -20
-217 -11 -47 -25 -116 -30 -155 -29 -199 -35 -215 -77 -215 -19 0 -23 4 -19
18 3 9 12 46 21 82 8 36 22 90 30 120 10 37 15 103 15 210 0 171 16 310 35
310 4 0 15 -5 26 -10z m-240 -800 c-23 -17 -57 -55 -76 -85 -31 -48 -75 -88
-75 -69 0 4 10 33 21 65 22 61 54 90 117 109 51 16 55 10 13 -20z m-1050 -153
c46 -31 116 -68 154 -83 75 -29 108 -49 65 -40 -14 3 -58 10 -98 15 -54 7 -88
18 -129 43 -64 38 -143 105 -143 120 0 23 72 -3 151 -55z"/>
<path d="M1445 1838 c-10 -35 -35 -163 -35 -184 0 -13 5 -24 10 -24 6 0 10 11
10 24 0 22 22 132 36 179 3 9 0 17 -6 17 -6 0 -12 -6 -15 -12z"/>
<path d="M970 1724 c0 -6 60 -81 139 -174 16 -19 33 -32 37 -28 4 4 -15 33
-42 64 -27 31 -64 76 -82 100 -30 39 -52 55 -52 38z"/>
<path d="M1837 1666 c-9 -13 -47 -63 -86 -111 -39 -48 -71 -94 -71 -103 0 -8
2 -13 4 -11 14 16 137 171 159 201 16 20 24 39 19 42 -6 3 -17 -5 -25 -18z"/>
<path d="M1397 1494 c-4 -4 -28 -9 -54 -9 -37 -2 -51 -8 -70 -29 -26 -31 -30
-68 -9 -85 11 -10 17 -7 30 10 19 28 31 18 31 -24 0 -31 0 -31 50 -28 63 4 66
5 58 41 -7 35 18 51 49 31 45 -28 68 45 23 75 -28 18 -96 30 -108 18z m98 -34
c28 -23 18 -39 -20 -33 -43 7 -65 -9 -66 -51 l-1 -31 -7 30 c-7 34 -27 32 -23
-2 3 -17 -2 -23 -17 -23 -15 0 -19 6 -18 26 3 38 -26 54 -52 30 -21 -19 -21
-19 -21 2 0 33 47 64 85 56 21 -4 35 -1 40 6 9 15 79 7 100 -10z"/>
<path d="M870 1431 c0 -5 46 -33 101 -61 56 -29 99 -46 97 -39 -3 8 -47 35
-98 61 -102 53 -100 52 -100 39z"/>
<path d="M1840 1375 c-29 -30 -51 -58 -47 -62 8 -7 117 95 117 109 0 18 -18 5
-70 -47z"/>
<path d="M1470 1301 c0 -5 15 -12 34 -15 48 -9 123 -62 154 -109 25 -38 25
-40 8 -53 -11 -7 -62 -28 -115 -46 -87 -30 -107 -33 -211 -33 -130 0 -193 15
-182 43 21 55 70 110 162 181 47 36 13 31 -40 -7 -58 -40 -135 -132 -145 -174
-6 -23 -2 -27 42 -44 68 -26 255 -27 333 -1 125 42 189 69 194 82 5 14 -43 87
-78 118 -52 45 -156 84 -156 58z"/>
<path d="M1381 1247 c-30 -7 -56 -17 -58 -24 -3 -8 7 -9 38 -2 23 5 46 8 52 6
9 -3 -20 -17 -156 -76 -45 -19 -59 -44 -19 -35 9 2 64 16 121 30 56 14 105 23
108 21 4 -5 -54 -23 -136 -44 -19 -5 -37 -15 -39 -22 -6 -17 35 -12 173 19
131 30 137 32 95 40 -32 5 -33 7 -12 14 12 4 22 12 22 17 0 12 -42 11 -125 -5
-38 -8 -71 -13 -73 -12 -1 2 29 17 68 35 38 18 70 37 70 42 0 12 -62 10 -129
-4z"/>
<path d="M1932 1175 c-41 -7 -76 -16 -80 -19 -13 -13 8 -16 54 -7 27 5 66 12
87 16 21 3 35 10 32 16 -4 5 -9 9 -13 8 -4 0 -40 -7 -80 -14z"/>
<path d="M991 1070 c-19 -5 -40 -6 -48 -3 -15 6 -18 -13 -4 -21 13 -9 111 14
111 25 0 10 -11 10 -59 -1z"/>
<path d="M1822 964 c11 -10 161 -94 170 -94 24 0 0 19 -71 58 -68 36 -117 54
-99 36z"/>
<path d="M1185 829 c-9 -39 1 -50 15 -15 12 34 13 46 1 46 -5 0 -12 -14 -16
-31z"/>
<path d="M1690 814 c0 -18 150 -194 166 -194 14 0 -3 26 -47 72 -29 29 -63 70
-77 91 -22 32 -42 48 -42 31z"/>
<path d="M1463 664 c4 -77 11 -131 18 -138 9 -8 10 5 5 59 -3 39 -6 100 -6
138 0 44 -4 67 -12 67 -8 0 -9 -34 -5 -126z"/>
<path d="M1124 748 c-9 -13 -30 -65 -41 -100 -3 -10 -1 -18 5 -18 11 0 57 118
49 126 -3 3 -9 -1 -13 -8z"/>
</g>
</svg>
