<?xml version="1.0" standalone="no"?>
<!DOCTYPE svg PUBLIC "-//W3C//DTD SVG 20010904//EN"
 "http://www.w3.org/TR/2001/REC-SVG-20010904/DTD/svg10.dtd">
<svg version="1.0" xmlns="http://www.w3.org/2000/svg"
 width="480.000000pt" height="480.000000pt" viewBox="0 0 480.000000 480.000000"
 preserveAspectRatio="xMidYMid meet">

<g transform="translate(0.000000,480.000000) scale(0.100000,-0.100000)"
fill="#ffffff" stroke="none">
<path d="M2175 3884 c-54 -28 -92 -62 -110 -100 -30 -64 -56 -212 -50 -284 l6
-65 -88 0 c-88 0 -90 0 -140 -39 -99 -75 -125 -161 -121 -401 3 -152 2 -163
-21 -210 -16 -32 -60 -85 -126 -150 -56 -55 -110 -115 -119 -134 -22 -41 -15
-107 14 -144 19 -24 19 -25 -4 -89 -13 -36 -36 -84 -50 -106 -45 -72 -107
-214 -127 -290 -10 -41 -28 -95 -40 -120 -33 -72 -38 -228 -10 -303 44 -116
133 -208 201 -209 39 -1 104 -34 152 -78 77 -71 110 -82 296 -97 190 -16 369
-46 403 -68 13 -8 55 -25 93 -36 94 -29 191 -27 313 4 66 18 147 29 248 36
242 16 332 46 473 159 56 45 119 122 174 211 15 24 46 73 68 109 37 58 41 70
36 112 -3 29 -21 76 -49 125 -54 97 -59 111 -44 120 22 13 54 75 71 133 12 43
15 119 17 340 3 400 -11 582 -83 1040 -36 228 -64 300 -152 385 l-51 50 -95 8
c-171 15 -179 15 -270 -34 -165 -88 -264 -210 -276 -342 -8 -89 -6 -87 -53
-75 -37 10 -41 14 -56 63 -8 29 -15 58 -15 63 0 24 -86 231 -112 269 -15 23
-49 59 -76 80 -26 21 -51 43 -57 50 -28 34 -121 43 -170 17z m119 -13 c3 -4
-5 -13 -18 -19 -26 -11 -75 -94 -100 -169 -9 -25 -21 -96 -28 -157 -6 -61 -13
-113 -15 -115 -1 -2 -22 2 -47 9 l-44 12 -6 56 c-9 83 24 255 59 309 27 41
103 83 151 83 24 0 45 -4 48 -9z m69 -52 c26 -17 63 -49 82 -72 36 -42 96
-184 133 -314 l20 -73 -57 0 -57 0 -24 88 c-13 48 -32 105 -43 127 -24 49 -99
131 -149 164 -36 24 -36 25 -22 52 13 25 50 59 65 59 3 0 27 -14 52 -31z m814
-42 c22 -12 22 -12 -8 -26 -82 -36 -191 -197 -244 -361 -15 -47 -31 -88 -34
-92 -3 -4 -40 1 -81 11 l-75 17 -3 47 c-7 115 61 232 186 319 82 56 172 98
212 97 14 0 35 -5 47 -12z m213 -54 c27 -27 64 -77 83 -113 30 -57 38 -90 65
-260 47 -298 61 -420 72 -600 6 -91 12 -176 15 -190 2 -14 1 -149 -3 -300 -8
-274 -8 -275 -36 -338 -37 -80 -53 -78 -77 8 -25 86 -25 111 -4 198 16 66 17
93 7 300 -6 125 -8 306 -5 402 7 220 -8 384 -46 520 -31 108 -86 241 -122 292
-26 35 -108 78 -150 78 -41 0 -35 6 32 30 88 31 113 27 169 -27z m-1130 -2
c56 -33 139 -140 157 -200 9 -31 22 -75 30 -99 21 -67 22 -66 -69 -59 -135 11
-198 26 -210 53 -21 44 29 324 57 324 3 0 18 -8 35 -19z m1005 -44 c65 -37
123 -145 176 -330 38 -131 52 -295 46 -527 -2 -102 0 -276 5 -388 10 -197 5
-312 -12 -312 -4 0 -13 30 -20 66 -12 72 -35 124 -73 170 -29 34 -62 100 -108
209 -35 85 -35 83 -26 356 2 38 -5 56 -36 103 -21 32 -51 65 -66 74 -16 9 -34
30 -40 48 -15 42 -71 91 -139 121 -52 23 -53 24 -47 56 20 89 87 236 145 313
47 64 126 80 195 41z m-1125 -292 c120 -30 174 -37 315 -44 115 -6 199 -16
260 -31 50 -12 128 -31 175 -42 105 -25 157 -53 138 -75 -27 -33 -120 -217
-137 -275 -13 -39 -7 -229 9 -325 13 -74 -4 -201 -34 -265 -37 -77 -80 -125
-163 -179 -86 -56 -165 -83 -288 -98 -78 -10 -273 -43 -344 -59 l-24 -5 5 79
c4 71 9 88 54 170 l49 92 -13 48 c-18 67 -25 72 -68 49 -75 -40 -134 -128
-154 -231 -15 -79 -26 -96 -42 -69 -37 64 -122 113 -226 131 -157 28 -266 132
-237 226 5 12 53 68 109 123 168 166 180 196 170 418 -10 204 22 299 122 365
65 44 133 43 324 -3z m961 -268 c11 -43 -2 -159 -21 -181 -10 -13 -103 -36
-142 -36 -42 0 -3 114 86 248 28 40 30 42 48 26 10 -10 23 -35 29 -57z m123
-142 c15 -31 16 -47 5 -139 -13 -121 -4 -200 37 -293 14 -32 35 -80 47 -107
12 -28 37 -68 55 -90 45 -53 61 -95 78 -201 36 -215 63 -302 135 -441 27 -52
49 -106 49 -119 0 -28 -30 -93 -64 -140 -12 -16 -39 -58 -60 -92 -95 -159
-256 -280 -416 -312 -30 -6 -120 -15 -200 -20 -98 -6 -177 -18 -243 -35 -156
-41 -273 -33 -397 29 -54 26 -260 62 -415 70 -147 9 -203 25 -263 78 -68 61
-111 85 -162 93 -87 12 -158 85 -205 206 -24 65 -18 224 12 283 11 22 30 78
43 125 14 55 50 140 101 238 43 84 79 162 79 172 0 33 20 33 88 -3 38 -20 90
-37 121 -41 71 -9 153 -49 186 -89 15 -18 33 -40 41 -50 13 -16 11 -30 -15
-125 -16 -59 -37 -142 -46 -185 -17 -81 -26 -95 -140 -219 -29 -32 -35 -48
-41 -101 -6 -61 -5 -64 17 -70 52 -14 104 -7 144 19 123 82 152 142 232 485
l15 66 142 26 c77 15 182 31 231 38 123 15 219 48 304 104 125 82 184 180 201
328 6 49 8 92 5 97 -9 14 -26 287 -19 303 3 9 27 17 64 21 121 14 150 41 150
139 0 29 3 57 8 61 9 10 75 -64 96 -109z m-1098 -650 c-4 -17 -20 -54 -38 -81
-40 -63 -58 -123 -58 -194 0 -62 -73 -368 -110 -460 -24 -60 -62 -106 -128
-151 -35 -25 -50 -30 -90 -27 l-47 3 2 53 c2 43 8 59 31 85 127 140 135 153
152 247 6 36 26 119 45 185 19 66 41 152 50 190 24 102 70 182 125 217 l45 29
13 -32 c8 -18 11 -47 8 -64z"/>
<path d="M2084 2929 c5 -65 3 -95 -9 -128 -15 -44 -14 -58 3 -47 30 18 38 235
9 253 -7 4 -8 -22 -3 -78z"/>
<path d="M3088 2404 c-5 -4 -8 -64 -8 -134 0 -118 2 -130 24 -163 13 -19 47
-82 75 -139 44 -90 51 -112 51 -164 0 -83 -25 -172 -61 -217 -34 -42 -32 -62
2 -31 50 45 85 167 77 271 -3 45 -16 81 -57 163 -29 58 -61 113 -70 124 -13
14 -17 48 -21 158 -3 77 -8 136 -12 132z"/>
<path d="M1486 1871 c-4 -6 -14 -34 -22 -62 -9 -28 -31 -81 -50 -116 -40 -76
-46 -146 -16 -184 19 -23 52 -22 52 2 0 6 -7 9 -15 5 -23 -8 -38 31 -33 85 3
30 16 65 36 96 30 47 70 168 59 179 -3 3 -8 1 -11 -5z"/>
<path d="M2687 1733 c-4 -22 0 -63 9 -97 31 -120 -23 -306 -88 -306 -21 0 -20
-21 1 -28 20 -7 78 64 94 115 26 80 31 164 13 223 -10 32 -13 68 -10 91 4 24
3 39 -3 39 -6 0 -13 -17 -16 -37z"/>
</g>
</svg>
