<?xml version="1.0" standalone="no"?>
<!DOCTYPE svg PUBLIC "-//W3C//DTD SVG 20010904//EN"
 "http://www.w3.org/TR/2001/REC-SVG-20010904/DTD/svg10.dtd">
<svg version="1.0" xmlns="http://www.w3.org/2000/svg"
 width="400.000000pt" height="320.000000pt" viewBox="0 0 400.000000 320.000000"
 preserveAspectRatio="xMidYMid meet">

<g transform="translate(0.000000,320.000000) scale(0.100000,-0.100000)"
fill="#ffffff" stroke="none">
<path d="M1870 2587 c-21 -11 -25 -21 -28 -64 -3 -43 1 -55 23 -79 14 -15 23
-34 21 -43 -3 -9 -8 -38 -12 -66 -7 -52 -56 -160 -104 -230 -70 -103 -78 -131
-94 -322 -17 -205 -29 -606 -27 -868 1 -173 2 -181 26 -217 26 -39 84 -77 150
-99 53 -17 297 -17 350 0 66 22 124 60 150 99 24 36 25 44 26 217 2 262 -10
663 -27 868 -16 191 -24 219 -94 322 -48 70 -97 178 -104 230 -4 28 -9 57 -12
66 -2 9 7 28 21 43 31 33 36 115 8 137 -22 19 -238 23 -273 6z m243 -14 c25
-4 27 -8 27 -53 0 -26 -6 -52 -12 -57 -15 -12 -237 -12 -255 0 -8 5 -13 29
-13 57 0 38 4 49 18 53 25 6 202 6 235 0z m-60 -139 c26 -4 45 -9 43 -13 -2
-3 2 -41 9 -84 13 -72 52 -161 105 -237 10 -14 32 -53 49 -87 29 -58 32 -76
45 -235 8 -95 18 -285 22 -423 9 -320 9 -305 6 -471 -2 -128 -4 -144 -25 -175
-49 -74 -164 -109 -337 -104 -145 4 -232 37 -277 104 -30 45 -33 146 -19 646
4 138 14 328 22 423 13 159 16 177 45 235 17 34 39 73 49 87 53 76 92 165 105
237 7 43 11 81 9 85 -4 6 26 12 82 16 12 1 42 -1 67 -4z"/>
<path d="M1790 1870 c0 -19 57 -25 220 -25 91 0 177 3 193 8 39 11 34 28 -5
19 -18 -4 -103 -7 -188 -7 -85 0 -170 3 -187 7 -20 5 -33 4 -33 -2z"/>
</g>
</svg>
