<?xml version="1.0" standalone="no"?>
<!DOCTYPE svg PUBLIC "-//W3C//DTD SVG 20010904//EN"
 "http://www.w3.org/TR/2001/REC-SVG-20010904/DTD/svg10.dtd">
<svg version="1.0" xmlns="http://www.w3.org/2000/svg"
 width="400.000000pt" height="320.000000pt" viewBox="0 0 400.000000 320.000000"
 preserveAspectRatio="xMidYMid meet">

<g transform="translate(0.000000,320.000000) scale(0.100000,-0.100000)"
fill="#FFFFFF" stroke="none">
<path d="M2910 2504 c-62 -27 -262 -163 -363 -248 -100 -85 -219 -272 -278
-438 l-23 -66 -151 -4 c-82 -2 -151 -3 -152 -3 -1 0 5 29 12 65 8 36 14 81 15
101 0 34 3 37 77 75 81 40 100 67 69 90 -12 8 -28 9 -54 3 -54 -12 -54 -12
-46 27 8 43 -18 77 -86 107 -86 39 -143 48 -315 54 -253 8 -402 -21 -487 -97
-60 -53 -75 -88 -54 -129 l17 -31 -40 0 c-21 0 -44 -6 -51 -15 -23 -27 -1 -56
66 -86 35 -16 64 -30 65 -32 0 -1 3 -31 6 -67 5 -74 31 -155 63 -200 27 -37
136 -103 218 -131 69 -23 68 -17 11 -86 -30 -35 -110 -157 -132 -200 -16 -31
-37 -141 -37 -195 0 -103 84 -211 213 -271 102 -49 153 -60 229 -53 104 10
312 83 416 148 116 72 253 210 313 313 64 109 73 143 72 261 -1 115 -18 180
-64 244 -38 52 -35 73 21 188 46 95 107 188 164 250 52 57 217 180 296 223 88
47 120 81 120 129 0 69 -60 103 -130 74z m98 -32 c6 -9 12 -30 12 -48 0 -37
-24 -59 -125 -115 -132 -73 -285 -203 -353 -302 -52 -76 -121 -207 -141 -269
l-12 -37 -42 20 c-23 10 -50 19 -59 19 -25 0 -23 16 18 116 89 222 192 352
389 489 131 91 151 103 200 129 53 27 90 26 113 -2z m-1142 -256 c122 -39 162
-87 112 -133 -41 -38 -152 -92 -218 -107 -165 -37 -480 -27 -574 18 -106 51
-121 88 -58 148 45 44 80 62 157 82 94 23 109 24 310 21 173 -2 197 -5 271
-29z m229 -183 c-11 -8 -42 -26 -70 -39 l-50 -24 -3 22 c-5 27 29 54 83 66 48
11 69 -2 40 -25z m-135 -2 c-5 -11 -10 -31 -10 -44 0 -14 -7 -30 -15 -37 -8
-7 -15 -16 -15 -21 0 -5 7 -6 15 -3 19 8 19 -27 1 -115 -16 -71 -32 -91 -94
-115 -33 -12 -237 -143 -328 -211 -31 -23 -209 52 -275 115 -56 54 -85 149
-79 260 1 17 -15 97 -25 122 -6 14 -2 14 33 -3 60 -30 151 -41 342 -41 206 -1
280 13 385 72 39 21 71 39 73 39 1 1 -2 -8 -8 -18z m-840 -67 c6 -14 10 -34
10 -45 0 -18 -4 -17 -60 11 -80 40 -81 60 -3 60 37 0 45 -4 53 -26z m1200
-253 c79 -24 155 -136 154 -226 -1 -116 -83 -245 -274 -435 -82 -82 -111 -103
-205 -152 -149 -76 -285 -119 -401 -125 -190 -11 -296 60 -311 211 -6 67 20
190 51 235 13 20 39 61 58 91 62 98 126 158 277 259 134 89 227 135 318 158
42 10 287 -1 333 -16z m164 -373 c-10 -105 -79 -232 -181 -340 -114 -119 -242
-198 -422 -261 -100 -34 -128 -40 -206 -41 -81 -1 -97 2 -155 30 l-65 30 85
-4 c140 -7 318 46 497 147 150 85 366 315 423 449 12 28 24 52 27 52 2 0 1
-28 -3 -62z"/>
<path d="M2920 2443 c-8 -3 -34 -19 -57 -35 -74 -50 -46 -89 32 -44 46 27 71
59 60 76 -7 11 -12 11 -35 3z m10 -28 c0 -9 -80 -58 -86 -52 -3 3 12 17 33 31
36 25 53 32 53 21z"/>
<path d="M1382 2115 c-89 -14 -172 -41 -172 -56 0 -12 1 -12 44 6 51 22 216
45 311 44 44 0 123 -8 175 -19 52 -10 97 -16 99 -14 10 10 -15 18 -101 35
-108 21 -238 22 -356 4z"/>
<path d="M2290 1640 c0 -5 7 -10 15 -10 8 0 15 5 15 10 0 6 -7 10 -15 10 -8 0
-15 -4 -15 -10z"/>
<path d="M1965 1531 c-265 -79 -452 -269 -519 -528 -18 -69 -21 -143 -6 -143
6 0 10 20 10 44 0 90 69 259 149 366 111 148 336 260 522 261 105 1 171 -24
225 -83 38 -42 57 -45 31 -4 -22 34 -79 76 -124 92 -55 19 -215 16 -288 -5z"/>
<path d="M2019 1403 c-25 -27 -110 -133 -190 -238 -205 -268 -201 -263 -197
-276 2 -6 56 58 120 142 209 278 230 303 279 354 27 28 49 54 49 58 0 17 -20
4 -61 -40z"/>
<path d="M2234 1358 c-72 -78 -208 -280 -202 -299 2 -7 19 12 38 42 46 73 137
197 173 236 16 17 28 36 25 43 -2 6 -17 -4 -34 -22z"/>
<path d="M1647 1169 c-54 -72 -95 -134 -92 -138 4 -3 18 8 31 24 41 50 174
233 174 239 0 20 -26 -9 -113 -125z"/>
</g>
</svg>
