<?xml version="1.0" standalone="no"?>
<!DOCTYPE svg PUBLIC "-//W3C//DTD SVG 20010904//EN"
 "http://www.w3.org/TR/2001/REC-SVG-20010904/DTD/svg10.dtd">
<svg version="1.0" xmlns="http://www.w3.org/2000/svg"
 width="300.000000pt" height="240.000000pt" viewBox="0 0 300.000000 240.000000"
 preserveAspectRatio="xMidYMid meet">

<g transform="translate(0.000000,240.000000) scale(0.100000,-0.100000)"
fill="#ffffff" stroke="none">
<path d="M1605 2151 c-33 -10 -94 -33 -135 -51 -123 -52 -176 -69 -376 -115
-214 -49 -211 -49 -346 -122 -53 -29 -103 -53 -111 -53 -23 0 -27 -32 -27
-262 0 -232 11 -312 49 -352 11 -12 29 -43 40 -69 12 -27 40 -69 63 -93 24
-25 64 -67 90 -94 44 -46 46 -51 53 -124 6 -60 3 -94 -13 -163 -42 -177 -37
-200 55 -267 113 -83 159 -96 400 -119 29 -3 84 -20 122 -37 82 -38 92 -39
195 -11 86 23 151 60 206 116 19 19 54 45 77 56 30 15 54 37 77 73 51 79 138
144 206 155 47 8 67 50 79 167 6 49 21 138 35 199 22 93 26 136 26 281 l1 172
-32 73 c-31 70 -33 82 -38 229 -3 85 -9 160 -13 166 -5 7 -31 20 -59 30 -35
13 -65 34 -94 66 -29 33 -54 50 -85 58 -24 6 -66 25 -95 41 -60 34 -190 69
-249 68 -23 0 -68 -9 -101 -18z m201 -16 c33 -7 98 -32 144 -54 46 -23 92 -41
101 -41 27 0 36 -19 64 -150 50 -239 58 -266 101 -361 62 -136 63 -132 -48
-127 -51 3 -101 8 -110 12 -13 6 -18 4 -18 -7 0 -18 49 -27 154 -27 l79 0 -7
-47 c-4 -27 -11 -142 -15 -258 -5 -152 -12 -220 -23 -245 -14 -34 -44 -168
-40 -182 1 -4 -24 -15 -56 -23 -31 -9 -70 -21 -87 -26 -36 -11 -95 -67 -95
-88 0 -36 -51 -120 -102 -167 -62 -59 -116 -89 -185 -104 -26 -6 -57 -15 -69
-21 -17 -9 -40 -3 -120 29 -54 22 -153 60 -219 85 -74 28 -153 67 -205 101
-47 31 -102 59 -122 62 -35 6 -38 9 -38 41 0 19 9 71 21 116 16 64 20 98 15
155 -4 39 -3 72 1 72 31 0 98 -28 153 -64 142 -93 164 -106 184 -106 12 0 32
-7 44 -16 19 -13 22 -13 22 -1 0 14 -25 27 -80 43 -13 4 -36 15 -50 24 -122
83 -190 121 -237 131 -49 11 -60 20 -141 106 -48 52 -95 112 -104 135 -10 22
-27 53 -38 68 -34 48 -50 118 -50 226 0 82 3 104 16 115 9 8 41 45 70 84 30
38 78 102 109 142 30 40 64 77 75 83 11 6 18 15 15 21 -9 14 -54 -25 -105 -91
-120 -158 -161 -210 -171 -215 -6 -4 -9 32 -7 105 l3 112 130 69 c125 65 140
70 330 114 146 33 241 61 350 104 222 88 248 93 361 66z m416 -218 l56 -25 4
-154 c3 -146 5 -156 34 -223 32 -72 49 -135 36 -135 -4 0 -20 8 -37 19 -23 14
-41 44 -77 127 -25 60 -49 118 -52 129 -9 31 -66 308 -66 319 0 5 10 0 23 -11
12 -11 47 -32 79 -46z m109 -547 c17 -10 19 -22 19 -143 0 -96 -6 -155 -20
-217 -11 -47 -25 -116 -30 -155 -29 -199 -35 -215 -77 -215 -19 0 -23 4 -19
18 3 9 12 46 21 82 8 36 22 90 30 120 10 37 15 103 15 210 0 171 16 310 35
310 4 0 15 -5 26 -10z m-240 -800 c-23 -17 -57 -55 -76 -85 -31 -48 -75 -88
-75 -69 0 4 10 33 21 65 22 61 54 90 117 109 51 16 55 10 13 -20z m-1050 -153
c46 -31 116 -68 154 -83 75 -29 108 -49 65 -40 -14 3 -58 10 -98 15 -54 7 -88
18 -129 43 -64 38 -143 105 -143 120 0 23 72 -3 151 -55z"/>
<path d="M1752 1666 c-26 -14 -52 -49 -89 -121 -14 -27 -26 -51 -27 -52 -1 -1
-24 5 -51 13 -71 21 -189 4 -245 -37 -22 -16 -42 -29 -46 -29 -3 0 -28 19 -55
42 -47 39 -56 43 -117 46 -62 3 -70 1 -100 -25 -62 -52 -60 -137 4 -264 72
-145 120 -195 170 -183 18 5 26 -1 39 -25 15 -31 15 -31 -12 -41 -57 -21 -59
-22 -46 -27 7 -3 29 1 48 7 57 19 77 -8 25 -35 -16 -9 -30 -20 -30 -26 0 -5
13 -3 30 6 55 29 88 10 51 -29 -29 -31 -26 -38 7 -19 26 15 28 14 68 -24 47
-45 98 -63 177 -63 70 0 98 11 158 61 46 38 68 78 83 151 6 27 14 32 79 43 20
3 37 10 37 16 0 5 -11 7 -25 4 -14 -3 -36 -7 -49 -10 -14 -3 -27 -1 -31 4 -7
12 26 31 54 31 11 0 23 5 27 12 5 8 -5 9 -34 5 -48 -6 -58 10 -12 20 17 3 30
10 30 16 0 5 -13 7 -30 4 -27 -6 -30 -4 -30 18 0 17 7 28 23 34 49 19 93 100
121 225 14 57 13 91 0 174 -7 48 -72 92 -133 92 -25 -1 -56 -6 -69 -14z m147
-32 c52 -44 66 -144 31 -223 -11 -24 -20 -52 -20 -62 0 -29 -28 -90 -52 -116
-26 -27 -46 -29 -55 -5 -17 49 -44 104 -49 100 -3 -3 4 -33 16 -67 11 -33 20
-78 20 -100 0 -37 -2 -40 -45 -57 -25 -9 -45 -21 -45 -26 0 -6 7 -7 16 -4 9 3
28 8 42 11 l27 5 -27 -12 c-35 -15 -36 -32 -2 -24 19 5 25 3 22 -6 -3 -7 -13
-15 -24 -16 -35 -7 -39 -22 -5 -22 29 0 32 -2 26 -22 -23 -83 -38 -108 -88
-145 -44 -31 -62 -38 -115 -41 -86 -6 -142 12 -188 59 -37 38 -37 39 -18 60
l19 21 -32 -7 c-40 -8 -46 11 -8 25 38 15 30 23 -16 15 -32 -6 -40 -4 -37 6 3
8 19 18 36 23 18 5 32 13 32 18 0 5 -8 7 -17 4 -55 -16 -70 -16 -81 -3 -17 20
-42 120 -42 167 0 24 -5 40 -11 40 -9 0 -10 -21 -6 -75 7 -83 1 -93 -44 -75
-64 27 -178 273 -162 353 9 45 56 77 114 77 57 0 77 -9 133 -57 22 -18 44 -33
50 -33 6 0 30 13 54 29 27 19 67 34 113 42 61 11 77 10 123 -4 29 -9 55 -17
58 -17 2 0 22 34 43 76 48 93 72 114 136 114 36 0 55 -6 78 -26z"/>
<path d="M1601 1315 c-33 -29 -56 -84 -47 -118 3 -12 21 -31 41 -41 41 -23 73
-13 101 29 22 33 14 99 -17 131 -28 30 -40 30 -78 -1z m69 -17 c39 -42 15
-138 -34 -138 -25 0 -66 41 -66 65 0 24 53 95 71 95 4 0 17 -10 29 -22z"/>
<path d="M1610 1220 c0 -5 5 -10 10 -10 6 0 10 5 10 10 0 6 -4 10 -10 10 -5 0
-10 -4 -10 -10z"/>
<path d="M1326 1239 c-35 -42 -35 -90 0 -118 55 -44 117 -13 117 57 0 89 -65
123 -117 61z m92 -31 c13 -33 13 -40 -2 -63 -22 -33 -59 -33 -85 1 -22 28 -19
47 13 82 29 32 57 25 74 -20z"/>
<path d="M1375 1181 c-3 -5 -1 -12 5 -16 5 -3 10 1 10 9 0 18 -6 21 -15 7z"/>
<path d="M1500 1060 c0 -27 34 -44 60 -30 25 13 25 26 1 40 -32 17 -61 12 -61
-10z"/>
<path d="M1519 965 c-63 -17 -98 -44 -99 -76 0 -37 9 -41 38 -19 41 33 115 50
188 43 64 -6 64 -6 61 18 -7 47 -89 62 -188 34z m157 -20 c17 -13 12 -14 -56
-12 -63 2 -84 -2 -128 -24 -54 -27 -66 -25 -33 5 44 40 179 60 217 31z"/>
</g>
</svg>
