<?xml version="1.0" standalone="no"?>
<!DOCTYPE svg PUBLIC "-//W3C//DTD SVG 20010904//EN"
 "http://www.w3.org/TR/2001/REC-SVG-20010904/DTD/svg10.dtd">
<svg version="1.0" xmlns="http://www.w3.org/2000/svg"
 width="300.000000pt" height="240.000000pt" viewBox="0 0 300.000000 240.000000"
 preserveAspectRatio="xMidYMid meet">

<g transform="translate(0.000000,240.000000) scale(0.100000,-0.100000)"
fill="#ffffff" stroke="none">
<path d="M1605 2151 c-33 -10 -94 -33 -135 -51 -123 -52 -176 -69 -376 -115
-214 -49 -211 -49 -346 -122 -53 -29 -103 -53 -111 -53 -23 0 -27 -32 -27
-262 0 -232 11 -312 49 -352 11 -12 29 -43 40 -69 12 -27 40 -69 63 -93 24
-25 64 -67 90 -94 44 -46 46 -51 53 -124 6 -60 3 -94 -13 -163 -42 -177 -37
-200 55 -267 113 -83 159 -96 400 -119 29 -3 84 -20 122 -37 82 -38 92 -39
195 -11 86 23 151 60 206 116 19 19 54 45 77 56 30 15 54 37 77 73 51 79 138
144 206 155 47 8 67 50 79 167 6 49 21 138 35 199 22 93 26 136 26 281 l1 172
-32 73 c-31 70 -33 82 -38 229 -3 85 -9 160 -13 166 -5 7 -31 20 -59 30 -35
13 -65 34 -94 66 -29 33 -54 50 -85 58 -24 6 -66 25 -95 41 -60 34 -190 69
-249 68 -23 0 -68 -9 -101 -18z m201 -16 c33 -7 98 -32 144 -54 46 -23 92 -41
101 -41 27 0 36 -19 64 -150 50 -239 58 -266 101 -361 62 -136 63 -132 -48
-127 -51 3 -101 8 -110 12 -13 6 -18 4 -18 -7 0 -18 49 -27 154 -27 l79 0 -7
-47 c-4 -27 -11 -142 -15 -258 -5 -152 -12 -220 -23 -245 -14 -34 -44 -168
-40 -182 1 -4 -24 -15 -56 -23 -31 -9 -70 -21 -87 -26 -36 -11 -95 -67 -95
-88 0 -36 -51 -120 -102 -167 -62 -59 -116 -89 -185 -104 -26 -6 -57 -15 -69
-21 -17 -9 -40 -3 -120 29 -54 22 -153 60 -219 85 -74 28 -153 67 -205 101
-47 31 -102 59 -122 62 -35 6 -38 9 -38 41 0 19 9 71 21 116 16 64 20 98 15
155 -4 39 -3 72 1 72 31 0 98 -28 153 -64 142 -93 164 -106 184 -106 12 0 32
-7 44 -16 19 -13 22 -13 22 -1 0 14 -25 27 -80 43 -13 4 -36 15 -50 24 -122
83 -190 121 -237 131 -49 11 -60 20 -141 106 -48 52 -95 112 -104 135 -10 22
-27 53 -38 68 -34 48 -50 118 -50 226 0 82 3 104 16 115 9 8 41 45 70 84 30
38 78 102 109 142 30 40 64 77 75 83 11 6 18 15 15 21 -9 14 -54 -25 -105 -91
-120 -158 -161 -210 -171 -215 -6 -4 -9 32 -7 105 l3 112 130 69 c125 65 140
70 330 114 146 33 241 61 350 104 222 88 248 93 361 66z m416 -218 l56 -25 4
-154 c3 -146 5 -156 34 -223 32 -72 49 -135 36 -135 -4 0 -20 8 -37 19 -23 14
-41 44 -77 127 -25 60 -49 118 -52 129 -9 31 -66 308 -66 319 0 5 10 0 23 -11
12 -11 47 -32 79 -46z m109 -547 c17 -10 19 -22 19 -143 0 -96 -6 -155 -20
-217 -11 -47 -25 -116 -30 -155 -29 -199 -35 -215 -77 -215 -19 0 -23 4 -19
18 3 9 12 46 21 82 8 36 22 90 30 120 10 37 15 103 15 210 0 171 16 310 35
310 4 0 15 -5 26 -10z m-240 -800 c-23 -17 -57 -55 -76 -85 -31 -48 -75 -88
-75 -69 0 4 10 33 21 65 22 61 54 90 117 109 51 16 55 10 13 -20z m-1050 -153
c46 -31 116 -68 154 -83 75 -29 108 -49 65 -40 -14 3 -58 10 -98 15 -54 7 -88
18 -129 43 -64 38 -143 105 -143 120 0 23 72 -3 151 -55z"/>
<path d="M1659 1737 c-20 -23 -53 -83 -74 -132 -38 -91 -77 -140 -138 -172
-41 -21 -45 -9 -10 35 44 55 53 76 53 126 0 55 -13 59 -35 12 -20 -43 -41 -60
-85 -75 -19 -6 -70 -43 -113 -82 -82 -75 -120 -136 -151 -238 -29 -100 -14
-155 23 -83 41 79 119 123 221 124 215 2 357 -231 244 -397 -29 -43 -29 -45
-6 -45 25 0 125 72 139 101 7 14 30 39 52 57 28 23 44 45 52 75 6 23 15 52 20
64 13 36 -7 36 -31 0 l-22 -32 7 30 c4 17 11 59 15 95 5 36 20 88 34 117 14
28 28 63 32 77 3 14 10 29 15 32 14 8 10 34 -5 34 -7 0 -23 -23 -34 -50 -19
-45 -27 -53 -77 -75 -31 -14 -58 -25 -60 -25 -12 0 -2 25 33 83 46 76 115 218
132 272 7 22 19 53 27 68 8 16 12 31 10 33 -3 3 -38 -28 -79 -68 -52 -50 -87
-96 -113 -146 -31 -60 -101 -140 -112 -129 -1 2 6 26 16 53 11 27 29 96 40
154 11 58 23 115 27 128 10 33 -7 26 -47 -21z m-4 -128 c-9 -52 -28 -117 -42
-146 -23 -49 -24 -73 -2 -73 24 0 114 100 144 161 33 65 105 143 113 120 5
-16 -155 -336 -188 -377 -24 -27 12 -23 85 10 41 19 75 33 75 31 0 -1 -9 -22
-20 -46 -11 -24 -20 -62 -20 -84 -1 -65 -17 -115 -46 -146 -39 -41 -19 -60 25
-24 28 24 31 25 31 8 0 -10 -22 -41 -50 -68 -27 -27 -50 -55 -50 -62 0 -12
-81 -66 -88 -58 -2 2 4 17 12 34 10 18 16 55 16 94 0 51 -6 76 -31 125 -50
101 -131 153 -252 160 -98 6 -150 -13 -212 -75 -25 -24 -45 -40 -45 -35 0 15
37 116 55 153 38 73 161 187 227 208 20 7 44 23 53 37 9 14 19 23 22 21 9 -10
-17 -74 -38 -93 -31 -28 -53 -74 -41 -86 13 -13 101 34 145 77 18 19 47 68 66
116 33 79 59 124 68 115 2 -2 -3 -46 -12 -97z"/>
<path d="M1276 1215 c-135 -52 -196 -207 -131 -335 88 -173 337 -171 427 4 28
53 30 155 4 206 -57 110 -191 166 -300 125z m169 -24 c53 -24 111 -90 125
-143 48 -177 -133 -332 -302 -259 -110 48 -160 184 -109 297 46 102 183 152
286 105z"/>
<path d="M1197 1059 c-20 -28 -23 -106 -5 -144 15 -33 53 -43 78 -20 27 24 25
47 -6 78 -14 14 -31 45 -38 68 l-13 42 -16 -24z m73 -131 c0 -9 -10 -20 -22
-24 -30 -9 -48 19 -48 75 l0 44 35 -39 c19 -21 34 -47 35 -56z"/>
<path d="M1467 1042 c-21 -24 -21 -51 0 -81 9 -13 16 -39 15 -57 -2 -45 13
-43 38 6 20 39 25 85 14 128 -8 27 -44 30 -67 4z m51 -46 c5 -62 -5 -76 -28
-38 -23 38 -25 53 -8 70 20 20 33 8 36 -32z"/>
</g>
</svg>
