<?xml version="1.0" standalone="no"?>
<!DOCTYPE svg PUBLIC "-//W3C//DTD SVG 20010904//EN"
 "http://www.w3.org/TR/2001/REC-SVG-20010904/DTD/svg10.dtd">
<svg version="1.0" xmlns="http://www.w3.org/2000/svg"
 width="400.000000pt" height="320.000000pt" viewBox="0 0 400.000000 320.000000"
 preserveAspectRatio="xMidYMid meet">

<g transform="translate(0.000000,320.000000) scale(0.100000,-0.100000)"
fill="#ffffff" stroke="none">
<path d="M1964 2639 c-40 -4 -88 -12 -108 -19 -36 -11 -36 -12 -36 -68 1 -70
16 -142 35 -156 11 -9 11 -17 -2 -49 -14 -35 -26 -43 -151 -103 -155 -74 -231
-126 -318 -216 -122 -125 -197 -271 -230 -443 -31 -166 -5 -370 65 -514 18
-37 28 -73 25 -85 -3 -14 7 -38 28 -70 18 -27 41 -61 50 -75 24 -35 47 -51 74
-51 13 0 53 -22 89 -50 149 -113 323 -170 514 -170 190 0 334 43 487 145 352
235 479 692 300 1081 -20 42 -36 89 -36 104 0 31 -69 141 -103 165 -12 8 -33
15 -47 15 -14 0 -45 16 -70 36 -60 47 -148 95 -239 129 -112 42 -197 129 -155
159 20 15 33 80 34 163 0 57 -2 63 -22 67 -51 10 -117 12 -184 5z m150 -19
l39 0 -6 -91 c-3 -51 -10 -96 -14 -100 -13 -13 -260 -16 -272 -4 -6 6 -14 46
-19 89 -8 78 -8 78 17 88 32 12 168 27 196 22 11 -2 38 -4 59 -4z m-5 -255
c21 -60 78 -103 170 -131 96 -29 281 -140 281 -169 0 -17 -133 -141 -350 -326
-107 -92 -249 -213 -315 -270 -227 -196 -360 -306 -432 -357 -76 -54 -163
-102 -186 -102 -15 0 -55 76 -81 153 -29 88 -49 227 -43 308 18 229 93 395
252 554 110 110 165 146 310 206 126 52 141 62 158 112 14 42 14 42 73 48 32
3 79 6 104 7 44 2 47 0 59 -33z m553 -347 c47 -59 68 -94 68 -114 0 -9 -22
-42 -50 -73 -80 -93 -539 -526 -561 -529 -32 -5 -106 37 -129 72 -11 19 -23
53 -26 77 l-6 44 168 147 c93 80 216 186 274 236 58 49 124 110 147 136 23 25
51 46 62 46 11 0 34 -18 53 -42z m114 -232 c98 -213 100 -490 6 -699 -184
-404 -632 -601 -1051 -461 -85 28 -196 88 -255 138 l-40 33 91 47 c101 54 288
185 501 352 145 113 395 344 597 550 61 62 111 113 113 113 2 1 19 -32 38 -73z
m-826 -364 c10 -40 71 -122 91 -122 4 0 20 -5 35 -10 26 -10 26 -11 8 -24 -21
-16 -49 -8 -101 27 -59 40 -96 136 -65 170 9 10 17 15 19 10 1 -4 7 -27 13
-51z m-56 -37 c9 -44 56 -100 108 -126 21 -11 38 -21 38 -24 0 -3 -34 -32 -76
-65 -115 -90 -200 -103 -256 -40 -32 35 -34 56 -13 107 16 38 159 183 181 183
6 0 15 -16 18 -35z m-227 -173 c-18 -68 28 -125 113 -140 l45 -8 -114 -81
c-126 -89 -279 -173 -315 -173 -23 0 -86 73 -121 140 -15 28 -14 31 2 36 32
10 137 67 188 103 69 49 182 139 190 151 14 23 21 7 12 -28z"/>
<path d="M1918 2594 c-6 -10 9 -154 16 -161 12 -13 25 9 16 27 -5 10 -10 40
-10 67 0 47 -13 84 -22 67z"/>
<path d="M1970 2526 c0 -41 5 -78 10 -81 6 -4 10 23 10 74 0 47 -4 81 -10 81
-6 0 -10 -31 -10 -74z"/>
<path d="M2016 2585 c-13 -35 -3 -145 13 -145 7 0 5 149 -2 157 -3 2 -7 -3
-11 -12z"/>
<path d="M2067 2593 c-11 -10 -8 -151 3 -158 6 -4 10 25 10 79 0 86 -1 92 -13
79z"/>
<path d="M2106 2529 c-7 -80 5 -119 16 -49 9 64 9 120 -1 120 -4 0 -11 -32
-15 -71z"/>
<path d="M1871 2530 c0 -36 4 -74 9 -85 11 -26 13 -15 10 65 -2 87 -20 104
-19 20z"/>
<path d="M2540 1850 c0 -5 5 -10 10 -10 6 0 10 5 10 10 0 6 -4 10 -10 10 -5 0
-10 -4 -10 -10z"/>
<path d="M2350 1680 c0 -5 5 -10 10 -10 6 0 10 5 10 10 0 6 -4 10 -10 10 -5 0
-10 -4 -10 -10z"/>
<path d="M2150 1500 c0 -5 5 -10 10 -10 6 0 10 5 10 10 0 6 -4 10 -10 10 -5 0
-10 -4 -10 -10z"/>
</g>
</svg>
