<?xml version="1.0" standalone="no"?>
<!DOCTYPE svg PUBLIC "-//W3C//DTD SVG 20010904//EN"
 "http://www.w3.org/TR/2001/REC-SVG-20010904/DTD/svg10.dtd">
<svg version="1.0" xmlns="http://www.w3.org/2000/svg"
 width="300.000000pt" height="240.000000pt" viewBox="0 0 300.000000 240.000000"
 preserveAspectRatio="xMidYMid meet">

<g transform="translate(0.000000,240.000000) scale(0.100000,-0.100000)"
fill="#ffffff" stroke="none">
<path d="M1055 2075 c-45 -21 -63 -38 -67 -65 -2 -19 -8 -24 -23 -22 -21 4
-103 4 -145 1 -14 -1 -33 1 -42 5 -12 5 -25 0 -44 -19 -21 -21 -24 -32 -19
-53 4 -15 7 -58 7 -96 0 -81 -6 -87 -88 -88 -42 -1 -63 5 -94 26 -22 14 -43
26 -47 26 -5 0 -33 -20 -63 -45 -46 -38 -54 -50 -52 -73 11 -87 147 -249 269
-320 99 -58 112 -58 177 7 l54 53 -29 55 c-20 39 -29 69 -29 103 0 77 3 80 79
80 l68 0 639 -655 c589 -604 641 -655 672 -655 26 0 35 5 42 26 6 14 10 30 10
35 0 9 -789 827 -1147 1190 l-134 135 13 47 c9 35 9 57 2 87 -11 38 -10 39 17
45 17 4 35 19 48 40 25 43 60 65 111 72 49 7 47 20 -6 50 -46 27 -132 30 -179
8z m167 -21 c14 -9 -1 -24 -24 -24 -20 0 -81 -53 -89 -78 -5 -15 -89 55 -89
74 0 11 60 40 95 47 20 3 91 -9 107 -19z m-159 -102 c17 -19 18 -21 1 -30 -14
-8 -23 -3 -41 19 -43 51 -5 61 40 11z m-294 -8 c-26 -27 -39 -31 -39 -10 0 18
40 47 52 40 5 -4 -1 -17 -13 -30z m210 9 c49 -37 66 -71 66 -131 0 -93 -58
-153 -150 -154 -81 -2 -145 56 -153 140 -5 54 10 92 51 130 48 45 136 52 186
15z m-305 -368 c91 -95 166 -177 166 -182 0 -4 -16 -21 -36 -37 l-36 -29 -87
84 c-47 46 -130 127 -184 179 l-98 95 43 36 c23 20 47 35 54 32 6 -2 86 -82
178 -178z m134 52 c-11 -21 -6 -121 6 -152 5 -11 -46 34 -113 100 -66 66 -121
123 -121 126 0 4 24 7 53 7 28 0 63 5 76 9 20 8 30 3 66 -31 35 -33 41 -44 33
-59z m574 -280 l121 -128 -24 -25 -25 -24 -159 162 c-88 90 -195 200 -237 244
l-76 81 26 21 27 20 113 -111 c62 -62 168 -170 234 -240z m-747 83 c86 -88 96
-101 71 -96 -83 20 -249 180 -292 281 l-16 39 69 -61 c37 -34 113 -107 168
-163z m905 -245 c7 -9 10 -18 7 -21 -9 -9 -48 16 -42 27 9 13 21 11 35 -6z
m17 -40 c15 5 53 -20 53 -35 0 -5 -17 -10 -37 -13 -32 -4 -43 0 -70 26 -38 36
-34 53 8 31 17 -8 38 -13 46 -9z m111 -88 l33 -34 -40 -15 -41 -16 -30 34
c-43 50 -43 51 36 63 5 0 25 -14 42 -32z m86 -96 l37 -38 -40 -10 c-38 -10
-41 -9 -77 28 l-37 38 24 10 c41 16 54 12 93 -28z m95 -95 l33 -34 -42 -7
c-39 -7 -45 -4 -74 24 -26 26 -29 33 -16 41 30 19 66 11 99 -24z m86 -86 c16
-16 27 -32 24 -34 -2 -2 -21 -6 -41 -7 -30 -3 -43 2 -68 26 -34 32 -27 45 26
45 21 0 39 -9 59 -30z m85 -85 l23 -25 -31 -6 c-46 -9 -40 -27 6 -19 31 5 41
2 59 -17 l22 -23 -47 0 c-44 0 -50 3 -101 58 l-54 57 50 0 c40 0 54 -5 73 -25z
m48 -117 c-3 -7 -11 -13 -18 -13 -7 0 -15 6 -17 13 -3 7 4 12 17 12 13 0 20
-5 18 -12z m233 -180 c13 -24 1 -48 -25 -48 -14 0 -55 33 -116 95 l-94 94 24
26 24 26 89 -88 c48 -48 93 -96 98 -105z"/>
<path d="M850 1940 c0 -5 12 -10 26 -10 69 0 124 -55 124 -125 0 -19 5 -35 11
-35 22 0 4 98 -22 127 -39 42 -139 73 -139 43z"/>
</g>
</svg>
