<?xml version="1.0" standalone="no"?>
<!DOCTYPE svg PUBLIC "-//W3C//DTD SVG 20010904//EN"
 "http://www.w3.org/TR/2001/REC-SVG-20010904/DTD/svg10.dtd">
<svg version="1.0" xmlns="http://www.w3.org/2000/svg"
 width="300.000000pt" height="240.000000pt" viewBox="0 0 300.000000 240.000000"
 preserveAspectRatio="xMidYMid meet">

<g transform="translate(0.000000,240.000000) scale(0.100000,-0.100000)"
fill="#ffffff" stroke="none">
<path d="M1605 2151 c-33 -10 -94 -33 -135 -51 -123 -52 -176 -69 -376 -115
-214 -49 -211 -49 -346 -122 -53 -29 -103 -53 -111 -53 -23 0 -27 -32 -27
-262 0 -232 11 -312 49 -352 11 -12 29 -43 40 -69 12 -27 40 -69 63 -93 24
-25 64 -67 90 -94 44 -46 46 -51 53 -124 6 -60 3 -94 -13 -163 -42 -177 -37
-200 55 -267 113 -83 159 -96 400 -119 29 -3 84 -20 122 -37 82 -38 92 -39
195 -11 86 23 151 60 206 116 19 19 54 45 77 56 30 15 54 37 77 73 51 79 138
144 206 155 47 8 67 50 79 167 6 49 21 138 35 199 22 93 26 136 26 281 l1 172
-32 73 c-31 70 -33 82 -38 229 -3 85 -9 160 -13 166 -5 7 -31 20 -59 30 -35
13 -65 34 -94 66 -29 33 -54 50 -85 58 -24 6 -66 25 -95 41 -60 34 -190 69
-249 68 -23 0 -68 -9 -101 -18z m201 -16 c33 -7 98 -32 144 -54 46 -23 92 -41
101 -41 27 0 36 -19 64 -150 50 -239 58 -266 101 -361 62 -136 63 -132 -48
-127 -51 3 -101 8 -110 12 -13 6 -18 4 -18 -7 0 -18 49 -27 154 -27 l79 0 -7
-47 c-4 -27 -11 -142 -15 -258 -5 -152 -12 -220 -23 -245 -14 -34 -44 -168
-40 -182 1 -4 -24 -15 -56 -23 -31 -9 -70 -21 -87 -26 -36 -11 -95 -67 -95
-88 0 -36 -51 -120 -102 -167 -62 -59 -116 -89 -185 -104 -26 -6 -57 -15 -69
-21 -17 -9 -40 -3 -120 29 -54 22 -153 60 -219 85 -74 28 -153 67 -205 101
-47 31 -102 59 -122 62 -35 6 -38 9 -38 41 0 19 9 71 21 116 16 64 20 98 15
155 -4 39 -3 72 1 72 31 0 98 -28 153 -64 142 -93 164 -106 184 -106 12 0 32
-7 44 -16 19 -13 22 -13 22 -1 0 14 -25 27 -80 43 -13 4 -36 15 -50 24 -122
83 -190 121 -237 131 -49 11 -60 20 -141 106 -48 52 -95 112 -104 135 -10 22
-27 53 -38 68 -34 48 -50 118 -50 226 0 82 3 104 16 115 9 8 41 45 70 84 30
38 78 102 109 142 30 40 64 77 75 83 11 6 18 15 15 21 -9 14 -54 -25 -105 -91
-120 -158 -161 -210 -171 -215 -6 -4 -9 32 -7 105 l3 112 130 69 c125 65 140
70 330 114 146 33 241 61 350 104 222 88 248 93 361 66z m416 -218 l56 -25 4
-154 c3 -146 5 -156 34 -223 32 -72 49 -135 36 -135 -4 0 -20 8 -37 19 -23 14
-41 44 -77 127 -25 60 -49 118 -52 129 -9 31 -66 308 -66 319 0 5 10 0 23 -11
12 -11 47 -32 79 -46z m109 -547 c17 -10 19 -22 19 -143 0 -96 -6 -155 -20
-217 -11 -47 -25 -116 -30 -155 -29 -199 -35 -215 -77 -215 -19 0 -23 4 -19
18 3 9 12 46 21 82 8 36 22 90 30 120 10 37 15 103 15 210 0 171 16 310 35
310 4 0 15 -5 26 -10z m-240 -800 c-23 -17 -57 -55 -76 -85 -31 -48 -75 -88
-75 -69 0 4 10 33 21 65 22 61 54 90 117 109 51 16 55 10 13 -20z m-1050 -153
c46 -31 116 -68 154 -83 75 -29 108 -49 65 -40 -14 3 -58 10 -98 15 -54 7 -88
18 -129 43 -64 38 -143 105 -143 120 0 23 72 -3 151 -55z"/>
<path d="M1498 1684 c-11 -11 -9 -166 2 -184 5 -8 10 -12 12 -10 7 10 -7 201
-14 194z"/>
<path d="M1850 1548 c-31 -55 -35 -68 -22 -68 4 0 20 24 37 53 39 67 39 67 26
67 -6 0 -24 -24 -41 -52z"/>
<path d="M1120 1532 c0 -16 79 -112 92 -112 13 0 -6 31 -51 80 -22 25 -40 39
-41 32z"/>
<path d="M1345 1371 c-167 -51 -255 -111 -255 -173 0 -68 58 -127 168 -171 34
-14 98 -53 143 -86 90 -68 109 -76 175 -67 57 7 78 24 115 98 24 48 40 65 93
98 71 45 142 118 163 168 19 45 1 79 -57 111 -64 36 -156 50 -315 50 -124 0
-150 -3 -230 -28z m431 -2 c73 -13 93 -25 96 -59 3 -28 5 -28 -82 2 -32 11
-98 21 -160 25 -93 5 -118 2 -215 -22 -97 -23 -212 -70 -240 -96 -17 -16 -25
-9 -25 21 0 28 6 33 66 61 133 62 205 78 358 78 77 1 168 -4 202 -10z m-6 -68
c20 -6 45 -17 55 -25 17 -12 17 -16 5 -30 -39 -48 -147 -54 -199 -11 -14 12
-36 27 -48 34 -62 32 -151 -7 -193 -86 l-26 -48 -56 1 c-55 1 -129 28 -135 50
-6 18 117 77 222 106 90 25 112 27 220 24 66 -3 136 -9 155 -15z m160 -6 c7
-9 10 -25 6 -41 -10 -37 -109 -139 -170 -174 -54 -30 -88 -68 -99 -110 -14
-50 -44 -73 -103 -78 -59 -5 -57 -5 -206 102 -26 19 -69 42 -95 52 -63 23
-111 56 -134 91 -20 30 -26 83 -9 83 6 0 10 -4 10 -9 0 -21 68 -72 114 -86 53
-16 114 -19 131 -7 6 4 19 27 30 50 11 26 34 54 54 68 58 39 115 30 173 -28
17 -17 65 -24 128 -19 36 3 118 61 131 93 13 32 21 34 39 13z"/>
<path d="M1521 1212 c-40 -6 -69 -31 -92 -78 -29 -61 -20 -122 26 -172 29 -32
40 -37 77 -37 75 0 128 61 128 148 0 87 -64 151 -139 139z m59 -27 c78 -40 81
-179 6 -229 -14 -9 -38 -16 -54 -16 -109 0 -135 190 -33 245 34 18 46 18 81 0z"/>
<path d="M1525 1153 c-29 -7 -43 -23 -19 -23 30 0 64 11 64 21 0 9 -12 10 -45
2z"/>
<path d="M1518 1096 c-40 -12 -60 -26 -37 -26 27 0 119 25 119 32 0 11 -38 8
-82 -6z"/>
<path d="M1526 1041 c-28 -10 -45 -20 -39 -24 13 -8 103 21 103 34 0 12 -5 11
-64 -10z"/>
<path d="M1543 998 c-20 -10 -32 -28 -19 -28 16 0 56 21 56 30 0 12 -8 12 -37
-2z"/>
<path d="M2098 1283 c-10 -2 -18 -9 -18 -15 0 -6 10 -8 23 -4 12 3 32 6 45 6
12 0 22 5 22 10 0 10 -40 12 -72 3z"/>
<path d="M938 1157 c-55 -10 -80 -27 -38 -27 38 0 120 22 114 31 -3 5 -8 8
-12 8 -4 -1 -33 -6 -64 -12z"/>
<path d="M1870 1002 c0 -10 90 -79 116 -89 32 -12 10 15 -43 52 -67 47 -73 50
-73 37z"/>
<path d="M1191 849 c-7 -23 -10 -44 -7 -47 8 -7 9 -5 28 46 13 32 13 42 4 42
-7 0 -18 -18 -25 -41z"/>
<path d="M1576 788 c4 -18 8 -55 8 -82 1 -28 6 -51 13 -53 8 -3 10 14 7 59 -5
80 -12 108 -25 108 -7 0 -8 -12 -3 -32z"/>
<path d="M1137 724 c-4 -4 -7 -14 -7 -23 0 -11 3 -12 11 -4 6 6 10 16 7 23 -2
6 -7 8 -11 4z"/>
</g>
</svg>
