<?xml version="1.0" standalone="no"?>
<!DOCTYPE svg PUBLIC "-//W3C//DTD SVG 20010904//EN"
 "http://www.w3.org/TR/2001/REC-SVG-20010904/DTD/svg10.dtd">
<svg version="1.0" xmlns="http://www.w3.org/2000/svg"
 width="400.000000pt" height="320.000000pt" viewBox="0 0 400.000000 320.000000"
 preserveAspectRatio="xMidYMid meet">

<g transform="translate(0.000000,320.000000) scale(0.100000,-0.100000)"
fill="#FFFFFF" stroke="none">
<path d="M1927 2560 c-16 -5 -34 -13 -40 -18 -7 -5 -33 -16 -59 -26 -57 -21
-138 -103 -138 -140 0 -14 -5 -28 -11 -32 -17 -10 -77 -109 -85 -138 -6 -23
-10 -25 -52 -23 -37 2 -47 -2 -50 -15 -3 -16 9 -30 51 -61 17 -12 17 -15 3
-42 -9 -17 -16 -35 -16 -42 0 -6 -11 -44 -25 -85 -90 -259 -97 -632 -16 -875
15 -46 23 -83 18 -83 -16 0 -127 -113 -127 -130 0 -21 117 -69 255 -106 114
-30 346 -44 515 -32 165 12 450 100 450 138 0 17 -111 130 -127 130 -5 0 3 37
18 83 81 243 74 616 -16 875 -14 41 -25 79 -25 85 0 7 -7 25 -16 42 -14 27
-14 30 3 42 42 31 54 45 51 61 -3 13 -13 17 -50 15 -42 -2 -46 -1 -53 25 -4
15 -24 53 -46 86 -21 32 -39 69 -39 81 0 84 -93 171 -194 181 -126 12 -154 13
-179 4z m148 -34 c28 -19 43 -62 28 -85 -15 -24 -73 -33 -148 -24 -78 9 -95
25 -80 70 20 57 138 80 200 39z m126 -27 c30 -19 52 -43 64 -68 25 -56 13 -75
-14 -22 -28 53 -75 98 -113 106 -15 4 -30 11 -34 16 -11 18 50 -3 97 -32z
m-361 -10 c-41 -17 -90 -59 -90 -78 0 -18 -28 -37 -38 -26 -11 11 107 115 130
114 23 0 23 0 -2 -10z m320 -4 c27 -14 76 -72 68 -80 -2 -2 -25 3 -50 13 -41
14 -47 20 -50 49 -5 38 -6 38 32 18z m-310 -34 c0 -12 -9 -21 -24 -25 -13 -3
-32 -9 -43 -12 -10 -3 -4 7 17 25 40 36 50 38 50 12z m80 -51 c60 -7 104 -7
150 1 63 11 68 10 120 -16 70 -35 115 -78 146 -137 38 -75 38 -75 -83 -83
-149 -11 -632 0 -646 14 -15 15 27 101 72 144 34 33 123 86 146 86 6 1 48 -4
95 -9z m-225 -251 c167 -13 614 -7 698 11 67 13 82 7 49 -20 -44 -36 -116 -41
-494 -38 -340 3 -366 4 -402 23 -50 25 -62 51 -20 42 16 -4 92 -12 169 -18z
m712 -96 c59 -141 102 -343 110 -529 9 -207 -45 -517 -95 -543 -9 -5 -48 -15
-87 -24 -98 -21 -664 -17 -742 6 -28 8 -56 18 -62 21 -19 12 -59 159 -76 285
-21 144 -16 329 10 476 16 86 62 247 89 310 l13 30 414 -2 414 -2 12 -28z
m-817 -1109 c44 -13 117 -17 365 -19 276 -3 319 -1 393 16 46 10 92 19 102 19
11 0 42 -23 71 -52 48 -48 50 -52 33 -65 -26 -19 -110 -49 -226 -80 -99 -27
-112 -28 -348 -28 -236 0 -249 1 -348 28 -116 31 -200 61 -226 80 -17 13 -15
17 33 65 57 57 68 60 151 36z"/>
<path d="M1900 1833 c0 -3 7 -14 16 -24 21 -23 44 -113 44 -174 0 -42 -8 -64
-45 -128 -39 -66 -46 -87 -48 -135 -1 -45 4 -66 22 -95 12 -20 29 -37 37 -37
11 0 7 10 -13 36 -37 50 -37 123 0 185 61 102 70 128 64 198 -2 36 -12 86 -20
111 -9 24 -15 45 -14 47 8 7 106 -49 129 -73 50 -53 60 -95 60 -248 1 -176
-13 -219 -73 -237 -43 -13 -43 -33 -1 -23 39 9 69 47 88 110 11 40 13 66 7 92
-5 21 -6 60 -2 87 17 131 -32 230 -142 286 -54 27 -109 38 -109 22z"/>
<path d="M2037 1614 c-4 -4 -4 -17 -1 -29 7 -27 -15 -71 -58 -120 -17 -20 -27
-39 -23 -43 7 -7 30 16 72 73 l22 30 2 -40 c1 -22 1 -50 0 -62 -2 -24 14 -32
22 -10 2 6 1 52 -3 100 -6 82 -18 116 -33 101z"/>
<path d="M1980 1341 c-14 -28 -12 -76 5 -118 19 -46 19 -73 -1 -101 -20 -29
-8 -45 12 -17 25 34 28 66 10 114 -19 53 -21 94 -6 122 7 12 7 19 1 19 -6 0
-15 -9 -21 -19z"/>
<path d="M1894 1156 c-10 -8 -16 -18 -11 -22 4 -4 13 -2 19 4 7 7 20 12 31 12
10 0 15 5 12 10 -9 14 -28 12 -51 -4z"/>
<path d="M2050 1161 c0 -5 10 -11 23 -15 36 -9 43 -6 23 9 -22 17 -46 20 -46
6z"/>
<path d="M1657 1110 c-26 -16 -47 -36 -47 -45 0 -10 14 -5 46 20 25 19 52 35
59 35 8 0 17 5 20 10 13 20 -33 9 -78 -20z"/>
<path d="M2195 1130 c-3 -5 2 -10 12 -10 10 0 36 -9 58 -20 46 -23 45 -23 45
-10 0 11 -75 49 -97 50 -6 0 -15 -4 -18 -10z"/>
<path d="M1870 1105 c0 -20 40 -45 83 -52 23 -3 49 2 82 16 60 26 52 39 -9 16
-54 -21 -110 -14 -129 15 -14 24 -27 26 -27 5z"/>
</g>
</svg>
