<?xml version="1.0" standalone="no"?>
<!DOCTYPE svg PUBLIC "-//W3C//DTD SVG 20010904//EN"
 "http://www.w3.org/TR/2001/REC-SVG-20010904/DTD/svg10.dtd">
<svg version="1.0" xmlns="http://www.w3.org/2000/svg"
 width="300.000000pt" height="240.000000pt" viewBox="0 0 300.000000 240.000000"
 preserveAspectRatio="xMidYMid meet">

<g transform="translate(0.000000,240.000000) scale(0.100000,-0.100000)"
fill="#ffffff" stroke="none">
<path d="M1605 2151 c-33 -10 -94 -33 -135 -51 -123 -52 -176 -69 -376 -115
-214 -49 -211 -49 -346 -122 -53 -29 -103 -53 -111 -53 -23 0 -27 -32 -27
-262 0 -232 11 -312 49 -352 11 -12 29 -43 40 -69 12 -27 40 -69 63 -93 24
-25 64 -67 90 -94 44 -46 46 -51 53 -124 6 -60 3 -94 -13 -163 -42 -177 -37
-200 55 -267 113 -83 159 -96 400 -119 29 -3 84 -20 122 -37 82 -38 92 -39
195 -11 86 23 151 60 206 116 19 19 54 45 77 56 30 15 54 37 77 73 51 79 138
144 206 155 47 8 67 50 79 167 6 49 21 138 35 199 22 93 26 136 26 281 l1 172
-32 73 c-31 70 -33 82 -38 229 -3 85 -9 160 -13 166 -5 7 -31 20 -59 30 -35
13 -65 34 -94 66 -29 33 -54 50 -85 58 -24 6 -66 25 -95 41 -60 34 -190 69
-249 68 -23 0 -68 -9 -101 -18z m201 -16 c33 -7 98 -32 144 -54 46 -23 92 -41
101 -41 27 0 36 -19 64 -150 50 -239 58 -266 101 -361 62 -136 63 -132 -48
-127 -51 3 -101 8 -110 12 -13 6 -18 4 -18 -7 0 -18 49 -27 154 -27 l79 0 -7
-47 c-4 -27 -11 -142 -15 -258 -5 -152 -12 -220 -23 -245 -14 -34 -44 -168
-40 -182 1 -4 -24 -15 -56 -23 -31 -9 -70 -21 -87 -26 -36 -11 -95 -67 -95
-88 0 -36 -51 -120 -102 -167 -62 -59 -116 -89 -185 -104 -26 -6 -57 -15 -69
-21 -17 -9 -40 -3 -120 29 -54 22 -153 60 -219 85 -74 28 -153 67 -205 101
-47 31 -102 59 -122 62 -35 6 -38 9 -38 41 0 19 9 71 21 116 16 64 20 98 15
155 -4 39 -3 72 1 72 31 0 98 -28 153 -64 142 -93 164 -106 184 -106 12 0 32
-7 44 -16 19 -13 22 -13 22 -1 0 14 -25 27 -80 43 -13 4 -36 15 -50 24 -122
83 -190 121 -237 131 -49 11 -60 20 -141 106 -48 52 -95 112 -104 135 -10 22
-27 53 -38 68 -34 48 -50 118 -50 226 0 82 3 104 16 115 9 8 41 45 70 84 30
38 78 102 109 142 30 40 64 77 75 83 11 6 18 15 15 21 -9 14 -54 -25 -105 -91
-120 -158 -161 -210 -171 -215 -6 -4 -9 32 -7 105 l3 112 130 69 c125 65 140
70 330 114 146 33 241 61 350 104 222 88 248 93 361 66z m416 -218 l56 -25 4
-154 c3 -146 5 -156 34 -223 32 -72 49 -135 36 -135 -4 0 -20 8 -37 19 -23 14
-41 44 -77 127 -25 60 -49 118 -52 129 -9 31 -66 308 -66 319 0 5 10 0 23 -11
12 -11 47 -32 79 -46z m109 -547 c17 -10 19 -22 19 -143 0 -96 -6 -155 -20
-217 -11 -47 -25 -116 -30 -155 -29 -199 -35 -215 -77 -215 -19 0 -23 4 -19
18 3 9 12 46 21 82 8 36 22 90 30 120 10 37 15 103 15 210 0 171 16 310 35
310 4 0 15 -5 26 -10z m-240 -800 c-23 -17 -57 -55 -76 -85 -31 -48 -75 -88
-75 -69 0 4 10 33 21 65 22 61 54 90 117 109 51 16 55 10 13 -20z m-1050 -153
c46 -31 116 -68 154 -83 75 -29 108 -49 65 -40 -14 3 -58 10 -98 15 -54 7 -88
18 -129 43 -64 38 -143 105 -143 120 0 23 72 -3 151 -55z"/>
<path d="M1460 1943 c0 -5 4 -15 10 -23 11 -18 25 -7 17 15 -6 15 -27 21 -27
8z"/>
<path d="M1637 1880 c-15 -21 -23 -41 -18 -44 8 -5 61 62 61 77 0 17 -17 4
-43 -33z"/>
<path d="M1280 1821 c0 -7 51 -31 66 -31 14 0 -1 19 -21 28 -31 14 -45 15 -45
3z"/>
<path d="M1485 1790 c10 -32 -14 -158 -41 -216 -27 -58 -29 -79 -9 -114 20
-35 19 -37 -19 -50 -42 -14 -50 -39 -24 -86 18 -34 19 -54 16 -284 -2 -187 -6
-251 -16 -263 -36 -43 24 -82 125 -82 51 0 66 4 86 23 31 30 39 58 22 76 -26
25 -30 139 -9 242 16 84 17 108 6 227 -11 127 -12 133 -40 156 l-29 23 16 44
c15 41 14 47 -6 111 -12 38 -28 99 -35 138 -10 54 -17 71 -31 73 -15 3 -18 0
-12 -18z m38 -125 c3 -22 13 -61 23 -86 15 -40 16 -52 6 -88 -15 -49 -54 -80
-77 -61 -8 7 -20 29 -26 50 -10 32 -8 43 14 91 14 30 29 76 33 102 7 55 20 51
27 -8z m52 -265 c10 -11 19 -30 20 -43 16 -197 17 -248 5 -298 -13 -53 -14
-53 -22 -24 -5 17 -6 55 -4 85 7 70 -23 187 -54 212 -14 12 -39 18 -69 18 -26
0 -50 3 -54 6 -11 11 5 34 23 34 11 0 22 5 25 10 4 6 15 8 26 5 10 -4 27 -2
36 4 27 16 48 13 68 -9z m-57 -90 c20 -32 36 -119 33 -183 -1 -32 5 -86 13
-120 8 -34 18 -97 21 -139 6 -70 5 -77 -14 -87 -21 -12 -82 -13 -119 -2 l-23
6 -2 273 -2 272 40 0 c30 0 44 -5 53 -20z m92 -549 c-26 -49 -95 -64 -170 -37
-33 12 -51 44 -22 38 67 -13 131 -13 158 1 39 21 47 21 34 -2z"/>
<path d="M1486 1534 c-10 -25 -7 -92 4 -99 6 -4 10 9 10 32 0 21 3 48 6 61 7
25 -11 31 -20 6z"/>
<path d="M1488 1115 c-9 -15 3 -155 13 -155 10 0 10 90 0 135 -3 17 -9 26 -13
20z"/>
<path d="M1670 1690 c-8 -5 -12 -11 -10 -13 8 -8 70 5 70 14 0 12 -41 11 -60
-1z"/>
<path d="M1260 1631 c0 -11 59 -20 65 -10 3 4 -2 10 -11 13 -23 9 -54 7 -54
-3z"/>
<path d="M1670 1547 c0 -13 40 -37 61 -37 17 0 0 19 -32 35 -24 13 -29 13 -29
2z"/>
<path d="M1290 1440 c-35 -27 -17 -37 19 -10 17 12 31 23 31 26 0 10 -27 2
-50 -16z"/>
</g>
</svg>
