<?xml version="1.0" standalone="no"?>
<!DOCTYPE svg PUBLIC "-//W3C//DTD SVG 20010904//EN"
 "http://www.w3.org/TR/2001/REC-SVG-20010904/DTD/svg10.dtd">
<svg version="1.0" xmlns="http://www.w3.org/2000/svg"
 width="300.000000pt" height="240.000000pt" viewBox="0 0 300.000000 240.000000"
 preserveAspectRatio="xMidYMid meet">

<g transform="translate(0.000000,240.000000) scale(0.100000,-0.100000)"
fill="#ffffff" stroke="none">
<path d="M1110 1895 c-19 -13 -43 -24 -54 -24 -33 -1 -182 -78 -223 -115 -91
-82 -154 -276 -138 -426 6 -59 38 -161 67 -217 18 -36 -3 -73 -42 -73 -45 0
-61 -24 -104 -150 l-40 -116 73 -97 c41 -53 80 -97 89 -97 28 0 257 40 277 49
20 8 105 197 105 232 0 16 -153 211 -171 217 -5 2 -32 -1 -59 -7 -52 -11 -53
-11 -95 26 -25 23 -73 166 -80 238 -14 150 43 324 133 407 51 46 177 108 221
108 25 0 33 -6 44 -32 8 -18 24 -42 36 -52 13 -12 19 -26 16 -38 -5 -13 133
-172 558 -645 311 -346 576 -640 590 -655 36 -39 68 -36 117 11 34 32 41 45
38 70 -2 24 -123 163 -592 683 -324 359 -593 655 -598 656 -4 2 -8 -3 -8 -12
0 -9 -4 -16 -10 -16 -5 0 -10 4 -10 8 0 15 -77 92 -91 91 -8 0 -30 -11 -49
-24z m94 -37 c41 -47 44 -67 17 -92 -22 -20 -43 -11 -75 31 -16 21 -17 29 -7
45 6 10 9 23 6 28 -7 12 2 30 15 30 5 0 25 -19 44 -42z m101 -68 c8 -27 -27
-83 -61 -99 -23 -10 -30 -9 -42 3 -13 13 -9 20 34 64 27 27 52 50 56 51 4 1
10 -8 13 -19z m311 -340 c132 -146 247 -275 257 -287 17 -20 16 -22 -29 -72
-26 -28 -50 -51 -54 -49 -4 2 -132 142 -284 312 l-278 308 30 18 c16 10 39 32
52 50 l23 32 22 -24 c12 -12 130 -142 261 -288z m414 -466 c0 -10 -48 -83 -71
-108 -5 -6 -18 -1 -33 13 l-24 23 34 58 c34 59 41 80 26 80 -5 0 -19 -23 -32
-50 -29 -62 -43 -75 -59 -57 -8 11 -7 22 5 47 14 28 15 38 5 67 -11 30 -10 37
5 54 18 20 19 19 81 -48 34 -37 62 -73 63 -79z m-1007 -18 c42 -52 77 -98 77
-103 1 -4 -18 -56 -42 -114 l-42 -106 -136 -21 c-74 -12 -138 -22 -141 -22 -4
0 -37 41 -74 90 l-67 90 37 108 c21 59 43 112 49 119 6 6 27 13 46 15 l35 3 8
-53 c7 -44 5 -59 -13 -96 -19 -41 -20 -47 -6 -79 39 -95 176 -67 176 35 0 39
-12 57 -68 98 -14 10 -22 30 -25 62 l-4 47 41 10 c22 5 48 9 56 10 8 0 50 -42
93 -93z m844 78 c3 -8 0 -27 -6 -41 l-12 -26 -21 21 c-21 21 -21 22 -3 42 22
24 34 25 42 4z m212 -108 l22 -23 -42 -63 -41 -62 -29 28 c-15 15 -25 32 -21
38 27 42 77 106 82 106 4 0 16 -11 29 -24z m-1187 -53 c24 -22 24 -77 -2 -103
-24 -24 -67 -26 -98 -4 -38 26 -26 122 14 107 7 -2 21 0 31 6 25 14 34 14 55
-6z m1256 -22 l21 -29 -28 -43 c-15 -24 -35 -50 -45 -58 -15 -13 -20 -11 -42
11 l-25 25 25 39 c64 98 62 97 94 55z m84 -94 c7 -13 5 -26 -8 -45 -21 -34
-65 -82 -75 -82 -4 0 -17 13 -29 29 l-21 30 41 53 c22 29 40 57 40 62 0 12 39
-24 52 -47z m32 -64 c-4 -16 -9 -46 -9 -68 -2 -44 -12 -75 -26 -75 -5 0 -22
14 -38 32 l-29 32 24 18 c12 10 32 34 44 53 26 42 46 47 34 8z m37 -58 c-18
-24 -22 -25 -27 -11 -4 10 -1 29 5 43 11 24 13 25 28 10 14 -14 14 -18 -6 -42z
m152 -146 c-6 -23 -68 -79 -87 -79 -17 0 -42 22 -91 77 l-37 42 49 57 48 56
61 -67 c42 -47 60 -74 57 -86z"/>
<path d="M1250 1740 c0 -5 5 -10 11 -10 5 0 7 5 4 10 -3 6 -8 10 -11 10 -2 0
-4 -4 -4 -10z"/>
</g>
</svg>
