<?xml version="1.0" standalone="no"?>
<!DOCTYPE svg PUBLIC "-//W3C//DTD SVG 20010904//EN"
 "http://www.w3.org/TR/2001/REC-SVG-20010904/DTD/svg10.dtd">
<svg version="1.0" xmlns="http://www.w3.org/2000/svg"
 width="300.000000pt" height="240.000000pt" viewBox="0 0 300.000000 240.000000"
 preserveAspectRatio="xMidYMid meet">

<g transform="translate(0.000000,240.000000) scale(0.100000,-0.100000)"
fill="#ffffff" stroke="none">
<path d="M1605 2151 c-33 -10 -94 -33 -135 -51 -123 -52 -176 -69 -376 -115
-214 -49 -211 -49 -346 -122 -53 -29 -103 -53 -111 -53 -23 0 -27 -32 -27
-262 0 -232 11 -312 49 -352 11 -12 29 -43 40 -69 12 -27 40 -69 63 -93 24
-25 64 -67 90 -94 44 -46 46 -51 53 -124 6 -60 3 -94 -13 -163 -42 -177 -37
-200 55 -267 113 -83 159 -96 400 -119 29 -3 84 -20 122 -37 82 -38 92 -39
195 -11 86 23 151 60 206 116 19 19 54 45 77 56 30 15 54 37 77 73 51 79 138
144 206 155 47 8 67 50 79 167 6 49 21 138 35 199 22 93 26 136 26 281 l1 172
-32 73 c-31 70 -33 82 -38 229 -3 85 -9 160 -13 166 -5 7 -31 20 -59 30 -35
13 -65 34 -94 66 -29 33 -54 50 -85 58 -24 6 -66 25 -95 41 -60 34 -190 69
-249 68 -23 0 -68 -9 -101 -18z m201 -16 c33 -7 98 -32 144 -54 46 -23 92 -41
101 -41 27 0 36 -19 64 -150 50 -239 58 -266 101 -361 62 -136 63 -132 -48
-127 -51 3 -101 8 -110 12 -13 6 -18 4 -18 -7 0 -18 49 -27 154 -27 l79 0 -7
-47 c-4 -27 -11 -142 -15 -258 -5 -152 -12 -220 -23 -245 -14 -34 -44 -168
-40 -182 1 -4 -24 -15 -56 -23 -31 -9 -70 -21 -87 -26 -36 -11 -95 -67 -95
-88 0 -36 -51 -120 -102 -167 -62 -59 -116 -89 -185 -104 -26 -6 -57 -15 -69
-21 -17 -9 -40 -3 -120 29 -54 22 -153 60 -219 85 -74 28 -153 67 -205 101
-47 31 -102 59 -122 62 -35 6 -38 9 -38 41 0 19 9 71 21 116 16 64 20 98 15
155 -4 39 -3 72 1 72 31 0 98 -28 153 -64 142 -93 164 -106 184 -106 12 0 32
-7 44 -16 19 -13 22 -13 22 -1 0 14 -25 27 -80 43 -13 4 -36 15 -50 24 -122
83 -190 121 -237 131 -49 11 -60 20 -141 106 -48 52 -95 112 -104 135 -10 22
-27 53 -38 68 -34 48 -50 118 -50 226 0 82 3 104 16 115 9 8 41 45 70 84 30
38 78 102 109 142 30 40 64 77 75 83 11 6 18 15 15 21 -9 14 -54 -25 -105 -91
-120 -158 -161 -210 -171 -215 -6 -4 -9 32 -7 105 l3 112 130 69 c125 65 140
70 330 114 146 33 241 61 350 104 222 88 248 93 361 66z m416 -218 l56 -25 4
-154 c3 -146 5 -156 34 -223 32 -72 49 -135 36 -135 -4 0 -20 8 -37 19 -23 14
-41 44 -77 127 -25 60 -49 118 -52 129 -9 31 -66 308 -66 319 0 5 10 0 23 -11
12 -11 47 -32 79 -46z m109 -547 c17 -10 19 -22 19 -143 0 -96 -6 -155 -20
-217 -11 -47 -25 -116 -30 -155 -29 -199 -35 -215 -77 -215 -19 0 -23 4 -19
18 3 9 12 46 21 82 8 36 22 90 30 120 10 37 15 103 15 210 0 171 16 310 35
310 4 0 15 -5 26 -10z m-240 -800 c-23 -17 -57 -55 -76 -85 -31 -48 -75 -88
-75 -69 0 4 10 33 21 65 22 61 54 90 117 109 51 16 55 10 13 -20z m-1050 -153
c46 -31 116 -68 154 -83 75 -29 108 -49 65 -40 -14 3 -58 10 -98 15 -54 7 -88
18 -129 43 -64 38 -143 105 -143 120 0 23 72 -3 151 -55z"/>
<path d="M1780 1885 c0 -8 -7 -33 -16 -55 -14 -34 -20 -40 -46 -40 -26 0 -29
-2 -18 -15 7 -8 20 -15 29 -15 26 0 59 -28 63 -53 4 -26 22 -26 26 0 8 50 14
63 27 63 23 0 17 26 -9 38 -17 7 -25 22 -30 51 -6 39 -26 59 -26 26z m26 -80
c9 -9 13 -23 9 -35 -7 -23 -15 -25 -39 -7 -16 12 -17 16 -5 35 16 26 16 26 35
7z"/>
<path d="M1331 1754 c-142 -38 -220 -139 -257 -332 -27 -140 -12 -219 51 -266
35 -27 45 -25 45 10 0 27 44 64 76 64 31 0 30 14 -2 35 -113 74 -32 323 121
371 66 21 103 13 191 -44 64 -42 143 -135 176 -210 29 -63 48 -167 48 -259 0
-103 -42 -322 -75 -385 -26 -51 -21 -66 14 -42 46 33 90 125 133 279 16 61 21
107 21 190 -1 202 -61 353 -187 473 -128 122 -222 152 -355 116z m193 -24 c61
-26 120 -71 183 -142 59 -65 76 -95 108 -189 33 -95 48 -211 40 -293 -7 -76
-55 -248 -86 -308 -24 -47 -33 -46 -18 3 22 76 49 248 49 321 0 99 -24 221
-55 281 -35 69 -110 161 -154 190 -87 58 -143 79 -188 73 -132 -18 -226 -135
-227 -283 -1 -57 3 -77 20 -99 l21 -28 -32 -31 c-18 -16 -34 -37 -37 -45 -8
-22 -45 23 -58 69 -13 49 -13 86 4 173 27 140 77 230 153 275 92 54 199 67
277 33z"/>
<path d="M887 1414 c-4 -4 -7 -29 -7 -54 0 -30 -6 -52 -15 -60 -25 -21 -17
-31 21 -24 30 5 40 2 65 -22 29 -28 53 -28 29 1 -12 15 -10 59 5 98 6 14 1 17
-29 17 -20 0 -36 4 -36 8 0 15 -26 43 -33 36z m68 -93 c-8 -33 -7 -31 -33 -24
-14 3 -22 13 -22 27 0 30 6 34 36 28 22 -4 25 -8 19 -31z"/>
<path d="M1316 1248 c-6 -37 -10 -43 -33 -45 -45 -2 -78 -35 -81 -80 -3 -40
-4 -41 -47 -47 -28 -5 -42 -11 -39 -19 8 -20 133 -107 189 -134 39 -17 74 -24
127 -26 l73 -2 -3 50 c-7 112 -76 273 -137 320 -19 14 -36 25 -38 25 -3 0 -8
-19 -11 -42z m81 -51 c40 -59 73 -147 80 -212 l5 -50 -96 95 c-53 52 -96 88
-96 80 0 -8 42 -57 93 -108 l92 -94 -54 6 c-29 4 -74 15 -100 25 -47 18 -170
100 -171 114 0 4 17 7 39 7 l39 0 -5 43 c-4 32 -1 46 13 58 25 22 61 32 69 19
13 -20 25 -9 25 23 0 63 21 61 67 -6z"/>
<path d="M1588 1204 c3 -26 -1 -41 -17 -58 -27 -29 -18 -37 30 -30 25 4 44 2
54 -6 19 -16 34 -5 28 20 -3 11 2 31 11 45 16 25 16 25 -17 25 -21 0 -41 8
-52 20 -28 31 -42 25 -37 -16z m72 -46 c0 -14 -8 -18 -31 -18 -24 0 -30 3 -25
16 3 9 6 22 6 30 0 11 5 11 25 2 14 -6 25 -19 25 -30z"/>
<path d="M1475 639 c-4 -5 -1 -17 6 -25 9 -12 9 -23 0 -55 -7 -23 -10 -43 -8
-45 2 -3 17 0 32 6 22 8 33 7 51 -5 27 -18 40 -4 23 24 -10 15 -9 24 4 45 23
34 22 36 -14 29 -22 -4 -38 0 -59 16 -18 13 -31 17 -35 10z m75 -49 c17 0 -3
-38 -23 -44 -27 -7 -29 -4 -21 28 4 18 11 25 21 22 8 -3 18 -6 23 -6z"/>
</g>
</svg>
