<?xml version="1.0" standalone="no"?>
<!DOCTYPE svg PUBLIC "-//W3C//DTD SVG 20010904//EN"
 "http://www.w3.org/TR/2001/REC-SVG-20010904/DTD/svg10.dtd">
<svg version="1.0" xmlns="http://www.w3.org/2000/svg"
 width="373.000000pt" height="473.000000pt" viewBox="0 0 373.000000 473.000000"
 preserveAspectRatio="xMidYMid meet">

<g transform="translate(0.000000,473.000000) scale(0.100000,-0.100000)"
fill="#FFFFFF" stroke="none">
<path d="M1440 4654 c-50 -22 -88 -61 -120 -124 -62 -123 -74 -222 -41 -331
22 -69 20 -76 -30 -140 -38 -49 -93 -160 -115 -234 -21 -71 -24 -248 -6 -310
10 -33 10 -42 -3 -51 -17 -13 -10 -25 10 -18 8 3 18 -3 24 -14 8 -16 7 -21 -4
-26 -26 -9 -17 -27 10 -20 28 7 35 -12 13 -35 -11 -10 -9 -12 9 -9 17 2 37
-13 83 -65 33 -37 60 -73 60 -80 0 -7 -25 -41 -56 -77 -51 -60 -216 -301 -304
-445 -20 -33 -67 -120 -105 -193 -57 -107 -68 -136 -59 -150 9 -13 6 -25 -10
-50 -12 -19 -25 -33 -30 -33 -26 0 -113 333 -102 389 10 52 10 146 -1 149 -10
4 -63 -143 -78 -214 -7 -35 4 -81 35 -148 10 -22 37 -96 59 -165 41 -125 41
-125 24 -170 -20 -55 -31 -230 -14 -230 6 0 11 -11 11 -25 0 -14 4 -25 9 -25
9 0 21 119 13 130 -2 2 -7 -2 -12 -10 -16 -26 -12 71 6 131 19 63 98 224 115
235 8 5 34 -15 70 -54 91 -97 102 -157 53 -285 -7 -20 -14 -51 -14 -68 0 -26
-2 -29 -19 -19 -28 14 -29 14 -51 -30 -24 -46 -26 -87 -6 -125 8 -15 19 -66
26 -114 22 -162 39 -233 64 -270 50 -72 153 -484 125 -501 -30 -19 -244 -42
-356 -38 -103 3 -127 8 -188 34 -58 24 -83 29 -150 29 -72 -1 -87 -5 -155 -38
-84 -42 -187 -127 -177 -144 5 -8 26 7 58 38 31 32 78 64 127 87 67 32 86 37
152 37 61 0 88 -6 145 -30 62 -26 83 -30 192 -33 108 -3 257 12 350 34 19 5
23 -1 37 -65 29 -129 68 -235 119 -331 57 -105 163 -253 177 -245 5 3 -20 43
-55 90 -76 103 -146 235 -179 341 -31 96 -79 302 -96 404 -7 41 -19 93 -27
115 -8 22 -23 73 -34 113 -11 40 -31 90 -45 112 -30 45 -38 77 -60 233 -9 61
-18 128 -21 147 -3 19 -11 38 -17 42 -13 9 13 94 28 91 14 -3 35 -89 36 -143
0 -25 9 -101 19 -170 16 -107 24 -134 55 -185 23 -40 40 -86 50 -137 8 -42 23
-94 34 -115 11 -21 22 -69 26 -108 17 -176 64 -374 119 -497 14 -31 56 -99 94
-150 81 -108 123 -170 123 -179 0 -4 -21 -10 -47 -13 -53 -8 -142 -35 -243
-73 -80 -31 -82 -32 -74 -44 3 -5 11 -6 17 -2 14 9 52 24 172 66 81 28 101 31
200 30 61 0 145 -6 188 -12 101 -14 334 -14 389 0 34 9 60 8 121 -4 42 -8 80
-11 82 -7 12 20 -163 46 -205 31 -40 -14 -277 -15 -386 -1 -43 5 -105 12 -137
15 -32 4 -56 9 -54 12 5 5 -75 122 -151 222 -93 123 -164 353 -188 606 -3 39
-17 95 -30 125 -13 30 -28 83 -34 117 -7 39 -26 89 -49 130 -31 55 -41 86 -51
158 -19 142 -29 274 -23 311 l6 34 35 -44 c27 -33 38 -41 47 -32 7 6 19 64 29
128 19 137 45 227 92 320 44 87 54 92 54 27 0 -28 7 -99 16 -158 l16 -106 -28
-20 c-126 -94 -159 -181 -114 -308 11 -31 20 -65 20 -76 0 -11 12 -29 27 -41
26 -20 43 -21 86 -4 13 4 16 -4 19 -38 3 -38 6 -43 28 -44 61 -3 60 -2 60 -49
0 -51 -16 -89 -50 -120 -46 -41 -63 -93 -57 -169 3 -38 11 -74 16 -79 18 -18
21 -3 10 38 -16 55 -6 131 20 163 77 96 81 104 81 157 0 79 22 89 148 70 48
-7 52 -10 45 -29 -4 -12 -7 -32 -6 -46 2 -54 -9 -92 -38 -125 -29 -33 -30 -36
-18 -70 10 -27 11 -43 2 -65 -9 -24 -9 -30 2 -30 25 0 36 85 13 108 -9 9 -7
17 10 35 31 33 54 94 50 136 l-3 36 45 -1 c25 -1 68 -5 96 -9 49 -7 51 -9 63
-50 15 -51 12 -65 -40 -167 -38 -75 -46 -109 -33 -142 11 -29 25 -17 19 17 -5
25 3 52 36 122 44 92 47 113 35 210 -10 74 -3 79 107 82 l95 1 6 -61 c19 -170
20 -158 -15 -210 -31 -47 -34 -80 -4 -41 42 52 57 97 53 151 -3 34 -1 53 6 54
6 1 38 0 71 0 116 -4 411 20 505 40 77 17 129 20 270 20 97 -1 200 3 230 9 77
14 150 52 209 109 44 42 51 54 51 87 0 58 -37 165 -68 197 -49 52 -150 127
-189 141 -104 37 -174 79 -225 135 -29 32 -69 66 -88 76 -44 22 -81 55 -74 66
8 13 124 10 254 -6 126 -15 314 -72 393 -118 67 -39 121 -107 156 -195 42
-107 44 -119 31 -208 -14 -106 -55 -191 -124 -258 -67 -66 -182 -139 -262
-166 -71 -25 -209 -50 -272 -50 -67 0 -121 -20 -164 -61 -32 -30 -38 -42 -38
-77 0 -29 7 -49 26 -71 34 -41 48 -48 117 -56 66 -8 76 5 23 30 -48 23 -78 54
-74 77 6 39 47 57 163 72 132 18 296 64 385 108 114 57 260 225 311 356 32 84
32 243 0 327 -53 133 -130 215 -271 289 -148 77 -367 127 -573 131 -64 1 -112
6 -119 13 -7 7 -11 48 -11 99 0 80 2 93 27 130 l28 41 -16 96 c-8 52 -20 105
-27 117 -6 12 -15 72 -20 133 -5 64 -17 134 -28 167 -11 30 -23 80 -26 110
-16 127 -65 231 -127 269 -21 13 -51 20 -81 20 -44 0 -47 2 -37 19 13 26 2 76
-21 97 -11 9 -19 23 -19 31 0 7 -4 13 -10 13 -17 0 -11 24 20 82 96 178 164
546 117 634 -18 34 -70 64 -112 64 -73 0 -177 -98 -240 -226 -21 -43 -40 -81
-41 -83 -2 -2 -22 11 -44 29 -55 43 -209 110 -287 123 -58 10 -63 13 -68 41
-13 67 -79 218 -103 237 -30 23 -83 24 -132 3z m123 -26 c24 -24 81 -159 91
-215 5 -29 3 -32 -27 -38 -46 -9 -87 -26 -87 -36 0 -12 8 -11 55 6 86 31 202
8 345 -66 85 -45 112 -65 130 -98 10 -19 14 -21 21 -10 5 8 9 24 9 37 0 30 53
135 99 195 44 59 114 107 155 107 47 0 93 -33 104 -74 27 -96 -39 -420 -118
-583 -22 -45 -40 -88 -40 -97 0 -29 -101 -164 -177 -237 -154 -147 -261 -214
-434 -272 -75 -26 -179 -47 -229 -47 -17 0 -29 8 -35 23 -8 18 -18 22 -57 23
-40 1 -50 6 -80 39 -59 68 -63 76 -39 82 32 8 25 25 -8 18 -37 -8 -51 12 -17
25 36 13 32 22 -6 18 -26 -2 -33 1 -36 16 -4 17 1 18 48 13 45 -5 50 -4 40 8
-8 9 -31 15 -60 15 -47 0 -49 1 -61 38 -7 20 -13 82 -13 137 0 145 43 277 127
387 60 78 60 80 36 161 -29 98 -23 176 22 281 19 44 47 93 64 109 58 59 139
74 178 35z m800 -975 c4 -21 -5 -46 -39 -105 -24 -42 -44 -79 -44 -82 0 -3
-14 -28 -30 -55 -17 -27 -49 -92 -71 -143 -43 -99 -54 -115 -82 -120 -14 -2
-26 15 -52 75 -19 43 -35 93 -35 112 0 19 -4 35 -10 35 -5 0 -10 -13 -10 -29
0 -15 -11 -43 -25 -62 -34 -47 -75 -130 -75 -154 0 -11 -5 -27 -10 -35 -8 -12
-18 -6 -54 35 -43 49 -83 112 -75 118 2 1 38 18 79 37 148 69 357 251 445 387
l39 61 22 -23 c12 -13 24 -36 27 -52z m136 -109 c45 -38 78 -100 92 -174 6
-36 20 -99 31 -140 34 -134 37 -154 38 -218 0 -34 8 -88 19 -120 10 -31 24
-90 30 -131 11 -71 11 -75 -14 -116 -30 -53 -97 -111 -167 -147 -206 -104
-368 -173 -502 -214 -44 -13 -88 -31 -98 -40 -17 -16 -19 -15 -33 19 -9 23
-15 69 -15 124 0 72 -5 97 -25 141 -14 30 -19 52 -13 52 6 0 26 11 44 25 47
36 77 46 184 60 131 18 231 44 258 69 22 19 23 27 19 111 -2 49 -9 109 -16
133 -6 23 -12 60 -13 83 -1 22 -5 42 -9 44 -14 9 -15 -32 -2 -100 8 -38 17
-107 20 -153 6 -96 -5 -117 -66 -128 -20 -3 -55 -12 -79 -20 -23 -8 -58 -14
-78 -14 -28 0 -36 5 -44 25 -42 111 -152 141 -305 84 -60 -22 -92 -59 -115
-131 -14 -46 -40 -50 -75 -12 -17 19 -25 38 -25 64 0 66 -47 76 -79 17 -7 -14
-31 -33 -53 -43 -48 -22 -121 -100 -155 -168 -14 -27 -29 -79 -34 -115 -5 -36
-16 -72 -23 -80 -35 -39 -107 -210 -122 -291 -9 -47 -18 -92 -21 -100 -3 -8
-18 37 -35 100 -35 138 -59 181 -139 253 l-61 54 58 114 c74 145 116 216 246
414 128 194 214 298 242 291 11 -3 27 -1 37 5 11 5 51 11 89 14 39 2 80 7 90
10 17 5 20 2 20 -29 0 -25 7 -40 26 -55 35 -27 42 -26 55 7 10 27 47 72 59 72
4 0 30 -29 58 -65 51 -62 52 -65 27 -65 -14 0 -25 -4 -25 -10 0 -5 12 -10 26
-10 26 0 26 -1 10 -25 -21 -32 -1 -34 24 -2 l18 22 7 -27 c9 -37 0 -58 -25
-58 -11 0 -20 -5 -20 -11 0 -7 10 -9 25 -7 19 4 25 1 25 -13 0 -30 18 -31 22
-2 2 23 9 29 33 31 49 6 54 22 7 22 -30 0 -42 4 -42 14 0 8 -3 22 -7 31 -5 15
-1 16 28 11 32 -7 33 -6 15 9 -11 8 -26 15 -33 15 -20 0 -16 17 8 33 19 14 20
16 3 25 -16 9 -16 15 -6 49 6 21 26 58 43 82 l32 43 30 -63 c44 -97 42 -94 73
-91 41 5 47 13 90 110 47 106 161 314 177 324 7 4 33 8 59 8 36 0 54 -6 77
-26z m-795 -357 c-16 -19 -34 -42 -40 -53 -10 -16 -13 -17 -28 -5 -11 9 -16
25 -14 44 3 25 10 32 48 47 58 22 71 10 34 -33z m260 -391 c33 -14 76 -70 76
-100 0 -10 -8 -16 -22 -16 -37 0 -90 -22 -149 -62 -31 -20 -91 -47 -133 -60
-67 -19 -78 -20 -87 -8 -19 30 22 170 59 203 23 21 139 56 185 56 21 1 53 -5
71 -13z m-444 -66 c0 -13 -5 -17 -20 -13 -23 6 -25 14 -8 31 14 14 28 6 28
-18z m-874 -78 c-4 -29 0 -80 9 -126 14 -78 79 -282 95 -301 5 -6 3 -20 -4
-34 -13 -24 -13 -23 -29 20 -9 24 -28 80 -43 124 -14 44 -35 100 -47 125 -12
25 -21 63 -21 85 0 41 30 155 41 155 3 0 3 -22 -1 -48z m879 22 c14 -15 25
-30 25 -35 0 -4 15 -13 34 -20 28 -10 35 -19 40 -48 5 -30 2 -39 -17 -51 -43
-29 -92 -78 -84 -86 4 -4 22 6 40 23 41 39 76 56 158 76 36 9 73 19 82 23 13
5 22 -5 37 -37 26 -59 25 -63 -14 -82 -19 -9 -45 -30 -58 -47 -12 -17 -44 -44
-71 -61 -60 -37 -72 -66 -56 -132 8 -33 9 -81 5 -141 -22 -277 -23 -340 -7
-426 18 -94 8 -115 -60 -123 -28 -4 -72 -2 -97 4 -34 7 -57 6 -96 -5 -28 -8
-62 -13 -76 -12 l-25 3 3 119 c4 129 -10 337 -34 503 -21 144 -21 315 0 364
41 99 122 186 194 207 43 13 52 12 77 -16z m1142 -192 l2 -87 -82 -32 c-115
-44 -210 -72 -275 -80 -47 -5 -57 -3 -68 12 -8 11 -14 24 -14 30 0 6 42 30 93
54 50 24 128 61 172 82 45 21 101 54 125 73 25 20 45 36 45 36 0 0 1 -39 2
-88z m-807 -119 l-1 -68 -23 55 c-20 49 -21 56 -7 68 26 22 31 13 31 -55z
m-40 -21 c23 -69 52 -132 64 -133 6 -1 18 -2 26 -3 8 0 24 9 35 20 11 12 39
26 61 32 l42 9 7 -141 c18 -378 21 -422 38 -465 35 -90 15 -118 -101 -136 -46
-8 -99 -11 -118 -8 -19 3 -53 0 -74 -7 -47 -16 -65 -5 -76 43 -9 42 -48 120
-69 137 -13 11 -15 23 -11 55 10 65 18 228 20 389 l1 149 35 22 c19 13 48 37
64 54 16 16 33 28 37 26 4 -3 13 -22 19 -43z m870 23 c0 -29 -37 -51 -155 -92
-151 -52 -253 -72 -266 -52 -16 26 -9 39 20 39 46 0 209 45 301 83 100 41 100
41 100 22z m364 -15 c151 -26 205 -44 316 -101 166 -84 246 -177 285 -329 21
-79 15 -182 -15 -267 -45 -129 -190 -290 -311 -347 -90 -43 -217 -80 -324 -95
-153 -22 -183 -31 -205 -58 -33 -42 -24 -83 25 -112 17 -11 15 -12 -15 -7 -73
12 -103 97 -55 155 31 36 94 57 195 65 168 12 285 51 412 137 140 95 210 203
229 350 11 91 8 116 -29 209 -45 113 -107 187 -190 229 -20 10 -95 36 -167 59
-140 44 -325 69 -444 60 -51 -4 -61 -2 -61 11 0 39 13 60 39 65 45 8 199 -4
315 -24z m-825 -79 c11 -27 21 -57 21 -65 0 -33 134 -9 305 54 61 22 113 40
118 40 15 0 6 -81 -15 -137 -25 -69 -114 -163 -193 -205 -53 -28 -312 -108
-350 -108 -21 0 -23 6 -30 88 -5 48 -9 143 -9 212 l-1 125 55 22 c30 12 60 23
66 23 6 0 21 -22 33 -49z m502 -37 c7 -8 34 -26 59 -39 26 -13 68 -49 95 -81
42 -48 65 -64 145 -101 150 -69 153 -71 223 -134 55 -50 68 -69 86 -121 12
-34 21 -79 21 -99 0 -32 -7 -43 -51 -82 -105 -92 -167 -108 -419 -107 -120 1
-200 -4 -253 -15 -44 -8 -82 -17 -85 -19 -16 -9 -425 -28 -476 -22 l-56 7 0
44 c0 41 1 43 35 49 37 7 75 49 75 83 0 11 -9 46 -20 78 -11 32 -20 80 -20
107 0 43 2 48 23 48 41 0 270 70 346 105 119 57 221 177 238 282 6 37 14 41
34 17z m-1712 -281 c7 -38 15 -80 17 -95 9 -49 -26 -27 -58 36 -13 26 -13 34
1 77 9 27 19 49 22 49 3 0 11 -30 18 -67z m247 -193 l7 -170 -37 -15 c-32 -14
-41 -14 -58 -3 -23 15 -67 151 -68 206 0 64 42 134 105 173 29 18 30 18 37 -2
4 -11 11 -96 14 -189z m435 -198 c15 -44 30 -67 46 -75 15 -6 23 -19 23 -34 0
-25 0 -25 -90 -2 -19 5 -47 9 -62 9 -38 0 -35 24 4 35 38 12 52 48 43 110 -8
54 7 36 36 -43z"/>
<path d="M2246 4378 c-61 -61 -120 -185 -114 -241 4 -35 4 -35 38 71 39 122
109 202 176 202 32 0 44 -13 44 -51 0 -10 5 -19 10 -19 17 0 11 56 -8 73 -10
10 -35 17 -55 17 -32 0 -46 -8 -91 -52z"/>
<path d="M2140 3985 c0 -8 6 -15 13 -15 22 0 57 -44 57 -73 0 -24 16 -45 26
-34 3 3 0 23 -6 45 -14 55 -90 119 -90 77z"/>
<path d="M1316 3801 c-10 -11 -21 -36 -26 -55 -7 -30 -5 -38 10 -46 50 -27 90
-2 90 55 0 60 -40 84 -74 46z"/>
<path d="M1703 3728 c-15 -20 -30 -71 -25 -90 9 -41 102 2 102 47 0 46 -52 74
-77 43z"/>
<path d="M1675 3436 c-50 -23 -83 -51 -72 -62 3 -4 20 5 38 20 17 15 51 32 75
38 24 7 44 16 44 20 0 14 -34 8 -85 -16z"/>
<path d="M1722 3395 c-45 -14 -72 -31 -72 -46 0 -5 18 0 39 11 22 10 58 22 80
26 23 4 44 11 47 15 8 13 -44 10 -94 -6z"/>
<path d="M1713 3339 c-18 -5 -33 -14 -33 -20 0 -7 9 -9 23 -4 12 3 43 9 70 12
26 3 47 9 47 14 0 11 -65 10 -107 -2z"/>
<path d="M2013 3091 c14 -18 37 -54 49 -81 13 -28 27 -50 31 -50 25 0 -60 153
-88 159 -16 3 -15 -1 8 -28z"/>
<path d="M1722 2988 c2 -46 10 -94 17 -106 18 -34 24 -20 12 25 -6 21 -11 66
-11 101 0 39 -4 62 -11 62 -8 0 -10 -25 -7 -82z"/>
<path d="M1556 2424 c-20 -19 -33 -40 -30 -46 4 -6 15 0 28 15 11 15 32 35 46
46 18 15 21 20 9 21 -9 0 -32 -16 -53 -36z"/>
<path d="M1580 2380 c-17 -18 -30 -42 -29 -54 0 -20 0 -21 12 -1 7 10 24 32
39 47 14 15 22 30 17 34 -5 3 -23 -9 -39 -26z"/>
<path d="M1623 2337 c-28 -32 -46 -78 -35 -89 6 -6 14 3 21 23 6 18 21 43 32
55 11 12 16 24 11 28 -5 3 -18 -5 -29 -17z"/>
<path d="M2730 1950 c0 -5 9 -10 21 -10 34 0 56 -18 73 -59 20 -51 45 -58 128
-35 34 9 84 21 111 27 26 6 47 15 47 20 0 12 -64 2 -122 -18 -24 -8 -62 -17
-85 -21 -42 -6 -43 -6 -58 29 -8 19 -26 45 -41 56 -28 22 -74 29 -74 11z"/>
<path d="M2412 1655 c-18 -8 -31 -19 -27 -25 4 -6 16 -5 35 5 33 17 60 20 60
6 0 -19 40 -21 107 -6 37 9 78 13 91 10 12 -3 22 -1 22 5 0 19 -51 22 -115 6
-61 -15 -95 -14 -95 5 0 13 -41 10 -78 -6z"/>
<path d="M3028 1653 c-16 -2 -28 -9 -28 -15 0 -12 100 -1 115 13 9 9 -34 10
-87 2z"/>
<path d="M1150 1700 c0 -5 11 -10 24 -10 13 0 29 -7 36 -15 7 -8 17 -12 23 -8
15 9 -31 43 -59 43 -13 0 -24 -4 -24 -10z"/>
<path d="M750 1881 c-11 -22 -13 -64 -4 -98 11 -42 19 -23 20 47 0 39 -1 70
-3 70 -1 0 -7 -9 -13 -19z"/>
<path d="M800 1798 c0 -39 14 -79 23 -68 7 10 -5 110 -14 110 -5 0 -9 -19 -9
-42z"/>
<path d="M1906 1184 c-9 -23 -7 -62 3 -68 5 -3 11 12 13 35 4 42 -5 61 -16 33z"/>
<path d="M1867 1183 c-3 -5 -8 -29 -12 -55 -10 -68 9 -61 22 7 8 48 4 70 -10
48z"/>
<path d="M1806 1138 c-9 -35 -7 -96 3 -102 5 -4 11 20 13 51 4 61 -5 91 -16
51z"/>
<path d="M1303 1135 c-7 -21 3 -95 15 -107 7 -7 10 12 9 56 -2 63 -11 83 -24
51z"/>
<path d="M1447 1143 c-14 -14 -3 -103 13 -103 7 0 5 98 -2 106 -3 2 -8 1 -11
-3z"/>
<path d="M1374 1093 c6 -47 12 -61 21 -51 9 9 -7 98 -18 98 -6 0 -7 -18 -3
-47z"/>
<path d="M1757 1123 c-10 -10 -8 -103 2 -103 5 0 11 25 13 55 3 52 0 63 -15
48z"/>
<path d="M1228 843 c-24 -3 -38 -9 -38 -18 0 -11 8 -13 33 -7 49 11 180 8 297
-6 109 -13 168 -28 359 -94 136 -46 266 -62 446 -56 89 4 133 10 170 25 28 11
93 26 145 32 87 12 104 11 200 -9 95 -20 125 -22 320 -17 214 5 260 10 260 29
0 6 -9 7 -22 3 -13 -4 -120 -9 -238 -12 -195 -5 -225 -3 -323 17 -97 20 -115
21 -195 10 -48 -6 -122 -23 -165 -36 -63 -19 -100 -24 -190 -24 -178 0 -279
15 -407 58 -186 64 -250 81 -345 92 -107 13 -255 20 -307 13z"/>
<path d="M2959 407 c-28 -4 -84 -19 -123 -33 -122 -44 -168 -54 -254 -54 -62
0 -92 5 -120 19 -57 29 -192 52 -192 32 0 -5 26 -12 58 -16 31 -4 86 -18 121
-32 56 -22 74 -25 160 -21 66 3 115 12 156 27 135 50 188 62 283 62 50 -1 92
3 92 8 0 13 -117 18 -181 8z"/>
<path d="M647 310 c-26 -16 -47 -37 -47 -47 0 -14 3 -14 23 4 31 29 82 53 110
53 14 0 51 -14 83 -31 54 -28 65 -31 125 -25 68 6 127 22 144 39 7 6 0 7 -20
3 -16 -4 -64 -12 -105 -18 -74 -11 -75 -11 -134 21 -75 40 -118 40 -179 1z"/>
</g>
</svg>
