<?xml version="1.0" standalone="no"?>
<!DOCTYPE svg PUBLIC "-//W3C//DTD SVG 20010904//EN"
 "http://www.w3.org/TR/2001/REC-SVG-20010904/DTD/svg10.dtd">
<svg version="1.0" xmlns="http://www.w3.org/2000/svg"
 width="360.000000pt" height="360.000000pt" viewBox="0 0 360.000000 360.000000"
 preserveAspectRatio="xMidYMid meet">

<g transform="translate(0.000000,360.000000) scale(0.100000,-0.100000)"
fill="#ffffff" stroke="none">
<path d="M280 3305 c0 -8 4 -15 10 -15 5 0 373 -384 817 -852 2017 -2130 1959
-2070 2040 -2112 107 -54 179 25 122 136 -28 55 -256 281 -794 789 -1242 1172
-2165 2050 -2165 2059 0 6 -7 10 -15 10 -8 0 -15 -7 -15 -15z m1388 -1318
c733 -695 812 -772 812 -800 l0 -31 -20 22 c-12 12 -32 22 -46 22 -19 0 -26
-6 -31 -30 -3 -16 -9 -30 -13 -30 -6 0 -1417 1485 -1590 1674 l-65 71 70 -64
c39 -36 436 -411 883 -834z m886 -836 c16 -18 17 -25 6 -71 -7 -28 -20 -60
-30 -73 l-19 -22 -31 31 -31 31 20 34 c11 19 23 51 26 71 8 41 21 41 59 -1z
m-100 4 c18 -28 14 -56 -9 -75 -23 -19 -52 22 -47 66 5 42 32 46 56 9z m191
-125 c-10 -39 -47 -120 -54 -120 -4 0 -20 13 -36 30 -26 27 -27 31 -13 47 9
10 21 36 27 58 7 22 15 46 17 54 3 11 12 7 35 -15 23 -22 29 -34 24 -54z m67
-33 l38 -32 -24 -68 c-33 -97 -39 -100 -86 -51 l-38 41 29 58 c16 32 29 64 29
71 0 21 11 17 52 -19z m138 -147 c0 -20 -59 -140 -68 -140 -5 0 -25 17 -46 39
l-38 38 25 49 c13 27 28 64 32 83 l7 33 44 -43 c24 -24 44 -50 44 -59z m60
-53 c0 -26 -28 -77 -43 -77 -24 0 -36 21 -26 46 5 13 13 35 19 49 9 22 12 24
30 13 11 -7 20 -21 20 -31z m343 -349 c22 -47 21 -74 -3 -98 -49 -49 -101 -18
-300 177 -153 150 -164 163 -149 178 14 14 21 15 38 5 32 -17 56 -4 77 41 l18
41 151 -154 c83 -85 158 -170 168 -190z"/>
<path d="M2921 676 c-20 -24 12 -72 115 -173 77 -76 100 -93 124 -93 26 0 30
4 30 28 0 22 -18 48 -75 109 -65 71 -154 143 -175 143 -4 0 -13 -6 -19 -14z
m80 -48 c83 -60 183 -177 166 -195 -18 -17 -135 83 -195 166 -51 70 -41 80 29
29z"/>
</g>
</svg>
