<?xml version="1.0" standalone="no"?>
<!DOCTYPE svg PUBLIC "-//W3C//DTD SVG 20010904//EN"
 "http://www.w3.org/TR/2001/REC-SVG-20010904/DTD/svg10.dtd">
<svg version="1.0" xmlns="http://www.w3.org/2000/svg"
 width="300.000000pt" height="240.000000pt" viewBox="0 0 300.000000 240.000000"
 preserveAspectRatio="xMidYMid meet">

<g transform="translate(0.000000,240.000000) scale(0.100000,-0.100000)"
fill="#ffffff" stroke="none">
<path d="M510 2222 c0 -4 21 -28 46 -52 26 -25 406 -425 846 -890 806 -851
948 -997 1003 -1031 80 -50 136 6 86 86 -34 55 -190 207 -1036 1008 -462 437
-860 815 -885 841 -42 44 -60 55 -60 38z m890 -847 c608 -574 584 -550 575
-565 -5 -8 -10 -9 -18 -1 -18 18 -44 12 -51 -11 -5 -22 -7 -21 -44 17 -52 54
-942 996 -1001 1060 l-46 50 50 -46 c28 -25 268 -252 535 -504z m553 -583 c15
-16 15 -21 3 -37 -19 -26 -45 -5 -38 30 5 30 13 31 35 7z m73 -50 c-3 -19 -10
-40 -17 -48 -10 -13 -15 -12 -35 7 -20 19 -21 23 -9 47 8 15 17 35 20 46 5 18
6 18 26 0 16 -14 20 -27 15 -52z m42 6 c16 -16 15 -53 -3 -88 -18 -34 -27 -37
-45 -15 -11 13 -10 22 3 51 10 19 17 41 17 49 0 18 12 19 28 3z m71 -123 c-17
-63 -28 -70 -59 -40 l-27 26 25 50 25 50 23 -23 c22 -21 23 -27 13 -63z m63
-80 c-12 -25 -26 -45 -30 -45 -5 0 -18 10 -30 23 l-22 23 22 52 22 52 30 -30
30 -30 -22 -45z m56 9 c4 -29 -23 -62 -39 -47 -9 9 -9 19 1 43 14 33 33 35 38
4z m130 -119 c101 -105 124 -143 105 -174 -21 -33 -58 -24 -119 27 -89 75
-197 189 -190 201 4 6 20 8 36 4 25 -4 31 -1 41 21 7 14 15 26 19 26 3 0 52
-47 108 -105z"/>
<path d="M2265 470 c-22 -35 150 -199 178 -171 15 15 -34 83 -101 138 -55 45
-67 50 -77 33z m101 -73 c62 -60 78 -87 52 -87 -15 0 -138 125 -138 139 0 23
24 9 86 -52z"/>
</g>
</svg>
