<?xml version="1.0" standalone="no"?>
<!DOCTYPE svg PUBLIC "-//W3C//DTD SVG 20010904//EN"
 "http://www.w3.org/TR/2001/REC-SVG-20010904/DTD/svg10.dtd">
<svg version="1.0" xmlns="http://www.w3.org/2000/svg"
 width="400.000000pt" height="320.000000pt" viewBox="0 0 400.000000 320.000000"
 preserveAspectRatio="xMidYMid meet">

<g transform="translate(0.000000,320.000000) scale(0.100000,-0.100000)"
fill="#ffffff" stroke="none">
<path d="M2634 2477 c-120 -77 -188 -133 -301 -248 -122 -125 -185 -201 -270
-332 -83 -128 -116 -191 -144 -274 -32 -98 -51 -124 -101 -141 -51 -17 -113
-58 -184 -123 -72 -65 -88 -73 -126 -60 -45 16 -87 13 -133 -8 -113 -51 -165
-182 -115 -285 28 -60 70 -89 134 -94 88 -7 166 40 206 125 19 40 22 59 17
118 l-5 71 85 77 c47 43 104 87 127 99 41 20 44 20 69 3 15 -9 27 -26 27 -36
0 -30 -38 -136 -63 -177 -13 -20 -31 -55 -40 -77 -17 -37 -21 -40 -61 -42 -76
-3 -152 -55 -190 -130 -25 -49 -21 -142 6 -183 33 -48 70 -72 121 -77 168 -19
296 170 211 314 l-25 43 44 98 c50 108 67 163 69 219 1 45 29 79 103 128 158
104 393 400 523 660 46 93 132 338 132 378 0 18 -41 2 -116 -46z m-241 -394
c-159 -213 -313 -420 -343 -460 -56 -75 -58 -76 -117 -58 -28 9 46 173 149
329 100 151 282 355 410 458 60 49 181 129 186 123 3 -2 -126 -179 -285 -392z
m307 325 c-65 -232 -224 -506 -423 -730 -83 -92 -140 -145 -201 -184 -28 -17
-29 -17 -42 1 -8 10 -14 27 -14 37 0 18 678 938 691 938 4 0 -2 -28 -11 -62z
m-705 -893 c30 -29 32 -54 5 -83 -29 -31 -73 -29 -99 4 -25 32 -26 52 -5 82
21 30 68 29 99 -3z m-128 -62 c2 -6 -6 -15 -19 -19 -38 -12 -111 -65 -186
-136 l-71 -66 6 -74 c5 -62 2 -80 -15 -113 -39 -78 -97 -115 -176 -115 -171 0
-198 255 -36 338 45 23 93 25 160 7 21 -5 37 4 98 58 121 106 226 159 239 120z
m106 -77 c10 -25 -22 -135 -69 -238 -37 -80 -44 -105 -36 -117 51 -72 59 -139
24 -207 -89 -172 -328 -141 -325 43 1 102 84 190 187 198 25 2 50 6 54 9 19
11 113 218 124 270 10 54 29 73 41 42z"/>
<path d="M1922 1498 c-20 -20 -14 -47 12 -54 34 -8 46 2 46 37 0 24 -4 29 -23
29 -13 0 -28 -5 -35 -12z"/>
<path d="M1410 1254 c-68 -29 -110 -93 -110 -165 0 -118 115 -166 207 -86 43
38 63 81 63 137 0 55 -22 94 -64 114 -41 19 -51 19 -96 0z m118 -40 c16 -18
22 -38 22 -71 0 -86 -51 -150 -130 -160 -34 -5 -43 -1 -70 25 -25 25 -30 38
-30 77 0 126 136 211 208 129z"/>
<path d="M1721 1020 c-100 -42 -150 -153 -104 -231 52 -88 206 -52 255 59 26
57 19 106 -20 145 -32 31 -91 44 -131 27z m98 -25 c63 -32 65 -120 3 -187 -81
-86 -202 -60 -202 45 0 106 113 187 199 142z"/>
</g>
</svg>
