<?xml version="1.0" standalone="no"?>
<!DOCTYPE svg PUBLIC "-//W3C//DTD SVG 20010904//EN"
 "http://www.w3.org/TR/2001/REC-SVG-20010904/DTD/svg10.dtd">
<svg version="1.0" xmlns="http://www.w3.org/2000/svg"
 width="300.000000pt" height="240.000000pt" viewBox="0 0 300.000000 240.000000"
 preserveAspectRatio="xMidYMid meet">

<g transform="translate(0.000000,240.000000) scale(0.100000,-0.100000)"
fill="#ffffff" stroke="none">
<path d="M1386 1827 c-32 -42 -46 -80 -46 -126 l0 -37 -59 -12 c-75 -16 -117
-57 -106 -106 18 -89 17 -104 -10 -153 -14 -27 -40 -65 -56 -84 -45 -51 -72
-117 -64 -159 12 -67 8 -86 -44 -193 -39 -80 -54 -123 -58 -167 -5 -54 -3 -64
27 -114 24 -39 44 -59 73 -72 22 -10 55 -31 75 -46 46 -37 121 -58 202 -56 44
1 88 -6 135 -21 39 -13 108 -25 155 -28 81 -5 92 -3 230 42 137 45 148 51 195
99 64 66 87 128 76 206 -4 31 -11 61 -15 68 -4 7 -3 18 2 25 35 45 39 348 7
567 -7 52 -19 136 -26 185 -11 87 -33 155 -49 155 -4 0 -18 11 -31 25 -27 28
-53 30 -127 11 -103 -28 -179 -92 -197 -168 -14 -56 -34 -42 -85 64 -28 55
-58 107 -68 114 -9 7 -38 14 -64 14 -41 0 -50 -4 -72 -33z m43 -34 c-11 -26
-23 -66 -26 -90 -5 -34 -10 -43 -26 -43 -18 0 -19 5 -15 54 5 57 45 126 73
126 11 0 10 -9 -6 -47z m76 41 c9 -4 36 -48 61 -98 36 -74 41 -92 29 -94 -29
-6 -40 5 -59 57 -13 38 -26 56 -50 68 -17 8 -32 17 -34 18 -5 4 21 55 29 55 4
0 15 -3 24 -6z m445 -13 c-78 -24 -157 -99 -179 -170 -6 -23 -13 -41 -15 -41
-2 0 -18 5 -35 11 -28 10 -32 15 -26 38 22 91 137 169 250 169 29 0 29 0 5 -7z
m59 -31 c25 -13 37 -50 51 -150 6 -47 18 -125 25 -175 21 -139 28 -459 11
-520 -15 -57 -21 -50 -35 40 -5 33 -15 85 -23 115 -11 42 -12 88 -6 200 14
237 -15 432 -68 467 -13 8 -24 19 -24 24 0 12 47 11 69 -1z m-29 -83 c27 -62
41 -228 33 -390 l-6 -140 -22 27 c-33 42 -48 102 -46 187 1 69 -1 77 -25 100
-14 13 -33 37 -41 52 -8 16 -29 35 -48 43 -18 7 -36 18 -40 23 -14 24 53 133
99 158 31 17 74 -9 96 -60z m-462 -17 c8 -23 11 -44 8 -47 -10 -10 -89 11 -98
27 -7 10 -6 31 2 58 l11 43 32 -20 c20 -13 37 -35 45 -61z m-58 -59 c19 -6 80
-12 135 -15 56 -2 112 -9 125 -14 14 -6 44 -16 68 -23 48 -14 50 -19 22 -44
-34 -31 -53 -111 -56 -230 -3 -189 -33 -244 -154 -289 -39 -14 -86 -26 -103
-26 -18 0 -49 -5 -70 -11 -22 -6 -41 -8 -44 -5 -3 2 7 34 21 70 50 123 27 179
-50 121 -25 -19 -35 -37 -45 -80 -7 -30 -16 -55 -21 -55 -5 0 -46 18 -93 40
-47 22 -92 40 -100 40 -8 0 -21 11 -27 25 -17 37 3 90 63 171 81 109 87 130
64 239 -12 58 50 92 170 94 33 0 76 -3 95 -8z m400 -110 c5 -11 10 -34 10 -51
0 -50 -16 -70 -55 -70 -39 0 -42 8 -23 61 14 41 37 79 49 79 4 0 13 -9 19 -19z
m59 -145 c-1 -88 12 -129 62 -202 31 -45 46 -93 60 -192 4 -35 16 -78 25 -95
49 -94 30 -208 -48 -284 -37 -36 -62 -48 -183 -88 -134 -45 -144 -47 -225 -42
-48 3 -116 15 -155 28 -47 15 -91 22 -135 21 -76 -2 -151 20 -200 58 -19 15
-51 35 -70 44 -21 9 -47 35 -64 61 -41 65 -34 120 31 261 28 60 53 117 57 127
7 22 17 22 79 -7 29 -13 69 -31 90 -40 44 -18 46 -30 17 -127 -14 -47 -33 -83
-60 -114 -51 -59 -56 -105 -11 -105 46 0 91 39 133 115 21 39 38 81 38 95 1
47 11 68 33 68 79 0 184 23 245 53 105 53 134 113 135 277 l1 92 43 0 c37 0
44 4 58 30 8 16 15 39 15 51 0 18 2 19 15 9 11 -9 14 -33 14 -94z m-512 -248
c-4 -24 -20 -77 -36 -118 -17 -41 -30 -90 -31 -109 0 -69 -93 -201 -141 -201
-30 0 -23 28 20 76 31 35 44 65 69 151 18 60 36 128 41 153 6 28 20 54 36 68
39 33 49 28 42 -20z"/>
<path d="M1377 1450 c-3 -8 -8 -34 -11 -57 -3 -23 -9 -50 -13 -60 -6 -16 -5
-16 10 -5 17 14 32 86 25 118 -4 15 -6 16 -11 4z"/>
<path d="M1850 1140 c0 -22 10 -66 21 -98 39 -105 45 -145 26 -193 -10 -25
-13 -47 -8 -52 10 -10 41 75 41 114 0 15 -13 64 -30 109 -16 45 -30 99 -30
121 0 21 -4 39 -10 39 -5 0 -10 -18 -10 -40z"/>
<path d="M1088 863 c-31 -34 -49 -89 -38 -118 5 -14 15 -25 21 -25 7 0 8 7 3
18 -12 29 -7 63 16 94 25 33 23 59 -2 31z"/>
<path d="M1667 778 c4 -46 1 -58 -22 -92 -31 -45 -24 -63 10 -23 28 32 40 83
31 132 -11 55 -25 41 -19 -17z"/>
</g>
</svg>
