<?xml version="1.0" standalone="no"?>
<!DOCTYPE svg PUBLIC "-//W3C//DTD SVG 20010904//EN"
 "http://www.w3.org/TR/2001/REC-SVG-20010904/DTD/svg10.dtd">
<svg version="1.0" xmlns="http://www.w3.org/2000/svg"
 width="300.000000pt" height="480.000000pt" viewBox="0 0 300.000000 480.000000"
 preserveAspectRatio="xMidYMid meet">

<g transform="translate(0.000000,480.000000) scale(0.100000,-0.100000)"
fill="#ffffff" stroke="none">
<path d="M700 4182 l0 -248 93 -99 c79 -86 94 -107 106 -155 8 -30 17 -57 20
-60 16 -14 31 -53 31 -85 0 -34 18 -62 53 -81 8 -5 239 -580 512 -1279 555
-1420 606 -1550 672 -1718 l47 -117 36 0 c40 0 80 23 80 47 0 14 -146 396
-345 903 -29 74 -234 600 -455 1167 -368 949 -401 1036 -395 1075 6 39 3 47
-29 84 -19 23 -32 44 -29 48 3 3 0 14 -9 23 -27 33 -38 100 -38 239 l0 139
-166 183 c-90 100 -169 182 -174 182 -6 0 -10 -96 -10 -248z m172 51 c68 -76
128 -144 133 -152 8 -15 -161 72 -181 93 -6 6 -19 31 -29 56 -9 25 -26 66 -36
93 -10 26 -17 47 -15 47 2 0 59 -62 128 -137z m-108 22 l36 -89 -30 -91 c-17
-49 -35 -97 -40 -105 -6 -10 -10 52 -10 184 0 110 2 197 4 195 2 -2 20 -44 40
-94z m167 -166 l99 -51 0 -128 0 -127 -61 -22 -61 -23 -76 83 c-42 45 -80 87
-84 94 -9 15 61 225 74 225 6 0 54 -23 109 -51z m95 -336 c-6 -6 -42 -21 -91
-37 -11 -3 3 5 30 19 49 24 75 32 61 18z m-1 -32 c-6 -5 -21 -11 -35 -15 -21
-5 -20 -3 5 9 35 17 42 18 30 6z m5 -33 c-14 -7 -41 -21 -60 -32 -32 -18 -34
-19 -20 -2 16 21 66 45 90 45 8 0 4 -5 -10 -11z m-3 -34 c-16 -9 -31 -13 -34
-10 -3 3 5 10 18 15 37 15 47 12 16 -5z m187 -389 l145 -370 -42 -16 c-23 -10
-45 -14 -49 -11 -7 7 -288 726 -288 736 0 9 84 45 88 37 1 -3 67 -172 146
-376z m-74 286 c0 -21 -16 -2 -24 29 -7 24 -6 24 8 6 9 -11 16 -27 16 -35z
m-145 -51 c7 -22 6 -23 -9 -11 -9 7 -16 25 -16 40 1 29 11 17 25 -29z m375
-634 c0 -2 3 -11 6 -20 5 -12 0 -16 -19 -16 -30 0 -45 18 -26 31 15 9 39 12
39 5z m-13 -58 c36 -3 37 -4 70 -88 18 -47 33 -86 33 -88 0 -2 -24 -2 -52 0
l-52 3 -18 48 -18 47 46 0 c27 0 43 4 39 10 -3 6 -26 10 -50 10 -41 0 -44 2
-59 41 -18 45 -12 72 10 40 9 -12 28 -21 51 -23z m122 -220 c26 -70 27 -68
-27 -68 -49 0 -50 1 -66 40 -9 22 -16 43 -16 45 0 3 23 5 50 5 43 0 52 -3 59
-22z m47 -124 c8 -20 13 -38 10 -41 -2 -3 -27 -2 -54 2 -45 6 -50 9 -60 41
l-10 34 49 0 c48 0 51 -2 65 -36z m22 -70 c6 -2 12 -12 12 -23 0 -26 -37 -38
-53 -18 -7 9 -21 17 -32 19 -11 2 -21 11 -23 21 -3 15 2 17 40 11 24 -3 49 -7
56 -10z m-48 -54 c0 -5 -7 -10 -15 -10 -8 0 -15 5 -15 10 0 6 7 10 15 10 8 0
15 -4 15 -10z m144 -177 c292 -748 277 -707 258 -721 -20 -15 -61 -27 -68 -19
-6 6 -344 868 -344 878 0 8 47 27 72 28 12 1 33 -41 82 -166z m296 -765 c0
-11 -38 -10 -45 1 -3 6 2 14 12 20 17 9 32 -1 33 -21z m-63 -9 c6 -6 26 -14
44 -18 32 -6 36 -12 70 -101 l37 -95 -31 -3 c-55 -6 -72 4 -90 55 -23 65 -23
66 23 59 22 -3 40 -2 40 3 0 10 -35 21 -70 21 -20 0 -29 7 -38 33 -19 53 -12
73 15 46z m162 -252 c13 -16 43 -99 37 -104 -2 -2 -25 0 -51 4 -45 8 -48 10
-66 58 -10 28 -19 51 -19 53 0 9 90 -1 99 -11z m59 -145 c25 -33 4 -66 -25
-37 -9 10 -25 14 -38 11 -17 -4 -25 0 -33 20 -7 14 -12 27 -12 31 0 12 96 -9
108 -25z m-33 -51 c3 -6 -3 -15 -14 -20 -14 -8 -20 -7 -24 3 -9 24 24 38 38
17z m164 -282 c102 -263 104 -272 85 -286 -10 -7 -30 -13 -44 -11 -22 3 -33
23 -107 213 -46 116 -92 234 -103 262 l-20 53 38 19 c20 11 39 20 42 20 3 0
52 -121 109 -270z"/>
</g>
</svg>
