<?xml version="1.0" standalone="no"?>
<!DOCTYPE svg PUBLIC "-//W3C//DTD SVG 20010904//EN"
 "http://www.w3.org/TR/2001/REC-SVG-20010904/DTD/svg10.dtd">
<svg version="1.0" xmlns="http://www.w3.org/2000/svg"
 width="300.000000pt" height="240.000000pt" viewBox="0 0 300.000000 240.000000"
 preserveAspectRatio="xMidYMid meet">

<g transform="translate(0.000000,240.000000) scale(0.100000,-0.100000)"
fill="#ffffff" stroke="none">
<path d="M350 2103 c1 -82 207 -346 445 -567 342 -318 656 -553 963 -718 l95
-51 -29 -24 c-16 -13 -39 -26 -51 -29 -20 -5 -23 -13 -23 -53 0 -61 9 -91 27
-91 22 0 71 28 126 72 l50 39 41 -39 c35 -34 223 -154 320 -204 28 -15 30 -19
27 -71 -3 -70 10 -94 62 -118 75 -34 137 -24 187 30 98 106 105 185 22 274
-29 31 -59 34 -121 12 l-41 -14 -43 47 c-108 121 -216 226 -254 249 -24 14
-43 27 -43 29 0 3 13 34 30 70 37 83 47 132 28 139 -7 3 -37 2 -67 -2 l-52 -8
-18 -53 c-10 -29 -21 -56 -25 -60 -4 -4 -28 18 -54 48 -239 283 -652 625
-1062 880 -275 171 -540 275 -540 213z m174 -44 c293 -106 897 -533 1244 -879
107 -108 212 -234 212 -255 0 -5 -9 -21 -19 -35 -14 -18 -23 -21 -33 -14 -143
112 -1517 1201 -1528 1211 -13 12 -11 13 15 7 17 -4 66 -20 109 -35z m640
-603 l768 -609 -31 -30 -30 -30 -117 58 c-410 204 -1094 786 -1315 1119 -56
85 -69 112 -51 104 5 -1 354 -277 776 -612z m988 -419 c-5 -44 -69 -168 -126
-243 -74 -97 -220 -215 -246 -199 -6 3 -10 25 -10 48 0 36 4 45 28 59 93 56
186 168 243 295 24 51 33 62 56 66 49 8 58 3 55 -26z m-2 -212 c36 -23 39 -28
33 -57 -9 -51 -42 -135 -62 -159 -16 -21 -18 -21 -49 -5 l-31 16 24 36 c30 44
31 69 6 109 -18 29 -18 31 1 58 24 33 28 33 78 2z m130 -142 c0 -29 -42 -124
-63 -141 -14 -12 -22 -10 -55 8 l-38 21 33 66 c18 36 36 84 39 105 l7 39 38
-37 c23 -22 39 -48 39 -61z m-219 61 c11 -30 4 -60 -19 -87 -15 -16 -17 -16
-39 5 -30 28 -29 46 4 80 33 35 41 35 54 2z m277 -99 c19 -24 19 -28 5 -57
-15 -29 -15 -34 2 -64 10 -19 22 -34 26 -34 4 0 2 -11 -4 -24 l-12 -24 -57 29
c-31 16 -59 32 -61 36 -6 9 65 162 75 163 4 0 15 -11 26 -25z m73 -124 c-27
-27 -28 -27 -46 9 -12 24 -13 35 -4 51 11 21 11 21 41 -9 l30 -30 -21 -21z
m191 12 c65 -70 65 -122 2 -204 -25 -32 -54 -63 -64 -69 -31 -17 -93 -11 -135
13 -38 21 -40 25 -43 74 -3 59 11 93 60 147 63 67 138 83 180 39z"/>
<path d="M2471 489 c-42 -30 -62 -64 -75 -125 -9 -41 17 -73 67 -81 33 -5 42
-2 69 23 41 40 88 109 88 131 0 10 -9 33 -20 51 -27 43 -71 44 -129 1z m113
-14 c23 -35 21 -46 -26 -109 -48 -62 -78 -77 -117 -54 -21 12 -25 21 -23 48 4
46 31 90 72 117 43 30 74 29 94 -2z"/>
</g>
</svg>
