<?xml version="1.0" standalone="no"?>
<!DOCTYPE svg PUBLIC "-//W3C//DTD SVG 20010904//EN"
 "http://www.w3.org/TR/2001/REC-SVG-20010904/DTD/svg10.dtd">
<svg version="1.0" xmlns="http://www.w3.org/2000/svg"
 width="400.000000pt" height="320.000000pt" viewBox="0 0 400.000000 320.000000"
 preserveAspectRatio="xMidYMid meet">

<g transform="translate(0.000000,320.000000) scale(0.100000,-0.100000)"
fill="#FFFFFF" stroke="none">
<path d="M1024 2682 c-89 -54 -93 -59 -141 -156 -51 -107 -58 -174 -21 -222
50 -66 115 -131 159 -159 25 -16 77 -53 115 -82 38 -29 85 -55 104 -59 19 -4
50 -14 69 -21 28 -12 42 -12 77 -3 40 12 44 11 91 -21 26 -18 84 -70 128 -115
44 -44 103 -97 131 -117 28 -20 118 -107 200 -193 81 -86 175 -174 209 -197
33 -22 143 -122 245 -221 102 -100 235 -225 295 -280 61 -54 144 -136 185
-182 98 -110 164 -164 200 -164 72 0 47 123 -48 240 -21 25 -96 108 -168 186
-72 78 -146 161 -165 184 -19 23 -111 113 -205 200 -162 150 -214 204 -411
431 -103 118 -294 313 -353 361 -61 48 -91 108 -96 189 -3 68 -21 94 -131 196
-55 50 -117 114 -138 141 -41 54 -72 73 -148 91 -81 19 -117 14 -183 -27z
m188 4 c81 -22 84 -24 137 -90 l49 -63 -22 -35 c-45 -75 -142 -181 -198 -215
-32 -20 -58 -40 -58 -44 0 -15 14 -10 73 30 62 41 139 125 189 204 l30 47 46
-39 c163 -137 171 -166 105 -358 -16 -46 -57 -86 -82 -81 -23 5 -19 67 8 118
12 24 26 63 31 89 5 25 12 57 16 71 5 24 5 24 -10 6 -9 -11 -18 -36 -22 -55
-3 -20 -17 -63 -32 -96 -14 -33 -26 -79 -27 -102 0 -39 -3 -43 -44 -64 -43
-21 -44 -21 -100 -4 -94 30 -111 37 -111 48 0 13 63 69 121 107 26 17 58 48
72 69 14 21 39 53 56 72 31 33 38 49 23 49 -8 0 -63 -64 -101 -117 -12 -18
-42 -44 -65 -58 -24 -14 -52 -35 -62 -46 -10 -12 -31 -30 -46 -40 -26 -19 -27
-19 -62 2 -20 11 -36 25 -36 29 0 4 -24 22 -53 38 -45 25 -127 107 -127 126 0
3 10 6 22 6 14 0 41 20 73 54 28 29 65 60 82 69 46 24 93 75 114 125 22 50 23
55 9 50 -5 -1 -22 -28 -37 -58 -22 -44 -39 -62 -86 -90 -31 -19 -67 -50 -80
-68 -12 -17 -41 -42 -65 -53 -41 -20 -44 -21 -62 -4 -27 24 -26 98 0 159 l19
46 65 0 64 0 37 51 c46 65 39 75 -11 15 -37 -44 -40 -46 -92 -46 l-54 0 19 33
c10 17 50 53 88 79 78 53 107 58 197 34z m501 -615 c40 -27 260 -252 358 -367
177 -206 235 -266 394 -415 100 -92 199 -189 220 -215 22 -27 105 -119 184
-204 168 -181 212 -244 219 -312 4 -47 4 -48 -23 -48 -23 0 -59 32 -199 174
-94 96 -217 216 -274 266 -57 51 -156 146 -220 212 -64 66 -148 142 -186 168
-79 57 -179 150 -291 275 -43 48 -111 112 -150 141 -38 28 -101 84 -140 124
-38 39 -89 85 -113 101 -45 32 -47 49 -5 49 35 0 90 60 103 113 19 74 19 74
50 20 17 -30 48 -65 73 -82z"/>
<path d="M1670 1997 c0 -2 37 -42 83 -88 45 -47 101 -107 124 -134 24 -27 46
-46 49 -42 12 11 -222 267 -245 267 -6 0 -11 -2 -11 -3z"/>
<path d="M2180 1439 c0 -6 66 -74 147 -152 81 -78 214 -209 294 -292 81 -82
150 -147 155 -142 6 6 -55 72 -236 256 -20 20 -102 98 -183 175 -81 76 -147
145 -147 152 0 8 -7 14 -15 14 -8 0 -15 -5 -15 -11z"/>
</g>
</svg>
