<?xml version="1.0" standalone="no"?>
<!DOCTYPE svg PUBLIC "-//W3C//DTD SVG 20010904//EN"
 "http://www.w3.org/TR/2001/REC-SVG-20010904/DTD/svg10.dtd">
<svg version="1.0" xmlns="http://www.w3.org/2000/svg"
 width="300.000000pt" height="480.000000pt" viewBox="0 0 300.000000 480.000000"
 preserveAspectRatio="xMidYMid meet">

<g transform="translate(0.000000,480.000000) scale(0.100000,-0.100000)"
fill="#ffffff" stroke="none">
<path d="M1723 4314 c-63 -30 -142 -114 -179 -190 -38 -78 -45 -182 -16 -247
12 -26 25 -47 29 -47 5 0 14 28 20 63 7 34 15 77 19 96 6 30 5 33 -10 28 -14
-6 -16 -3 -10 16 24 78 101 175 164 207 60 31 103 34 152 12 158 -70 157 -356
-2 -496 -19 -17 -65 -62 -102 -100 -60 -62 -74 -85 -147 -242 -83 -178 -111
-264 -111 -345 0 -54 17 -73 59 -67 18 3 28 0 25 -6 -1 -6 -156 -553 -344
-1216 -187 -663 -345 -1215 -351 -1227 -8 -14 -8 -31 -2 -50 8 -24 15 -28 48
-28 l38 0 413 1495 c295 1071 409 1499 402 1508 -6 6 -17 12 -24 12 -8 0 -14
4 -14 9 0 17 89 127 154 190 79 77 117 148 141 271 35 175 -16 301 -149 361
-59 27 -139 24 -203 -7z m242 -38 c92 -64 122 -178 86 -330 -27 -113 -62 -177
-134 -245 -79 -75 -150 -169 -167 -222 -7 -24 -15 -45 -16 -47 -1 -1 -13 3
-27 9 l-26 12 33 66 c38 74 101 150 160 193 101 73 163 212 153 343 -18 239
-221 309 -383 133 -22 -24 -53 -70 -68 -102 -28 -59 -40 -143 -20 -139 12 2 6
-54 -7 -62 -13 -9 -22 62 -16 126 7 82 40 143 116 220 76 75 110 90 199 85 54
-3 72 -10 117 -40z m-165 -828 c0 -13 -5 -30 -10 -38 -14 -23 -32 2 -24 34 8
32 34 35 34 4z m-105 -48 c10 -11 14 -20 9 -20 -12 1 -44 25 -44 34 0 12 17 6
35 -14z m85 -37 c0 -13 -3 -13 -15 -3 -8 7 -15 16 -15 21 0 5 7 6 15 3 8 -4
15 -13 15 -21z m-84 -30 c-5 -5 -56 19 -56 27 0 19 16 18 37 -2 12 -12 21 -23
19 -25z m63 -19 c3 -16 1 -17 -13 -5 -19 16 -21 34 -3 29 6 -3 14 -13 16 -24z
m-99 -9 l24 -25 -32 11 c-18 6 -32 17 -32 25 0 21 14 17 40 -11z m88 -33 c2
-7 -2 -10 -12 -6 -9 3 -16 11 -16 16 0 13 23 5 28 -10z m-108 -12 c14 -11 19
-20 12 -20 -19 0 -52 19 -52 30 0 15 12 12 40 -10z m100 -41 c0 -5 -7 -6 -15
-3 -8 4 -15 13 -15 21 0 13 3 13 15 3 8 -7 15 -16 15 -21z m-126 -4 c11 -8 15
-15 9 -15 -19 0 -43 12 -43 21 0 13 12 11 34 -6z m106 -25 c8 -5 12 -12 9 -15
-8 -8 -39 5 -39 16 0 11 11 11 30 -1z m-94 -47 c-5 -5 -66 19 -66 26 0 19 15
18 41 -1 16 -12 27 -23 25 -25z m88 -2 c3 -4 3 -11 0 -14 -8 -8 -34 3 -34 14
0 11 27 12 34 0z m-109 -36 l30 -24 -32 9 c-40 10 -53 18 -53 31 0 16 24 10
55 -16z m90 -16 c11 -17 -1 -21 -15 -4 -8 9 -8 15 -2 15 6 0 14 -5 17 -11z
m-78 -56 c2 -5 -13 -10 -32 -11 -33 -2 -35 -1 -35 29 l0 31 32 -21 c18 -11 34
-24 35 -28z m68 7 c3 -5 2 -10 -4 -10 -5 0 -13 5 -16 10 -3 6 -2 10 4 10 5 0
13 -4 16 -10z m-17 -28 c9 -7 -67 -298 -328 -1243 -187 -679 -344 -1244 -350
-1256 -10 -25 -45 -31 -53 -10 -3 7 79 310 182 673 103 362 263 926 356 1252
92 325 170 592 174 592 3 0 12 -4 19 -8z"/>
</g>
</svg>
