<?xml version="1.0" standalone="no"?>
<!DOCTYPE svg PUBLIC "-//W3C//DTD SVG 20010904//EN"
 "http://www.w3.org/TR/2001/REC-SVG-20010904/DTD/svg10.dtd">
<svg version="1.0" xmlns="http://www.w3.org/2000/svg"
 width="300.000000pt" height="480.000000pt" viewBox="0 0 300.000000 480.000000"
 preserveAspectRatio="xMidYMid meet">

<g transform="translate(0.000000,480.000000) scale(0.100000,-0.100000)"
fill="#ffffff" stroke="none">
<path d="M1323 3967 c-123 -28 -146 -36 -175 -63 -18 -18 -52 -41 -75 -53 -36
-18 -43 -19 -53 -6 -23 28 -61 17 -104 -27 l-40 -43 -125 0 c-112 0 -131 3
-168 23 -23 12 -51 22 -61 22 -23 0 -240 -141 -241 -157 -1 -6 3 -13 8 -15 5
-1 91 -131 192 -288 101 -157 189 -291 196 -298 11 -11 33 -1 127 57 l113 71
6 57 c3 32 15 83 26 114 21 56 77 149 89 149 4 0 188 -359 409 -798 222 -438
569 -1125 772 -1527 l369 -730 34 -3 c26 -2 41 3 61 24 15 15 27 31 27 36 0 6
-35 78 -79 161 -43 84 -176 346 -296 582 -120 237 -438 864 -707 1393 l-490
964 23 16 c12 10 54 35 93 57 66 38 77 50 158 165 48 69 87 131 88 138 0 16
-13 15 -177 -21z m117 0 c0 -2 -31 -25 -69 -51 l-69 -48 -41 23 c-22 12 -38
25 -35 28 9 10 214 56 214 48z m-52 -117 c-64 -92 -78 -98 -78 -33 0 27 8 37
63 77 34 25 65 45 69 46 4 0 -20 -40 -54 -90z m-112 6 c7 -6 15 -36 18 -67 l7
-55 -70 -38 c-97 -53 -190 -138 -243 -221 -50 -79 -65 -112 -81 -184 l-12 -50
-167 267 c-92 147 -166 268 -164 269 1 1 24 -4 51 -12 95 -29 282 -12 397 36
29 12 82 41 118 65 l65 43 35 -21 c19 -12 40 -26 46 -32z m-271 -25 c6 -11
-63 -36 -73 -26 -9 9 27 35 49 35 10 0 20 -4 24 -9z m-287 -344 c96 -152 171
-280 168 -286 -9 -14 -187 -122 -196 -119 -17 6 -381 581 -373 589 4 4 51 35
103 69 91 59 95 61 110 43 8 -11 93 -144 188 -296z m691 -451 c155 -305 281
-559 281 -564 0 -5 -18 -16 -40 -25 l-39 -15 -276 544 c-151 299 -275 547
-275 551 0 9 52 63 61 63 4 0 134 -249 288 -554z m314 -621 c17 -35 17 -35 -7
-35 -12 0 -31 9 -42 21 -18 20 -18 21 1 35 26 20 29 18 48 -21z m-63 -30 c16
-17 34 -25 56 -25 28 0 36 -6 58 -47 15 -25 24 -48 22 -51 -3 -2 -24 -7 -48
-9 l-43 -5 -43 81 c-44 82 -45 101 -2 56z m197 -229 l42 -84 -31 -6 c-62 -12
-66 -10 -108 74 -22 44 -40 82 -40 84 0 4 25 9 80 14 10 1 30 -28 57 -82z m98
-195 c48 -97 48 -101 -21 -101 -33 0 -35 3 -79 89 l-45 90 28 4 c71 11 69 12
117 -82z m100 -201 c25 -50 43 -95 40 -100 -4 -6 -25 -10 -48 -10 l-43 0 -42
85 c-23 47 -42 89 -42 95 0 5 19 11 43 13 23 2 43 4 44 5 2 1 23 -39 48 -88z
m102 -195 c20 -41 35 -77 32 -80 -3 -3 -25 -8 -50 -11 l-44 -6 -37 76 c-21 42
-38 78 -38 81 0 2 17 6 38 8 20 2 43 4 50 5 7 1 29 -32 49 -73z m99 -196 c25
-50 43 -93 40 -96 -3 -3 -25 -7 -49 -8 l-43 -3 -47 93 c-45 91 -46 94 -24 98
72 14 74 13 123 -84z m106 -213 l47 -94 -51 -4 -50 -3 -44 88 c-25 48 -43 91
-40 95 2 4 24 8 48 9 l44 3 46 -94z m121 -234 c65 -125 67 -161 3 -92 -24 26
-46 40 -61 40 -21 0 -31 13 -65 80 -22 44 -40 82 -40 85 0 3 23 5 52 3 l52 -3
59 -113z m-9 -108 c23 -29 26 -38 15 -45 -25 -16 -35 -10 -57 36 -20 41 -20
45 -4 45 9 0 30 -16 46 -36z m149 -169 c67 -135 67 -135 47 -155 -43 -43 -60
-30 -133 111 -38 72 -67 131 -65 133 18 13 74 46 78 46 3 0 36 -61 73 -135z"/>
<path d="M1127 3824 c-10 -11 15 -64 41 -84 35 -28 41 -16 9 18 -15 16 -27 35
-27 44 0 18 -14 31 -23 22z"/>
<path d="M800 3713 c1 -5 15 -17 32 -28 41 -26 88 -102 95 -154 7 -48 23 -55
23 -9 0 44 -34 110 -82 157 -37 37 -69 53 -68 34z"/>
</g>
</svg>
