<?xml version="1.0" standalone="no"?>
<!DOCTYPE svg PUBLIC "-//W3C//DTD SVG 20010904//EN"
 "http://www.w3.org/TR/2001/REC-SVG-20010904/DTD/svg10.dtd">
<svg version="1.0" xmlns="http://www.w3.org/2000/svg"
 width="480.000000pt" height="300.000000pt" viewBox="0 0 480.000000 300.000000"
 preserveAspectRatio="xMidYMid meet">

<g transform="translate(0.000000,300.000000) scale(0.100000,-0.100000)"
fill="#000000" stroke="none">
<path d="M2239 2448 c-21 -15 -46 -47 -66 -87 -27 -52 -33 -76 -33 -128 l0
-64 -50 7 c-43 6 -55 3 -84 -17 -19 -13 -45 -42 -58 -64 -21 -36 -23 -53 -24
-171 0 -151 -10 -177 -94 -251 -72 -64 -105 -158 -63 -181 15 -9 11 -22 -34
-123 -28 -63 -62 -148 -76 -189 -14 -41 -33 -92 -43 -112 -16 -34 -16 -46 -6
-113 19 -121 67 -192 146 -214 21 -5 66 -29 98 -52 58 -40 61 -41 116 -34 31
5 95 8 141 8 80 -1 88 -3 173 -47 55 -29 101 -46 123 -46 52 0 137 20 171 41
18 11 91 28 186 43 85 14 168 30 183 36 46 17 215 150 240 189 13 20 27 54 30
76 6 35 1 51 -33 114 l-41 75 18 35 c47 94 54 137 48 294 -4 82 -11 184 -16
226 -6 42 -15 148 -21 236 -12 165 -19 208 -52 310 -23 70 -34 84 -99 126 -42
27 -58 31 -121 32 -85 2 -131 -18 -206 -86 -57 -53 -81 -106 -82 -179 0 -32
-2 -58 -5 -58 -3 0 -21 6 -39 14 -31 13 -34 17 -40 77 -10 85 -61 182 -131
248 -62 59 -100 66 -156 29z m144 -47 c63 -59 114 -155 123 -228 6 -51 6 -53
-17 -53 -56 0 -66 9 -73 62 -4 28 -13 63 -21 78 -19 36 -71 80 -96 80 -10 0
-19 3 -19 6 0 12 34 64 42 64 4 0 8 7 8 15 0 23 -29 6 -47 -28 -29 -56 -63
-170 -63 -209 0 -37 -2 -39 -27 -36 -28 3 -28 3 -28 83 1 69 5 87 30 133 53
97 110 107 188 33z m436 -68 c-61 -67 -109 -162 -109 -215 0 -43 -4 -47 -47
-41 -32 5 -33 6 -33 58 0 69 13 101 58 148 48 50 86 77 131 93 56 20 56 18 0
-43z m195 16 c26 -18 54 -41 61 -53 33 -50 63 -192 74 -351 6 -88 17 -205 23
-260 7 -55 12 -167 13 -250 0 -144 -1 -152 -28 -210 l-28 -60 -16 29 c-12 23
-13 36 -3 75 8 33 10 120 5 306 -8 301 -33 538 -69 645 -16 46 -109 119 -153
120 -38 0 -43 12 -10 28 40 19 82 13 131 -19z m-37 -76 c36 -30 50 -50 56 -79
5 -21 12 -59 18 -84 31 -152 63 -746 43 -824 -6 -27 -8 -28 -20 -11 -9 11 -14
45 -14 85 0 95 -21 157 -70 204 -45 43 -43 36 -44 171 l-1 100 -46 71 c-26 38
-50 81 -54 93 -4 15 -26 32 -61 48 -51 23 -54 26 -54 61 0 42 27 107 72 173
l30 45 49 -6 c37 -5 60 -16 96 -47z m-639 27 c37 -34 50 -62 58 -116 4 -35 2
-54 -5 -59 -7 -3 -43 -1 -81 5 l-70 12 0 42 c0 23 7 63 16 89 18 54 44 62 82
27z m-227 -151 c30 -16 193 -40 296 -44 58 -3 103 -10 122 -20 17 -8 64 -20
103 -25 82 -11 140 -24 157 -34 8 -5 -1 -20 -26 -45 -40 -39 -64 -98 -82 -206
-11 -62 -7 -96 24 -202 l17 -62 -31 -49 c-17 -27 -48 -67 -68 -89 -34 -36 -45
-42 -98 -48 -66 -8 -93 -13 -209 -44 -101 -27 -141 -28 -131 -3 37 96 47 141
42 191 -3 30 -12 61 -20 69 -13 12 -18 12 -41 -3 -30 -20 -76 -112 -84 -167
l-5 -38 -57 54 c-32 30 -70 58 -86 61 -60 14 -120 36 -143 54 -40 30 -23 81
54 160 94 99 99 112 100 266 0 118 2 133 23 168 37 58 96 82 143 56z m728
-222 c1 -19 -10 -38 -40 -67 -42 -41 -75 -51 -85 -26 -9 25 48 129 81 147 29
15 30 15 37 -5 3 -12 6 -33 7 -49z m89 -219 l-3 -107 47 -48 c53 -55 68 -97
68 -193 0 -57 5 -75 40 -140 94 -177 120 -231 120 -247 -1 -47 -41 -103 -115
-162 -126 -100 -143 -108 -316 -136 -102 -16 -175 -34 -211 -50 -32 -15 -84
-28 -122 -32 -63 -6 -69 -4 -123 29 -32 20 -76 41 -98 48 -45 15 -162 18 -245
6 -53 -7 -57 -6 -114 34 -33 22 -79 46 -104 52 -72 18 -112 87 -128 220 -5 44
-3 63 9 82 9 14 29 64 45 113 35 107 112 283 125 283 5 0 41 -10 80 -21 61
-19 81 -31 131 -80 48 -48 57 -62 52 -81 -4 -13 -15 -62 -26 -110 -10 -48 -26
-100 -34 -116 -15 -29 -64 -76 -87 -84 -12 -4 -27 -118 -15 -118 3 0 14 4 24
9 9 6 30 12 45 16 65 14 134 126 167 271 21 89 22 91 51 92 41 1 137 21 179
36 19 8 77 19 128 26 l93 13 54 59 c31 33 65 78 76 100 l21 41 -21 76 c-31
116 -32 129 -21 171 8 31 16 40 32 40 31 0 83 39 110 81 l23 37 33 -51 c32
-51 32 -53 30 -159z m-722 -223 c9 -50 -2 -108 -36 -184 -15 -36 -38 -106 -50
-156 -37 -150 -107 -255 -169 -255 -26 0 -31 4 -31 25 0 13 7 30 16 37 71 56
91 84 108 153 9 39 23 93 31 120 7 28 17 75 20 105 7 53 43 149 66 177 20 23
38 14 45 -22z"/>
<path d="M2190 1858 c0 -29 -7 -66 -15 -82 -18 -33 -18 -36 -5 -36 5 0 16 13
25 30 17 32 21 140 5 140 -5 0 -10 -24 -10 -52z"/>
<path d="M2831 1532 c-5 -10 -13 -49 -17 -85 -7 -68 2 -105 36 -157 19 -28 60
-173 60 -212 0 -14 -9 -37 -20 -51 -25 -31 -28 -56 -4 -36 23 19 44 65 44 96
-1 43 -45 183 -74 233 -28 49 -32 87 -16 170 11 58 8 73 -9 42z"/>
<path d="M2549 1106 c-9 -18 -7 -40 6 -91 19 -78 13 -139 -18 -172 -28 -32
-14 -41 16 -11 34 34 42 105 22 182 -9 33 -13 72 -10 88 8 34 -2 37 -16 4z"/>
<path d="M1774 1087 c-44 -66 -54 -108 -38 -151 7 -17 54 -22 54 -6 0 6 -9 10
-20 10 -35 0 -27 68 15 129 20 29 30 51 23 51 -7 0 -23 -15 -34 -33z"/>
</g>
</svg>
