<?xml version="1.0" standalone="no"?>
<!DOCTYPE svg PUBLIC "-//W3C//DTD SVG 20010904//EN"
 "http://www.w3.org/TR/2001/REC-SVG-20010904/DTD/svg10.dtd">
<svg version="1.0" xmlns="http://www.w3.org/2000/svg"
 width="300.000000pt" height="240.000000pt" viewBox="0 0 300.000000 240.000000"
 preserveAspectRatio="xMidYMid meet">

<g transform="translate(0.000000,240.000000) scale(0.100000,-0.100000)"
fill="#ffffff" stroke="none">
<path d="M2016 2106 c-31 -38 -36 -52 -36 -95 0 -28 5 -51 10 -51 6 0 10 20
10 45 0 44 22 95 41 95 5 0 9 -7 9 -15 0 -8 5 -15 10 -15 6 0 10 18 10 40 0
22 -4 40 -9 40 -5 0 -25 -20 -45 -44z"/>
<path d="M2138 2078 c-13 -19 -18 -21 -30 -10 -13 10 -22 3 -57 -49 -27 -41
-41 -73 -41 -94 0 -24 -7 -37 -24 -49 -34 -22 -43 -3 -16 34 17 24 18 30 6 30
-8 0 -19 -8 -24 -17 -8 -13 -11 -11 -17 15 -3 18 -10 32 -13 32 -17 0 -236
-266 -355 -430 -50 -69 -116 -159 -147 -200 -110 -145 -364 -544 -487 -765
-25 -44 -54 -90 -65 -101 l-19 -22 34 -21 c27 -17 50 -21 114 -21 143 0 195
27 293 154 66 86 111 123 160 131 24 4 58 14 77 22 31 12 38 12 60 -2 14 -9
32 -30 41 -47 79 -144 119 -178 210 -178 64 0 119 20 207 75 75 46 177 146
189 182 11 34 -11 97 -51 150 -44 57 -51 87 -41 173 4 36 7 100 7 142 1 78 1
78 57 158 75 109 109 186 95 217 -17 36 -14 41 27 52 23 7 56 29 87 61 45 46
48 52 32 61 -17 10 -16 12 3 36 23 30 19 43 -13 36 -18 -5 -20 -3 -9 8 18 19
15 29 -10 29 -35 0 -68 -11 -68 -22 0 -6 11 -7 25 -4 14 4 25 2 25 -3 0 -14
-41 -41 -62 -41 -10 0 -18 -5 -18 -11 0 -7 10 -9 25 -6 14 2 24 2 22 -2 -2 -3
-9 -21 -16 -38 -8 -21 -20 -33 -32 -33 -10 0 -34 -14 -54 -31 -35 -31 -60 -34
-35 -4 10 12 10 15 -3 15 -8 0 -17 -5 -19 -11 -4 -12 -38 -1 -38 12 0 5 12 11
28 15 54 11 71 24 99 75 15 29 27 57 25 61 -1 5 5 22 13 38 21 40 19 43 -14
37 -29 -6 -30 -5 -33 33 l-3 39 -33 -30 c-36 -32 -37 -48 -3 -29 19 10 21 8
21 -20 0 -28 2 -30 26 -24 25 6 25 6 12 -17 -16 -30 -28 -39 -50 -39 -12 0
-15 5 -11 17 5 14 1 15 -32 10 -49 -8 -70 -27 -30 -27 l29 0 -29 -30 c-16 -16
-39 -30 -51 -30 -12 0 -33 -9 -47 -20 -32 -25 -41 -25 -25 0 16 25 2 39 -16
15 -8 -11 -15 -14 -19 -8 -4 6 2 18 13 28 12 11 22 37 26 67 4 27 15 59 25 71
l18 22 1 -22 c0 -12 5 -25 10 -28 6 -4 10 13 10 45 0 32 -4 49 -10 45 -14 -9
-12 39 2 53 20 20 28 14 28 -24 0 -33 2 -36 25 -32 14 3 25 4 25 2 0 -16 -25
-59 -51 -88 -32 -37 -58 -121 -35 -113 6 2 12 17 14 34 3 29 52 90 52 65 0 -7
5 -12 10 -12 6 0 10 17 10 38 0 26 8 45 25 64 43 46 28 58 -39 32 -13 -5 -16
2 -16 45 0 55 -9 64 -32 29z m-64 -143 c-12 -16 -24 -50 -27 -73 -3 -26 -14
-52 -26 -63 -26 -24 -40 -5 -15 22 19 21 11 40 -8 21 -21 -21 -29 -13 -12 13
9 14 20 23 24 20 10 -6 20 20 20 53 0 14 12 44 28 66 l27 39 5 -34 c4 -25 0
-42 -16 -64z m-154 -22 c0 -31 50 -126 83 -161 35 -37 64 -54 126 -76 54 -18
149 -76 156 -94 3 -8 3 -23 0 -33 -6 -17 -10 -16 -58 11 -29 16 -74 34 -102
41 -27 6 -63 18 -79 26 -51 26 -119 97 -141 148 -35 79 -38 102 -18 130 21 29
33 32 33 8z m-36 -136 c43 -102 115 -161 244 -198 63 -18 132 -56 132 -72 0
-14 -20 -49 -99 -167 -133 -202 -339 -448 -422 -506 l-39 -27 -48 50 c-67 70
-117 99 -180 105 -70 7 -100 30 -139 109 -25 50 -29 68 -21 83 10 18 13 15 34
-26 28 -56 77 -98 112 -98 82 0 170 -51 234 -137 23 -30 44 -50 46 -44 6 18
-63 104 -113 140 -49 35 -119 61 -165 61 -32 0 -83 49 -105 103 -19 46 -37 15
168 294 180 244 318 416 327 405 4 -4 19 -37 34 -75z m382 33 c30 12 30 2 1
-41 -17 -26 -32 -35 -62 -40 -22 -4 -41 -12 -43 -18 -2 -6 -8 -11 -14 -11 -5
0 -6 9 -3 20 7 23 -10 28 -19 5 -6 -15 -36 -21 -36 -7 0 17 25 32 55 32 23 0
35 8 53 36 17 25 27 33 34 26 7 -7 19 -7 34 -2z m154 -25 c0 -8 -7 -15 -15
-15 -9 0 -12 6 -9 15 4 8 10 15 15 15 5 0 9 -7 9 -15z m-27 -80 c-30 -35 -45
-44 -69 -45 -17 0 -37 -7 -44 -15 -7 -9 -15 -13 -18 -10 -11 10 42 55 65 55
17 0 27 8 34 28 8 23 16 29 40 30 l29 1 -37 -44z m-270 -625 c-11 -96 -3 -144
30 -178 24 -26 66 -105 67 -127 0 -5 -9 -25 -21 -44 l-21 -34 -22 55 c-13 30
-38 69 -57 86 l-34 30 2 150 c2 147 3 151 30 190 l28 39 3 -46 c1 -25 -1 -80
-5 -121z m-77 -32 c-9 -138 2 -190 52 -240 l41 -41 -30 -42 c-37 -51 -102 -99
-172 -125 -100 -38 -135 -25 -226 85 -34 42 -61 78 -59 79 2 2 24 13 50 25 51
24 200 170 289 284 30 37 55 67 58 67 2 0 1 -42 -3 -92z m-725 1 c40 -75 74
-99 149 -108 40 -5 71 -16 100 -36 40 -28 100 -92 100 -107 0 -8 -145 -65
-210 -83 -25 -7 -59 -21 -76 -31 -33 -20 -115 -107 -153 -161 -12 -18 -43 -45
-69 -60 -41 -24 -60 -28 -147 -31 -141 -6 -142 -3 -67 130 32 56 118 200 191
318 73 118 135 218 138 223 8 13 11 8 44 -54z m376 -379 c73 -87 118 -114 178
-108 84 10 219 94 262 164 11 18 12 18 12 -6 1 -14 -2 -34 -5 -45 -7 -27 -75
-77 -169 -125 -62 -33 -86 -40 -133 -40 -80 0 -111 22 -167 119 -25 43 -52 85
-60 91 -16 13 -10 33 8 27 7 -2 40 -37 74 -77z"/>
<path d="M1909 1561 c-14 -19 -29 -29 -37 -26 -11 4 -13 0 -9 -16 7 -25 -59
-129 -80 -129 -7 0 -13 -7 -13 -16 0 -24 -103 -163 -122 -164 -10 0 -15 -6
-11 -18 2 -10 -11 -37 -32 -65 -20 -26 -30 -47 -23 -47 7 0 29 22 48 50 19 27
38 49 43 50 4 0 7 4 7 10 0 12 101 152 117 163 7 4 13 12 13 18 0 5 19 35 42
67 46 63 91 142 84 149 -2 3 -15 -9 -27 -26z"/>
<path d="M1340 850 c-23 -28 -46 -47 -51 -44 -5 3 -9 -3 -9 -13 -1 -10 -23
-41 -49 -70 -37 -40 -53 -50 -70 -46 -12 3 -21 1 -21 -6 0 -6 5 -11 11 -11 6
0 -13 -27 -41 -60 -29 -34 -51 -63 -48 -65 2 -3 29 20 58 50 30 30 60 55 67
55 7 0 13 6 13 13 0 6 24 37 53 67 60 64 147 167 147 175 0 16 -23 -1 -60 -45z"/>
</g>
</svg>
