<?xml version="1.0" standalone="no"?>
<!DOCTYPE svg PUBLIC "-//W3C//DTD SVG 20010904//EN"
 "http://www.w3.org/TR/2001/REC-SVG-20010904/DTD/svg10.dtd">
<svg version="1.0" xmlns="http://www.w3.org/2000/svg"
 width="300.000000pt" height="240.000000pt" viewBox="0 0 300.000000 240.000000"
 preserveAspectRatio="xMidYMid meet">

<g transform="translate(0.000000,240.000000) scale(0.100000,-0.100000)"
fill="#ffffff" stroke="none">
<path d="M980 2040 c-25 -23 -31 -35 -26 -54 9 -36 -47 -79 -206 -160 -128
-65 -179 -101 -199 -138 -17 -31 70 -179 165 -285 94 -104 292 -253 337 -253
10 0 34 19 53 42 35 40 46 68 27 68 -5 0 -43 25 -84 56 -81 61 -102 93 -112
180 -12 98 30 232 99 318 l23 30 28 -50 c59 -106 118 -182 200 -264 47 -47
128 -137 179 -200 52 -63 104 -124 116 -135 42 -37 150 -173 150 -188 0 -8 7
-20 16 -28 57 -47 304 -478 304 -530 0 -10 5 -21 10 -24 19 -12 91 6 117 30
l27 22 -18 46 c-9 25 -40 83 -68 129 -28 46 -66 110 -85 143 -19 33 -60 91
-91 129 -31 37 -75 94 -97 126 -48 68 -265 318 -386 445 -121 127 -257 291
-285 348 -16 31 -22 56 -18 72 14 58 -79 188 -105 146 -6 -9 -11 -10 -15 -2
-11 17 -21 13 -56 -19z m50 -7 c0 -10 -42 -53 -52 -53 -13 0 -9 22 9 42 16 18
43 25 43 11z m85 -43 c14 -27 25 -53 25 -57 0 -4 -18 -18 -39 -30 -79 -45
-153 -162 -177 -277 -13 -66 -14 -92 -5 -155 10 -67 16 -80 49 -114 20 -21 61
-54 90 -74 28 -20 52 -41 52 -48 0 -6 -13 -24 -29 -39 l-29 -28 -60 32 c-74
39 -225 169 -295 254 -64 78 -127 183 -127 212 0 34 43 71 137 117 144 70 224
122 293 190 36 36 71 65 77 66 7 0 24 -21 38 -49z m33 -143 c24 -54 150 -211
283 -352 57 -60 145 -157 194 -214 50 -57 108 -124 129 -148 41 -47 42 -63 3
-87 -13 -9 -20 -6 -34 14 -10 14 -56 68 -103 120 -47 52 -105 119 -128 149
-23 30 -93 106 -154 170 -125 131 -171 188 -222 279 -41 72 -43 87 -18 101 27
16 30 14 50 -32z m722 -880 c0 -10 -7 -32 -16 -49 l-16 -31 -20 32 c-19 29
-19 33 -4 65 18 39 19 46 7 46 -5 0 -14 -14 -21 -30 -10 -24 -15 -28 -26 -19
-20 16 -17 36 8 61 l21 21 34 -39 c18 -21 33 -47 33 -57z m54 -52 l27 -35 -21
-40 c-11 -22 -24 -40 -28 -40 -4 0 -16 15 -28 33 -20 32 -20 32 -2 75 10 23
20 42 22 42 2 0 16 -16 30 -35z m66 -85 l21 -29 -26 -52 -27 -52 -19 32 c-10
17 -19 36 -19 42 0 12 39 89 45 89 2 0 13 -13 25 -30z m53 -93 c16 -30 17 -36
2 -69 -8 -20 -12 -44 -9 -52 3 -8 1 -23 -4 -32 -8 -15 -14 -9 -37 36 l-27 53
23 49 c12 26 25 48 28 48 4 0 14 -15 24 -33z m40 -109 c-23 -25 -36 -8 -23 28
11 28 12 28 26 10 12 -17 12 -22 -3 -38z m68 -74 c30 -65 30 -68 12 -85 -10
-10 -34 -20 -53 -24 -35 -6 -35 -6 -57 52 l-22 58 31 32 c18 18 38 33 46 33 7
0 27 -30 43 -66z"/>
<path d="M627 1663 c-12 -20 94 -166 192 -263 98 -98 235 -200 248 -186 5 5
-1 13 -11 20 -152 91 -317 259 -412 422 -7 11 -13 14 -17 7z"/>
</g>
</svg>
