<?xml version="1.0" standalone="no"?>
<!DOCTYPE svg PUBLIC "-//W3C//DTD SVG 20010904//EN"
 "http://www.w3.org/TR/2001/REC-SVG-20010904/DTD/svg10.dtd">
<svg version="1.0" xmlns="http://www.w3.org/2000/svg"
 width="300.000000pt" height="480.000000pt" viewBox="0 0 300.000000 480.000000"
 preserveAspectRatio="xMidYMid meet">

<g transform="translate(0.000000,480.000000) scale(0.100000,-0.100000)"
fill="#ffffff" stroke="none">
<path d="M951 4473 l-44 -16 7 -61 c9 -90 9 -2851 -1 -3409 -4 -263 -5 -484
-1 -491 4 -7 1 -37 -7 -67 -24 -89 -22 -95 37 -117 29 -11 56 -18 59 -16 4 2
-4 25 -17 51 -28 54 -29 68 -9 116 33 78 164 192 266 230 89 34 263 103 329
132 30 13 100 41 155 62 215 82 410 269 510 487 43 94 92 262 100 343 7 71 -8
138 -33 154 -17 10 -18 44 -14 517 4 502 5 506 26 523 19 16 21 27 21 116 0
113 -24 215 -84 353 -103 240 -287 424 -511 511 -58 22 -130 51 -160 65 -57
25 -201 84 -330 134 -58 23 -92 46 -153 101 -116 106 -140 170 -97 254 11 22
20 41 20 42 0 6 -27 1 -69 -14z m19 -39 c-6 -14 -10 -39 -10 -55 0 -31 -14
-39 -24 -13 -3 9 -6 31 -6 49 0 31 6 38 42 44 4 0 3 -11 -2 -25z m152 -291
c58 -43 288 -145 538 -239 216 -80 364 -193 483 -368 61 -92 72 -115 133 -291
35 -102 54 -235 40 -289 -8 -33 -53 -56 -110 -56 -115 0 -134 38 -137 270 -3
229 -46 352 -179 513 -63 76 -297 204 -612 335 -102 42 -215 125 -270 197 -54
72 -47 86 12 22 27 -30 73 -72 102 -94z m-121 48 c49 -63 160 -144 250 -182
41 -17 126 -55 189 -84 63 -29 151 -69 195 -90 155 -71 276 -186 349 -332 46
-91 63 -182 65 -338 3 -188 17 -242 73 -271 l31 -16 -5 -491 c-5 -392 -8 -492
-19 -496 -25 -8 -58 -49 -69 -87 -6 -22 -15 -118 -19 -214 -11 -232 -32 -296
-145 -439 -71 -89 -163 -157 -280 -209 -56 -24 -157 -70 -226 -102 -69 -31
-145 -65 -171 -74 -77 -29 -211 -136 -253 -202 l-37 -59 8 810 c4 446 7 1294
5 1885 -2 872 0 1071 10 1056 7 -10 29 -40 49 -65z m1219 -1320 c0 -11 -39
-41 -52 -41 -10 0 -11 34 -1 43 10 11 53 8 53 -2z m50 -98 l-1 -108 -43 -27
c-24 -16 -46 -28 -50 -28 -3 0 -6 20 -6 45 0 42 3 48 45 77 25 18 45 35 45 40
0 13 -9 10 -48 -17 l-37 -25 -3 37 c-2 25 1 39 10 42 7 2 27 19 43 37 17 19
33 34 38 34 4 0 7 -48 7 -107z m0 -190 l-1 -58 -42 -20 c-23 -11 -45 -21 -49
-23 -5 -2 -8 18 -8 45 0 46 3 51 43 80 23 17 45 32 50 32 4 1 7 -25 7 -56z
m-21 -204 c-13 -9 -35 -24 -51 -33 l-28 -17 0 60 0 61 48 30 47 29 3 -56 c3
-49 0 -59 -19 -74z m21 -158 l0 -139 -48 -31 c-27 -17 -52 -31 -55 -31 -9 0
-9 123 1 135 4 6 26 23 50 38 57 37 54 55 -3 21 -25 -14 -47 -25 -49 -23 -2 2
-1 29 1 59 5 53 8 58 47 83 22 15 44 27 49 27 4 0 7 -63 7 -139z m-8 -213 c-4
-32 -13 -49 -40 -75 -48 -46 -62 -43 -62 12 0 43 2 46 48 75 26 16 49 30 52
30 3 0 4 -19 2 -42z m-2 -88 c0 -14 -7 -20 -22 -20 -20 0 -21 1 -3 20 10 11
20 20 22 20 1 0 3 -9 3 -20z m14 -59 c17 -9 33 -30 38 -46 14 -51 -2 -165 -39
-275 -75 -220 -136 -324 -265 -446 -118 -112 -181 -150 -353 -215 -105 -39
-144 -55 -367 -147 -112 -46 -152 -68 -210 -117 -40 -33 -82 -75 -94 -93 -13
-18 -25 -29 -28 -24 -20 33 172 215 261 246 39 14 164 69 435 194 190 88 331
247 387 438 16 56 21 99 21 200 1 196 26 286 84 297 48 10 103 5 130 -12z
m-1319 -1508 c5 -17 3 -23 -8 -23 -26 0 -39 27 -32 62 11 51 19 56 26 18 4
-19 10 -45 14 -57z"/>
<path d="M2155 3239 c-15 -15 -21 -40 -24 -96 -5 -119 22 -182 73 -169 57 14
69 186 17 256 -24 33 -43 36 -66 9z m55 -31 c15 -25 20 -51 20 -106 0 -78 -11
-112 -36 -112 -41 0 -64 172 -30 225 9 14 19 25 21 25 3 0 14 -15 25 -32z"/>
<path d="M2155 1806 c-29 -29 -39 -77 -33 -156 7 -96 56 -128 102 -67 17 24
21 43 21 112 0 74 -3 86 -24 109 -30 32 -36 32 -66 2z m66 -38 c25 -62 1 -198
-35 -198 -29 0 -50 48 -50 114 0 110 52 162 85 84z"/>
</g>
</svg>
