<?xml version="1.0" standalone="no"?>
<!DOCTYPE svg PUBLIC "-//W3C//DTD SVG 20010904//EN"
 "http://www.w3.org/TR/2001/REC-SVG-20010904/DTD/svg10.dtd">
<svg version="1.0" xmlns="http://www.w3.org/2000/svg"
 width="300.000000pt" height="240.000000pt" viewBox="0 0 300.000000 240.000000"
 preserveAspectRatio="xMidYMid meet">

<g transform="translate(0.000000,240.000000) scale(0.100000,-0.100000)"
fill="#ffffff" stroke="none">
<path d="M1605 2151 c-33 -10 -94 -33 -135 -51 -123 -52 -176 -69 -376 -115
-214 -49 -211 -49 -346 -122 -53 -29 -103 -53 -111 -53 -23 0 -27 -32 -27
-262 0 -232 11 -312 49 -352 11 -12 29 -43 40 -69 12 -27 40 -69 63 -93 24
-25 64 -67 90 -94 44 -46 46 -51 53 -124 6 -60 3 -94 -13 -163 -42 -177 -37
-200 55 -267 113 -83 159 -96 400 -119 29 -3 84 -20 122 -37 82 -38 92 -39
195 -11 86 23 151 60 206 116 19 19 54 45 77 56 30 15 54 37 77 73 51 79 138
144 206 155 47 8 67 50 79 167 6 49 21 138 35 199 22 93 26 136 26 281 l1 172
-32 73 c-31 70 -33 82 -38 229 -3 85 -9 160 -13 166 -5 7 -31 20 -59 30 -35
13 -65 34 -94 66 -29 33 -54 50 -85 58 -24 6 -66 25 -95 41 -60 34 -190 69
-249 68 -23 0 -68 -9 -101 -18z m201 -16 c33 -7 98 -32 144 -54 46 -23 92 -41
101 -41 27 0 36 -19 64 -150 50 -239 58 -266 101 -361 62 -136 63 -132 -48
-127 -51 3 -101 8 -110 12 -13 6 -18 4 -18 -7 0 -18 49 -27 154 -27 l79 0 -7
-47 c-4 -27 -11 -142 -15 -258 -5 -152 -12 -220 -23 -245 -14 -34 -44 -168
-40 -182 1 -4 -24 -15 -56 -23 -31 -9 -70 -21 -87 -26 -36 -11 -95 -67 -95
-88 0 -36 -51 -120 -102 -167 -62 -59 -116 -89 -185 -104 -26 -6 -57 -15 -69
-21 -17 -9 -40 -3 -120 29 -54 22 -153 60 -219 85 -74 28 -153 67 -205 101
-47 31 -102 59 -122 62 -35 6 -38 9 -38 41 0 19 9 71 21 116 16 64 20 98 15
155 -6 58 -4 72 7 72 29 0 95 -29 153 -67 126 -85 158 -103 181 -103 13 0 32
-9 44 -21 11 -11 23 -18 26 -15 12 12 -31 46 -70 57 -22 6 -52 19 -66 28 -136
93 -200 129 -242 135 -43 6 -54 15 -135 102 -49 52 -97 113 -106 136 -10 22
-27 53 -38 68 -34 48 -50 118 -50 226 0 82 3 104 16 115 9 8 41 45 70 84 30
38 78 102 109 142 30 40 64 77 75 83 11 6 18 15 15 21 -9 14 -54 -25 -105 -91
-120 -158 -161 -210 -171 -215 -6 -4 -9 32 -7 105 l3 112 130 69 c125 65 140
70 330 114 146 33 241 61 350 104 222 88 248 93 361 66z m416 -218 l56 -25 4
-154 c3 -146 5 -156 34 -223 32 -72 49 -135 36 -135 -4 0 -20 8 -37 19 -23 14
-41 44 -77 127 -25 60 -49 118 -52 129 -9 31 -66 308 -66 319 0 5 10 0 23 -11
12 -11 47 -32 79 -46z m109 -547 c17 -10 19 -22 19 -143 0 -96 -6 -155 -20
-217 -11 -47 -25 -116 -30 -155 -29 -199 -35 -215 -77 -215 -19 0 -23 4 -19
18 3 9 12 46 21 82 8 36 22 90 30 120 10 37 15 103 15 210 0 171 16 310 35
310 4 0 15 -5 26 -10z m-240 -800 c-23 -17 -57 -55 -76 -85 -31 -48 -75 -88
-75 -69 0 4 10 33 21 65 22 61 54 90 117 109 51 16 55 10 13 -20z m-1050 -153
c46 -31 116 -68 154 -83 75 -29 108 -49 65 -40 -14 3 -58 10 -98 15 -54 7 -88
18 -129 43 -64 38 -143 105 -143 120 0 23 72 -3 151 -55z"/>
<path d="M1467 1758 c-2 -7 -5 -139 -6 -293 l-2 -280 -33 -35 c-39 -41 -56
-71 -56 -99 0 -13 -12 -26 -35 -37 -62 -29 -72 -81 -22 -118 23 -17 32 -18 56
-9 26 10 31 8 50 -18 44 -60 111 -76 111 -27 0 11 14 45 31 75 41 71 50 116
38 175 -12 55 -46 88 -91 88 l-30 0 4 295 c3 267 0 321 -15 283z m79 -606 c15
-10 30 -41 37 -78 8 -42 -6 -98 -36 -142 -14 -20 -29 -49 -32 -65 -4 -15 -11
-30 -16 -33 -14 -8 -53 23 -79 66 -28 45 -35 49 -43 20 -6 -22 -28 -26 -58
-10 -25 14 -24 45 2 71 18 18 30 20 70 17 40 -4 47 -3 38 8 -6 8 -18 14 -25
14 -29 0 -16 58 22 100 30 33 43 40 73 40 20 0 41 -4 47 -8z"/>
<path d="M1445 930 c-4 -6 -3 -16 3 -22 6 -6 12 -6 17 2 4 6 3 16 -3 22 -6 6
-12 6 -17 -2z"/>
<path d="M1240 1663 c0 -11 111 -203 121 -209 20 -12 6 22 -48 116 -51 88 -73
116 -73 93z"/>
<path d="M1696 1576 c-62 -105 -72 -126 -59 -126 8 0 37 47 111 178 13 23 19
42 13 42 -6 0 -35 -42 -65 -94z"/>
<path d="M934 1351 c10 -15 206 -124 213 -117 8 8 13 4 -99 70 -90 53 -126 68
-114 47z"/>
<path d="M1957 1305 c-92 -54 -125 -80 -97 -73 24 5 210 112 210 121 0 15 -28
3 -113 -48z"/>
<path d="M1075 935 c-34 -19 -52 -35 -41 -35 20 0 116 51 116 63 0 13 -13 8
-75 -28z"/>
<path d="M1860 957 c19 -18 189 -117 201 -117 25 0 0 20 -88 70 -103 58 -140
74 -113 47z"/>
<path d="M1351 736 c-8 -10 -9 -16 -1 -21 5 -3 13 1 16 10 9 22 -1 29 -15 11z"/>
<path d="M1634 734 c15 -40 118 -204 127 -204 6 0 0 19 -13 43 -74 130 -103
177 -111 177 -5 0 -6 -7 -3 -16z"/>
<path d="M1270 598 c-31 -55 -35 -68 -22 -68 4 0 22 27 40 60 41 74 24 81 -18
8z"/>
</g>
</svg>
