<?xml version="1.0" standalone="no"?>
<!DOCTYPE svg PUBLIC "-//W3C//DTD SVG 20010904//EN"
 "http://www.w3.org/TR/2001/REC-SVG-20010904/DTD/svg10.dtd">
<svg version="1.0" xmlns="http://www.w3.org/2000/svg"
 width="400.000000pt" height="320.000000pt" viewBox="0 0 400.000000 320.000000"
 preserveAspectRatio="xMidYMid meet">

<g transform="translate(0.000000,320.000000) scale(0.100000,-0.100000)"
fill="#FFFFFF" stroke="none">
<path d="M1065 2751 c-72 -34 -203 -206 -226 -296 -9 -36 -9 -56 0 -86 15 -51
91 -129 125 -129 13 0 52 -12 85 -26 47 -20 70 -39 102 -81 52 -66 79 -86 146
-106 77 -23 212 -96 262 -142 24 -22 68 -72 97 -111 29 -39 71 -86 94 -104 49
-39 293 -187 323 -196 12 -3 38 -16 57 -28 19 -11 57 -31 85 -44 27 -13 63
-34 80 -46 16 -13 46 -31 65 -41 19 -10 72 -51 117 -92 77 -70 110 -109 208
-250 22 -32 74 -94 116 -139 62 -66 81 -95 109 -163 39 -97 107 -193 149 -211
38 -15 71 -5 72 23 4 76 -13 121 -98 259 -27 42 -80 130 -119 195 -78 129
-116 181 -239 324 -134 156 -165 187 -239 236 -39 25 -120 87 -181 138 -60 50
-135 110 -167 133 -31 23 -66 56 -79 74 -12 18 -68 80 -125 138 -103 104 -104
106 -152 226 -60 148 -112 226 -233 351 -109 113 -183 167 -260 189 -86 25
-129 27 -174 5z m132 -16 c19 -8 44 -15 53 -15 35 0 166 -100 251 -192 112
-122 168 -210 216 -337 38 -104 39 -106 154 -227 64 -66 122 -131 128 -142 6
-12 44 -46 84 -76 39 -30 117 -92 173 -138 56 -47 130 -103 165 -125 78 -49
96 -68 74 -77 -8 -3 -15 -12 -15 -19 0 -8 -17 -28 -39 -45 l-39 -31 -78 50
c-44 27 -128 75 -189 105 -60 30 -139 73 -175 94 -36 22 -83 50 -105 61 -64
35 -133 97 -190 173 -29 39 -68 85 -86 103 -44 40 -204 127 -273 147 -64 19
-91 39 -142 107 -30 39 -54 58 -103 80 -35 16 -75 29 -88 29 -34 0 -110 79
-118 123 -13 70 28 155 133 275 80 90 131 109 209 77z m1397 -1412 c60 -71 63
-78 50 -97 -8 -11 -14 -32 -14 -46 0 -15 -6 -34 -13 -44 -12 -16 -14 -15 -35
7 -22 23 -22 26 -8 63 21 57 28 94 17 94 -5 0 -17 -25 -26 -55 -8 -30 -19 -55
-23 -55 -18 0 -30 41 -26 89 4 40 2 53 -11 57 -21 9 -3 62 22 64 1 0 31 -35
67 -77z m-107 5 c9 -15 11 -88 2 -88 -3 0 -18 13 -34 30 -28 29 -28 30 -10 50
21 23 31 25 42 8z m211 -130 c26 -29 21 -92 -12 -133 l-22 -28 -21 34 c-21 33
-21 33 -2 71 10 20 19 41 18 45 -6 38 9 42 39 11z m80 -90 c36 -47 35 -71 -4
-127 -13 -19 -21 -38 -18 -43 7 -11 40 31 58 73 l14 33 16 -33 c15 -28 15 -33
1 -47 -20 -20 -19 -68 1 -88 16 -17 11 -36 -10 -36 -15 0 -73 59 -125 129 -32
43 -38 57 -27 65 25 21 46 61 46 88 0 38 10 35 48 -14z m110 -168 c13 -21 1
-60 -18 -60 -12 0 -24 46 -16 65 7 21 19 19 34 -5z m89 -145 c77 -122 91 -147
111 -190 27 -58 33 -99 18 -120 -12 -16 -15 -16 -43 -1 -44 22 -94 96 -141
204 -22 52 -49 103 -58 113 -16 17 -16 22 -4 29 8 6 18 10 23 10 4 0 12 12 18
27 11 31 10 32 76 -72z"/>
<path d="M1076 2648 c-8 -13 -18 -36 -22 -53 -11 -46 -39 -97 -69 -125 -15
-14 -31 -34 -35 -45 -18 -48 -21 -65 -11 -65 6 0 14 12 17 26 4 14 26 49 51
77 29 35 50 73 63 116 11 35 25 70 31 78 8 9 8 13 0 13 -6 0 -17 -10 -25 -22z"/>
<path d="M1154 2619 c-14 -23 32 -64 84 -74 33 -6 61 -20 81 -39 16 -15 34
-25 40 -21 7 4 -4 19 -29 40 -28 23 -54 35 -89 40 -43 6 -51 10 -60 36 -11 31
-16 35 -27 18z"/>
<path d="M1480 2424 c0 -4 7 -16 17 -26 9 -10 16 -33 15 -53 -2 -40 13 -47 20
-10 6 28 -20 86 -39 93 -7 2 -13 0 -13 -4z"/>
<path d="M1184 2395 c-12 -8 -24 -12 -27 -9 -9 10 -107 -7 -107 -18 0 -7 20
-8 55 -3 53 6 55 6 55 -17 0 -32 23 -63 59 -78 20 -8 35 -25 45 -51 16 -38 40
-59 54 -45 3 4 0 11 -8 16 -7 5 -21 23 -29 41 -9 19 -35 46 -58 62 -24 15 -43
36 -43 45 0 31 19 47 52 47 18 0 33 4 33 9 0 16 -59 17 -81 1z"/>
<path d="M1490 2187 c0 -7 16 -21 35 -30 26 -12 37 -25 44 -55 12 -42 51 -88
51 -60 0 9 -7 21 -15 28 -8 7 -15 22 -15 34 0 29 -9 41 -53 70 -44 30 -47 31
-47 13z"/>
<path d="M1680 1892 c0 -5 15 -16 34 -25 22 -10 43 -33 61 -65 23 -43 37 -55
88 -80 4 -2 7 1 7 7 0 6 -13 17 -28 25 -15 8 -39 35 -52 61 -16 32 -36 53 -62
66 -41 21 -48 23 -48 11z"/>
<path d="M1880 1834 c0 -3 30 -36 68 -73 37 -38 74 -78 82 -89 15 -22 70 -41
70 -25 0 5 -14 14 -30 20 -17 6 -33 20 -38 31 -4 11 -37 48 -74 81 -62 58 -78
69 -78 55z"/>
<path d="M2185 1524 c11 -9 34 -22 50 -29 17 -7 39 -23 49 -34 11 -12 26 -21
34 -21 26 0 -38 59 -87 81 -52 23 -73 24 -46 3z"/>
<path d="M2930 757 c0 -17 35 -84 49 -94 10 -6 26 -30 36 -52 10 -22 21 -38
26 -36 12 8 -10 62 -39 93 -15 16 -32 41 -37 57 -8 23 -35 48 -35 32z"/>
</g>
</svg>
