<?xml version="1.0" standalone="no"?>
<!DOCTYPE svg PUBLIC "-//W3C//DTD SVG 20010904//EN"
 "http://www.w3.org/TR/2001/REC-SVG-20010904/DTD/svg10.dtd">
<svg version="1.0" xmlns="http://www.w3.org/2000/svg"
 width="300.000000pt" height="240.000000pt" viewBox="0 0 300.000000 240.000000"
 preserveAspectRatio="xMidYMid meet">

<g transform="translate(0.000000,240.000000) scale(0.100000,-0.100000)"
fill="#ffffff" stroke="none">
<path d="M586 2063 c130 -242 244 -416 364 -553 160 -183 436 -465 550 -561
74 -62 107 -96 100 -103 -10 -12 -124 -72 -152 -80 -40 -12 -5 -110 46 -134
22 -10 31 -7 73 25 26 20 76 61 111 92 l64 55 26 -35 c14 -19 42 -50 62 -70
48 -46 250 -209 260 -209 5 0 7 -23 7 -51 -2 -44 2 -54 26 -75 31 -27 57 -30
108 -12 81 27 128 91 129 174 0 56 -30 84 -91 84 l-45 0 -95 117 c-101 125
-158 185 -201 211 -36 21 -35 32 3 68 42 39 149 173 149 186 0 6 -16 26 -36
44 -28 27 -44 34 -75 34 -28 0 -39 -4 -39 -15 0 -17 -49 -118 -72 -148 -12
-16 -20 -10 -90 75 -158 192 -611 609 -774 713 -151 97 -430 255 -449 255 -3
0 15 -39 41 -87z m269 -96 c184 -111 252 -163 459 -351 153 -139 430 -418 475
-478 48 -64 48 -73 -3 -132 l-34 -40 -489 481 c-268 265 -528 523 -578 573
l-90 92 80 -43 c44 -23 125 -69 180 -102z m819 -945 l68 -70 -52 -41 c-28 -22
-55 -41 -60 -41 -59 0 -629 574 -784 790 -79 110 -256 405 -256 426 0 6 914
-892 1084 -1064z m355 212 c17 -14 31 -32 31 -41 0 -52 -491 -553 -543 -553
-36 0 -86 71 -74 104 3 7 17 16 32 20 37 9 145 76 221 137 76 60 170 182 220
285 42 84 60 92 113 48z m-90 -321 l42 -38 -39 -93 c-52 -123 -54 -125 -98
-81 l-35 35 36 75 c27 54 35 83 31 107 -6 43 11 42 63 -5z m-95 -75 c-16 -39
-35 -73 -41 -75 -6 -2 -21 10 -33 27 l-23 32 54 54 c70 70 83 59 43 -38z m199
-24 l37 -46 -35 -66 c-20 -37 -43 -77 -53 -89 l-17 -22 -38 32 -38 33 30 64
c16 36 36 82 44 103 9 20 20 37 24 36 4 0 25 -21 46 -45z m76 -95 c22 -29 22
-32 7 -64 -18 -37 -21 -96 -6 -111 7 -7 5 -16 -4 -29 -13 -19 -15 -18 -54 9
-75 52 -77 57 -43 107 16 24 37 61 47 82 10 20 21 37 24 37 3 0 16 -14 29 -31z
m81 -100 c7 -12 0 -22 -30 -42 -38 -25 -39 -25 -45 -5 -8 22 1 67 17 86 9 10
15 9 30 -5 11 -10 24 -25 28 -34z m130 -39 c36 -36 17 -134 -37 -182 -27 -25
-102 -49 -127 -42 -60 18 -74 86 -33 159 40 72 153 109 197 65z"/>
</g>
</svg>
