<?xml version="1.0" standalone="no"?>
<!DOCTYPE svg PUBLIC "-//W3C//DTD SVG 20010904//EN"
 "http://www.w3.org/TR/2001/REC-SVG-20010904/DTD/svg10.dtd">
<svg version="1.0" xmlns="http://www.w3.org/2000/svg"
 width="300.000000pt" height="240.000000pt" viewBox="0 0 300.000000 240.000000"
 preserveAspectRatio="xMidYMid meet">

<g transform="translate(0.000000,240.000000) scale(0.100000,-0.100000)"
fill="#ffffff" stroke="none">
<path d="M1605 2151 c-33 -10 -94 -33 -135 -51 -123 -52 -176 -69 -376 -115
-214 -49 -211 -49 -346 -122 -53 -29 -103 -53 -111 -53 -23 0 -27 -32 -27
-262 0 -232 11 -312 49 -352 11 -12 29 -43 40 -69 12 -27 40 -69 63 -93 24
-25 64 -67 90 -94 44 -46 46 -51 53 -124 6 -60 3 -94 -13 -163 -42 -177 -37
-200 55 -267 113 -83 159 -96 400 -119 29 -3 84 -20 122 -37 82 -38 92 -39
195 -11 86 23 151 60 206 116 19 19 54 45 77 56 30 15 54 37 77 73 51 79 138
144 206 155 47 8 67 50 79 167 6 49 21 138 35 199 22 93 26 136 26 281 l1 172
-32 73 c-31 70 -33 82 -38 229 -3 85 -9 160 -13 166 -5 7 -31 20 -59 30 -35
13 -65 34 -94 66 -29 33 -54 50 -85 58 -24 6 -66 25 -95 41 -60 34 -190 69
-249 68 -23 0 -68 -9 -101 -18z m201 -16 c33 -7 98 -32 144 -54 46 -23 92 -41
101 -41 27 0 36 -19 64 -150 50 -239 58 -266 101 -361 62 -136 63 -132 -48
-127 -51 3 -101 8 -110 12 -13 6 -18 4 -18 -7 0 -18 49 -27 154 -27 l79 0 -7
-47 c-4 -27 -11 -142 -15 -258 -5 -152 -12 -220 -23 -245 -14 -34 -44 -168
-40 -182 1 -4 -24 -15 -56 -23 -31 -9 -70 -21 -87 -26 -36 -11 -95 -67 -95
-88 0 -36 -51 -120 -102 -167 -62 -59 -116 -89 -185 -104 -26 -6 -57 -15 -69
-21 -17 -9 -40 -3 -120 29 -54 22 -153 60 -219 85 -74 28 -153 67 -205 101
-47 31 -102 59 -122 62 -35 6 -38 9 -38 41 0 19 9 71 21 116 16 64 20 98 15
155 -4 39 -3 72 1 72 31 0 98 -28 153 -64 142 -93 164 -106 184 -106 12 0 32
-7 44 -16 19 -13 22 -13 22 -1 0 14 -25 27 -80 43 -13 4 -36 15 -50 24 -122
83 -190 121 -237 131 -49 11 -60 20 -141 106 -48 52 -95 112 -104 135 -10 22
-27 53 -38 68 -34 48 -50 118 -50 226 0 82 3 104 16 115 9 8 41 45 70 84 30
38 78 102 109 142 30 40 64 77 75 83 11 6 18 15 15 21 -9 14 -54 -25 -105 -91
-120 -158 -161 -210 -171 -215 -6 -4 -9 32 -7 105 l3 112 130 69 c125 65 140
70 330 114 146 33 241 61 350 104 222 88 248 93 361 66z m416 -218 l56 -25 4
-154 c3 -146 5 -156 34 -223 32 -72 49 -135 36 -135 -4 0 -20 8 -37 19 -23 14
-41 44 -77 127 -25 60 -49 118 -52 129 -9 31 -66 308 -66 319 0 5 10 0 23 -11
12 -11 47 -32 79 -46z m109 -547 c17 -10 19 -22 19 -143 0 -96 -6 -155 -20
-217 -11 -47 -25 -116 -30 -155 -29 -199 -35 -215 -77 -215 -19 0 -23 4 -19
18 3 9 12 46 21 82 8 36 22 90 30 120 10 37 15 103 15 210 0 171 16 310 35
310 4 0 15 -5 26 -10z m-240 -800 c-23 -17 -57 -55 -76 -85 -31 -48 -75 -88
-75 -69 0 4 10 33 21 65 22 61 54 90 117 109 51 16 55 10 13 -20z m-1050 -153
c46 -31 116 -68 154 -83 75 -29 108 -49 65 -40 -14 3 -58 10 -98 15 -54 7 -88
18 -129 43 -64 38 -143 105 -143 120 0 23 72 -3 151 -55z"/>
<path d="M1605 1653 c-4 -32 -15 -98 -25 -148 -10 -49 -28 -166 -40 -260 -33
-257 -32 -253 -43 -162 -5 42 -13 77 -18 77 -5 0 -9 -6 -9 -13 0 -44 52 -423
59 -430 16 -16 19 8 9 63 -15 80 -2 339 26 513 13 81 26 150 30 154 3 3 6 -27
6 -68 0 -41 5 -81 10 -89 7 -10 10 31 10 126 0 78 3 175 6 217 8 92 -11 109
-21 20z"/>
<path d="M1726 1679 c-19 -124 -36 -272 -36 -310 1 -69 16 -26 24 66 12 142
24 163 26 50 1 -55 6 -111 10 -125 5 -15 8 47 7 152 -1 120 -6 181 -14 189 -9
9 -13 4 -17 -22z"/>
<path d="M1907 1686 c-14 -36 -58 -300 -55 -329 4 -30 4 -31 10 -7 4 14 10 48
14 75 7 44 9 35 16 -75 7 -112 43 -364 55 -382 14 -24 18 7 18 145 0 162 22
302 70 449 26 81 10 87 -17 7 -22 -62 -63 -263 -74 -359 -7 -59 -8 -62 -17
-35 -11 38 -15 392 -4 468 5 35 5 57 -1 57 -6 0 -12 -6 -15 -14z"/>
<path d="M1436 1653 c-3 -10 -10 -59 -16 -110 -5 -51 -17 -124 -25 -163 -17
-80 -19 -119 -7 -105 5 6 17 56 27 113 10 56 21 102 25 102 4 0 8 -37 9 -82 2
-88 9 -130 20 -124 3 2 3 48 0 103 -4 54 -7 140 -8 191 -1 85 -12 117 -25 75z"/>
<path d="M1307 1643 c-2 -4 -8 -48 -11 -98 -8 -104 -20 -193 -41 -287 -15 -66
-17 -77 -30 -193 -12 -102 -24 -97 -26 10 -1 55 -3 116 -4 135 -2 19 -6 116
-9 214 -3 98 -8 181 -11 184 -11 11 -11 -122 -1 -388 15 -377 20 -443 34 -448
9 -3 12 16 12 71 0 95 67 527 84 544 2 3 7 -25 11 -61 4 -36 12 -66 17 -66 7
0 7 17 2 48 -4 26 -8 111 -8 189 -1 129 -6 168 -19 146z"/>
<path d="M1755 1315 c-5 -2 -26 -6 -46 -9 -84 -14 -92 -66 -10 -66 49 0 137
25 147 41 16 26 -47 49 -91 34z m65 -24 c0 -10 -24 -21 -46 -21 -8 0 -14 7
-14 15 0 10 10 15 30 15 17 0 30 -4 30 -9z m-87 -15 c4 -9 -3 -16 -21 -19 -36
-7 -49 3 -27 20 24 17 41 17 48 -1z"/>
<path d="M1380 1246 c-90 -20 -124 -52 -80 -76 40 -21 190 29 190 64 0 27 -28
30 -110 12z m80 -16 c0 -16 -41 -33 -52 -22 -6 6 -7 15 -4 21 9 14 56 15 56 1z
m-87 -24 c4 -9 -5 -16 -25 -20 -37 -7 -45 -2 -28 19 16 19 46 20 53 1z"/>
<path d="M1837 1243 c-4 -3 -7 -58 -7 -121 0 -64 -3 -112 -6 -109 -4 4 -15 50
-25 103 -10 53 -21 99 -24 102 -19 19 -9 -45 43 -287 4 -19 13 -36 20 -39 9
-3 12 39 12 177 0 100 -1 181 -3 181 -2 0 -7 -3 -10 -7z"/>
<path d="M1616 1194 c8 -68 45 -318 51 -341 14 -58 20 -8 21 167 0 114 -3 188
-9 185 -5 -4 -9 -43 -9 -88 0 -100 -14 -92 -28 17 -6 43 -15 83 -20 88 -7 7
-9 -3 -6 -28z"/>
<path d="M1359 1133 c-15 -4 -17 -28 -15 -233 2 -212 6 -253 22 -237 3 3 7
112 7 241 1 130 2 235 2 235 0 -1 -7 -3 -16 -6z"/>
</g>
</svg>
