<?xml version="1.0" standalone="no"?>
<!DOCTYPE svg PUBLIC "-//W3C//DTD SVG 20010904//EN"
 "http://www.w3.org/TR/2001/REC-SVG-20010904/DTD/svg10.dtd">
<svg version="1.0" xmlns="http://www.w3.org/2000/svg"
 width="300.000000pt" height="240.000000pt" viewBox="0 0 300.000000 240.000000"
 preserveAspectRatio="xMidYMid meet">

<g transform="translate(0.000000,240.000000) scale(0.100000,-0.100000)"
fill="#ffffff" stroke="none">
<path d="M1605 2151 c-33 -10 -94 -33 -135 -51 -123 -52 -176 -69 -376 -115
-214 -49 -211 -49 -346 -122 -53 -29 -103 -53 -111 -53 -23 0 -27 -32 -27
-262 0 -232 11 -312 49 -352 11 -12 29 -43 40 -69 12 -27 40 -69 63 -93 24
-25 64 -67 90 -94 44 -46 46 -51 53 -124 6 -60 3 -94 -13 -163 -42 -177 -37
-200 55 -267 113 -83 159 -96 400 -119 29 -3 84 -20 122 -37 82 -38 92 -39
195 -11 86 23 151 60 206 116 19 19 54 45 77 56 30 15 54 37 77 73 51 79 138
144 206 155 47 8 67 50 79 167 6 49 21 138 35 199 22 93 26 136 26 281 l1 172
-32 73 c-31 70 -33 82 -38 229 -3 85 -9 160 -13 166 -5 7 -31 20 -59 30 -35
13 -65 34 -94 66 -29 33 -54 50 -85 58 -24 6 -66 25 -95 41 -60 34 -190 69
-249 68 -23 0 -68 -9 -101 -18z m201 -16 c33 -7 98 -32 144 -54 46 -23 92 -41
101 -41 27 0 36 -19 64 -150 50 -239 58 -266 101 -361 62 -136 63 -132 -48
-127 -51 3 -101 8 -110 12 -13 6 -18 4 -18 -7 0 -18 49 -27 154 -27 l79 0 -7
-47 c-4 -27 -11 -142 -15 -258 -5 -152 -12 -220 -23 -245 -14 -34 -44 -168
-40 -182 1 -4 -24 -15 -56 -23 -31 -9 -70 -21 -87 -26 -36 -11 -95 -67 -95
-88 0 -36 -51 -120 -102 -167 -62 -59 -116 -89 -185 -104 -26 -6 -57 -15 -69
-21 -17 -9 -40 -3 -120 29 -54 22 -153 60 -219 85 -74 28 -153 67 -205 101
-47 31 -102 59 -122 62 -35 6 -38 9 -38 41 0 19 9 71 21 116 16 64 20 98 15
155 -4 39 -3 72 1 72 31 0 98 -28 153 -64 142 -93 164 -106 184 -106 12 0 32
-7 44 -16 19 -13 22 -13 22 -1 0 14 -25 27 -80 43 -13 4 -36 15 -50 24 -122
83 -190 121 -237 131 -49 11 -60 20 -141 106 -48 52 -95 112 -104 135 -10 22
-27 53 -38 68 -34 48 -50 118 -50 226 0 82 3 104 16 115 9 8 41 45 70 84 30
38 78 102 109 142 30 40 64 77 75 83 11 6 18 15 15 21 -9 14 -54 -25 -105 -91
-120 -158 -161 -210 -171 -215 -6 -4 -9 32 -7 105 l3 112 130 69 c125 65 140
70 330 114 146 33 241 61 350 104 222 88 248 93 361 66z m416 -218 l56 -25 4
-154 c3 -146 5 -156 34 -223 32 -72 49 -135 36 -135 -4 0 -20 8 -37 19 -23 14
-41 44 -77 127 -25 60 -49 118 -52 129 -9 31 -66 308 -66 319 0 5 10 0 23 -11
12 -11 47 -32 79 -46z m109 -547 c17 -10 19 -22 19 -143 0 -96 -6 -155 -20
-217 -11 -47 -25 -116 -30 -155 -29 -199 -35 -215 -77 -215 -19 0 -23 4 -19
18 3 9 12 46 21 82 8 36 22 90 30 120 10 37 15 103 15 210 0 171 16 310 35
310 4 0 15 -5 26 -10z m-240 -800 c-23 -17 -57 -55 -76 -85 -31 -48 -75 -88
-75 -69 0 4 10 33 21 65 22 61 54 90 117 109 51 16 55 10 13 -20z m-1050 -153
c46 -31 116 -68 154 -83 75 -29 108 -49 65 -40 -14 3 -58 10 -98 15 -54 7 -88
18 -129 43 -64 38 -143 105 -143 120 0 23 72 -3 151 -55z"/>
<path d="M1240 1780 c0 -61 -19 -65 -35 -8 -16 58 -25 56 -27 -8 -3 -90 -2
-97 6 -124 9 -25 8 -25 -12 -7 -11 10 -23 34 -26 53 -7 33 -19 43 -30 25 -3
-5 1 -28 10 -52 9 -24 20 -84 26 -134 5 -49 13 -126 17 -170 9 -88 44 -190 69
-200 23 -8 24 -2 13 58 -22 119 18 286 95 394 l34 47 -33 36 c-39 41 -70 87
-77 114 -3 11 -11 21 -18 24 -8 2 -12 -12 -12 -48z m50 -54 c5 -13 15 -28 22
-33 39 -24 41 -40 10 -86 -66 -95 -111 -270 -96 -371 l4 -31 -16 35 c-16 33
-27 108 -40 282 -6 70 -5 76 12 75 20 -2 20 0 12 83 -3 34 -2 35 30 32 27 -3
32 0 32 17 0 29 18 26 30 -3z"/>
<path d="M1485 1663 c-96 -38 -154 -110 -180 -225 -17 -76 -22 -279 -8 -317 6
-15 5 -38 -3 -65 -42 -143 -39 -196 11 -196 24 0 25 3 20 33 -9 47 12 63 60
47 40 -13 56 -50 36 -82 -17 -27 -5 -35 26 -18 31 18 47 64 34 102 -12 33 4
98 23 98 19 0 151 140 173 185 65 129 76 254 30 347 -39 79 -76 108 -135 107
-26 0 -65 -7 -87 -16z m60 -59 c-42 -70 -68 -147 -91 -266 l-17 -93 -65 0 -64
0 5 90 c7 115 27 180 74 234 39 46 120 91 165 91 l27 0 -34 -56z m113 10 c44
-53 66 -132 57 -202 -10 -79 -54 -189 -92 -230 l-33 -35 -20 26 c-11 14 -40
35 -65 47 -25 12 -45 28 -45 35 0 32 41 206 59 253 32 82 74 142 97 142 7 0
26 -16 42 -36z m-215 -396 c44 -9 70 -22 101 -50 l41 -37 -25 -23 c-71 -64
-63 -63 -107 -18 -42 41 -68 49 -105 29 -27 -14 -38 2 -38 58 0 55 25 63 133
41z m-7 -142 c29 -29 34 -40 28 -63 -10 -42 -32 -55 -83 -49 -59 8 -84 31 -76
70 8 36 47 76 77 76 11 0 35 -15 54 -34z m-127 -123 c-1 -10 -4 -29 -8 -43
-10 -35 -24 -8 -16 30 7 32 26 42 24 13z m155 -19 c3 -8 3 -27 0 -41 -7 -26
-7 -26 -19 8 -6 19 -10 37 -8 42 7 12 21 8 27 -9z"/>
<path d="M1330 1025 c0 -8 5 -15 10 -15 6 0 10 7 10 15 0 8 -4 15 -10 15 -5 0
-10 -7 -10 -15z"/>
<path d="M1406 1021 c-4 -7 -5 -15 -2 -18 9 -9 19 4 14 18 -4 11 -6 11 -12 0z"/>
<path d="M1761 1348 c-51 -145 -121 -249 -216 -316 -25 -17 -28 -24 -19 -39
14 -23 69 -51 118 -58 36 -6 38 -8 33 -38 -2 -18 -10 -46 -18 -64 -12 -30 -11
-33 25 -73 28 -32 36 -47 31 -64 -12 -40 -20 -131 -15 -161 3 -20 12 -31 25
-33 18 -2 20 3 20 47 0 42 4 54 24 67 13 9 30 32 38 51 13 31 12 43 -3 108
-16 68 -16 75 -1 114 22 54 22 57 -8 83 -30 26 -31 43 -5 176 24 123 27 262 6
262 -8 0 -23 -27 -35 -62z m10 -197 c-27 -140 -27 -157 5 -186 l26 -24 -17
-49 c-17 -47 -17 -53 -1 -119 16 -64 16 -74 2 -100 -8 -16 -22 -36 -31 -43
-10 -8 -21 -23 -26 -35 -10 -21 -5 54 7 107 5 22 -1 34 -30 64 -41 42 -40 40
-21 74 16 28 19 78 7 98 -5 7 -31 16 -58 21 -46 7 -94 28 -94 42 0 3 17 18 38
33 22 15 56 47 77 71 39 44 105 159 105 182 0 6 6 24 12 40 12 28 13 27 16
-20 2 -27 -6 -97 -17 -156z"/>
</g>
</svg>
