<?xml version="1.0" standalone="no"?>
<!DOCTYPE svg PUBLIC "-//W3C//DTD SVG 20010904//EN"
 "http://www.w3.org/TR/2001/REC-SVG-20010904/DTD/svg10.dtd">
<svg version="1.0" xmlns="http://www.w3.org/2000/svg"
 width="300.000000pt" height="240.000000pt" viewBox="0 0 300.000000 240.000000"
 preserveAspectRatio="xMidYMid meet">

<g transform="translate(0.000000,240.000000) scale(0.100000,-0.100000)"
fill="#ffffff" stroke="none">
<path d="M1605 2151 c-33 -10 -94 -33 -135 -51 -123 -52 -176 -69 -376 -115
-214 -49 -211 -49 -346 -122 -53 -29 -103 -53 -111 -53 -23 0 -27 -32 -27
-262 0 -232 11 -312 49 -352 11 -12 29 -43 40 -69 12 -27 40 -69 63 -93 24
-25 64 -67 90 -94 44 -46 46 -51 53 -124 6 -60 3 -94 -13 -163 -42 -177 -37
-200 55 -267 113 -83 159 -96 400 -119 29 -3 84 -20 122 -37 82 -38 92 -39
195 -11 86 23 151 60 206 116 19 19 54 45 77 56 30 15 54 37 77 73 51 79 138
144 206 155 47 8 67 50 79 167 6 49 21 138 35 199 22 93 26 136 26 281 l1 172
-32 73 c-31 70 -33 82 -38 229 -3 85 -9 160 -13 166 -5 7 -31 20 -59 30 -35
13 -65 34 -94 66 -29 33 -54 50 -85 58 -24 6 -66 25 -95 41 -60 34 -190 69
-249 68 -23 0 -68 -9 -101 -18z m201 -16 c33 -7 98 -32 144 -54 46 -23 92 -41
101 -41 27 0 36 -19 64 -150 50 -239 58 -266 101 -361 62 -136 63 -132 -48
-127 -51 3 -101 8 -110 12 -13 6 -18 4 -18 -7 0 -18 49 -27 154 -27 l79 0 -7
-47 c-4 -27 -11 -142 -15 -258 -5 -152 -12 -220 -23 -245 -14 -34 -44 -168
-40 -182 1 -4 -24 -15 -56 -23 -31 -9 -70 -21 -87 -26 -36 -11 -95 -67 -95
-88 0 -36 -51 -120 -102 -167 -62 -59 -116 -89 -185 -104 -26 -6 -57 -15 -69
-21 -17 -9 -40 -3 -120 29 -54 22 -153 60 -219 85 -74 28 -153 67 -205 101
-47 31 -102 59 -122 62 -35 6 -38 9 -38 41 0 19 9 71 21 116 16 64 20 98 15
155 -4 39 -3 72 1 72 31 0 98 -28 153 -64 142 -93 164 -106 184 -106 12 0 32
-7 44 -16 19 -13 22 -13 22 -1 0 14 -25 27 -80 43 -13 4 -36 14 -50 24 -14 9
-51 34 -83 55 -31 20 -57 38 -57 39 0 0 62 1 138 0 107 0 145 -4 174 -17 47
-21 112 -22 191 -1 69 18 134 15 217 -10 52 -16 59 -16 114 1 63 18 154 91
180 142 35 69 24 132 -29 167 -21 14 -36 14 -118 4 -81 -10 -98 -10 -124 3
-27 14 -36 14 -84 2 -70 -19 -93 -19 -132 1 -24 13 -59 17 -147 17 -147 0
-179 -10 -215 -68 -28 -44 -43 -53 -121 -74 -23 -6 -48 -18 -55 -27 -13 -16
-15 -78 -4 -113 5 -17 3 -17 -47 0 -29 10 -60 18 -69 19 -23 0 -191 184 -211
232 -10 22 -27 53 -38 68 -34 48 -50 118 -50 226 0 82 3 104 16 115 9 8 41 45
70 84 30 38 78 102 109 142 30 40 64 77 75 83 11 6 18 15 15 21 -9 14 -54 -25
-105 -91 -120 -158 -161 -210 -171 -215 -6 -4 -9 32 -7 105 l3 112 130 69
c125 65 140 70 330 114 146 33 241 61 350 104 222 88 248 93 361 66z m416
-218 l56 -25 4 -154 c3 -146 5 -156 34 -223 32 -72 49 -135 36 -135 -4 0 -20
8 -37 19 -23 14 -41 44 -77 127 -25 60 -49 118 -52 129 -9 31 -66 308 -66 319
0 5 10 0 23 -11 12 -11 47 -32 79 -46z m109 -547 c17 -10 19 -22 19 -143 0
-96 -6 -155 -20 -217 -11 -47 -25 -116 -30 -155 -29 -199 -35 -215 -77 -215
-19 0 -23 4 -19 18 3 9 12 46 21 82 8 36 22 90 30 120 10 37 15 103 15 210 0
171 16 310 35 310 4 0 15 -5 26 -10z m-749 -244 c46 -20 68 -20 137 -2 46 12
57 12 83 -1 25 -13 44 -14 126 -3 l96 12 29 -32 c24 -26 27 -37 21 -68 -8 -43
-11 -50 -44 -88 -45 -52 -88 -81 -142 -98 -49 -15 -57 -15 -108 0 -84 25 -142
27 -219 10 -93 -21 -140 -20 -202 5 -47 18 -65 19 -170 13 -130 -7 -129 -8
-131 66 -1 42 16 57 76 70 53 11 81 32 120 90 9 14 31 30 50 35 54 16 234 10
278 -9z m509 -556 c-23 -17 -57 -55 -76 -85 -31 -48 -75 -88 -75 -69 0 4 10
33 21 65 22 61 54 90 117 109 51 16 55 10 13 -20z m-1050 -153 c46 -31 116
-68 154 -83 75 -29 108 -49 65 -40 -14 3 -58 10 -98 15 -54 7 -88 18 -129 43
-64 38 -143 105 -143 120 0 23 72 -3 151 -55z"/>
<path d="M1505 1808 c-4 -13 -31 -75 -60 -138 -64 -137 -78 -214 -51 -284 22
-58 65 -80 147 -74 147 11 166 140 55 376 -31 65 -56 124 -56 130 0 21 -28 13
-35 -10z m77 -143 c65 -140 78 -209 53 -272 -19 -47 -47 -63 -111 -63 -143 0
-162 125 -53 351 29 60 53 108 54 106 1 -1 27 -56 57 -122z"/>
<path d="M1443 1463 c-21 -8 -15 -52 12 -78 29 -30 37 -31 59 -6 16 18 16 20
-8 44 -14 15 -26 31 -26 37 0 10 -16 12 -37 3z m41 -48 c14 -21 14 -25 2 -25
-13 0 -36 28 -36 44 0 15 19 4 34 -19z"/>
<path d="M1418 1073 c-32 -8 -58 -19 -58 -24 0 -12 1 -12 81 8 38 9 69 20 69
25 0 11 -25 9 -92 -9z"/>
<path d="M1815 1020 c-54 -11 -74 -19 -63 -24 20 -9 178 23 178 35 0 12 -18
10 -115 -11z"/>
<path d="M1287 973 c-44 -8 -74 -19 -71 -25 3 -5 18 -7 32 -4 120 23 142 29
142 37 0 11 -6 11 -103 -8z"/>
<path d="M1533 947 c-36 -14 -53 -27 -33 -27 20 0 94 22 105 32 13 12 -35 8
-72 -5z"/>
</g>
</svg>
