<?xml version="1.0" standalone="no"?>
<!DOCTYPE svg PUBLIC "-//W3C//DTD SVG 20010904//EN"
 "http://www.w3.org/TR/2001/REC-SVG-20010904/DTD/svg10.dtd">
<svg version="1.0" xmlns="http://www.w3.org/2000/svg"
 width="300.000000pt" height="240.000000pt" viewBox="0 0 300.000000 240.000000"
 preserveAspectRatio="xMidYMid meet">

<g transform="translate(0.000000,240.000000) scale(0.100000,-0.100000)"
fill="#ffffff" stroke="none">
<path d="M1605 2151 c-33 -10 -94 -33 -135 -51 -123 -52 -176 -69 -376 -115
-214 -49 -211 -49 -346 -122 -53 -29 -103 -53 -111 -53 -23 0 -27 -32 -27
-262 0 -232 11 -312 49 -352 11 -12 29 -43 40 -69 12 -27 40 -69 63 -93 24
-25 64 -67 90 -94 44 -46 46 -51 53 -124 6 -60 3 -94 -13 -163 -42 -177 -37
-200 55 -267 113 -83 159 -96 400 -119 29 -3 84 -20 122 -37 82 -38 92 -39
195 -11 86 23 151 60 206 116 19 19 54 45 77 56 30 15 54 37 77 73 51 79 138
144 206 155 47 8 67 50 79 167 6 49 21 138 35 199 22 93 26 136 26 281 l1 172
-32 73 c-31 70 -33 82 -38 229 -3 85 -9 160 -13 166 -5 7 -31 20 -59 30 -35
13 -65 34 -94 66 -29 33 -54 50 -85 58 -24 6 -66 25 -95 41 -60 34 -190 69
-249 68 -23 0 -68 -9 -101 -18z m201 -16 c33 -7 98 -32 144 -54 46 -23 92 -41
101 -41 27 0 36 -19 64 -150 50 -239 58 -266 101 -361 62 -136 63 -132 -48
-127 -51 3 -101 8 -110 12 -13 6 -18 4 -18 -7 0 -18 49 -27 154 -27 l79 0 -7
-47 c-4 -27 -11 -142 -15 -258 -5 -152 -12 -220 -23 -245 -14 -34 -44 -168
-40 -182 1 -4 -24 -15 -56 -23 -31 -9 -70 -21 -87 -26 -36 -11 -95 -67 -95
-88 0 -36 -51 -120 -102 -167 -62 -59 -116 -89 -185 -104 -26 -6 -57 -15 -69
-21 -17 -9 -40 -3 -120 29 -54 22 -153 60 -219 85 -74 28 -153 67 -205 101
-47 31 -102 59 -122 62 -35 6 -38 9 -38 41 0 19 9 71 21 116 16 64 20 98 15
155 -4 39 -3 72 1 72 31 0 98 -28 153 -64 142 -93 164 -106 184 -106 12 0 32
-7 44 -16 19 -13 22 -13 22 -1 0 14 -25 27 -80 43 -13 4 -36 15 -50 24 -122
83 -190 121 -237 131 -49 11 -60 20 -141 106 -48 52 -95 112 -104 135 -10 22
-27 53 -38 68 -34 48 -50 118 -50 226 0 82 3 104 16 115 9 8 41 45 70 84 30
38 78 102 109 142 30 40 64 77 75 83 11 6 18 15 15 21 -9 14 -54 -25 -105 -91
-120 -158 -161 -210 -171 -215 -6 -4 -9 32 -7 105 l3 112 130 69 c125 65 140
70 330 114 146 33 241 61 350 104 222 88 248 93 361 66z m416 -218 l56 -25 4
-154 c3 -146 5 -156 34 -223 32 -72 49 -135 36 -135 -4 0 -20 8 -37 19 -23 14
-41 44 -77 127 -25 60 -49 118 -52 129 -9 31 -66 308 -66 319 0 5 10 0 23 -11
12 -11 47 -32 79 -46z m109 -547 c17 -10 19 -22 19 -143 0 -96 -6 -155 -20
-217 -11 -47 -25 -116 -30 -155 -29 -199 -35 -215 -77 -215 -19 0 -23 4 -19
18 3 9 12 46 21 82 8 36 22 90 30 120 10 37 15 103 15 210 0 171 16 310 35
310 4 0 15 -5 26 -10z m-240 -800 c-23 -17 -57 -55 -76 -85 -31 -48 -75 -88
-75 -69 0 4 10 33 21 65 22 61 54 90 117 109 51 16 55 10 13 -20z m-1050 -153
c46 -31 116 -68 154 -83 75 -29 108 -49 65 -40 -14 3 -58 10 -98 15 -54 7 -88
18 -129 43 -64 38 -143 105 -143 120 0 23 72 -3 151 -55z"/>
<path d="M1400 1663 c-125 -81 -227 -253 -266 -451 -17 -91 -17 -154 1 -255
26 -148 81 -214 158 -190 19 6 97 8 187 5 269 -7 375 23 496 142 84 83 105
157 65 234 -39 77 -109 115 -207 115 -62 0 -120 -22 -130 -48 -5 -11 -11 -11
-39 1 -44 18 -108 18 -144 -1 l-29 -14 -6 52 c-4 29 -9 66 -12 83 -5 29 -3 32
28 38 38 7 81 46 97 89 6 16 11 53 11 83 0 50 -4 59 -37 94 -30 32 -47 41 -83
46 -38 5 -52 1 -90 -23z m124 -7 c48 -20 66 -51 66 -116 0 -97 -54 -157 -135
-148 -45 6 -62 -5 -27 -16 14 -5 22 -24 30 -70 17 -90 15 -108 -14 -164 -14
-28 -23 -56 -19 -62 4 -7 17 9 30 39 51 108 171 123 268 33 20 -19 27 -22 27
-10 0 8 -9 23 -20 33 -19 17 -19 20 -4 36 9 10 39 23 68 28 126 26 246 -56
246 -168 0 -55 -48 -128 -118 -181 -101 -75 -157 -91 -342 -97 -85 -3 -182 0
-215 5 -49 8 -62 7 -68 -4 -10 -18 -47 -18 -73 1 -56 39 -97 244 -76 381 32
206 151 411 277 477 38 20 57 21 99 3z"/>
<path d="M1753 1593 c-7 -2 -13 -15 -13 -29 0 -18 -9 -27 -36 -39 -35 -14 -35
-15 -32 -67 3 -48 5 -53 28 -57 29 -4 40 -17 40 -47 0 -24 29 -34 70 -24 18 4
26 14 30 35 4 23 11 31 30 34 31 4 40 17 40 61 0 44 -8 57 -43 65 -21 6 -27
13 -27 35 0 35 -42 52 -87 33z m67 -48 c0 -30 3 -35 23 -35 36 0 49 -14 45
-51 -3 -29 -7 -35 -33 -39 -25 -4 -30 -10 -33 -38 -3 -28 -7 -32 -32 -32 -25
0 -30 5 -36 35 -5 31 -10 35 -36 35 -28 0 -29 1 -26 43 3 37 6 42 30 45 22 3
29 10 34 38 5 29 10 34 35 34 26 0 29 -3 29 -35z"/>
</g>
</svg>
