<?xml version="1.0" standalone="no"?>
<!DOCTYPE svg PUBLIC "-//W3C//DTD SVG 20010904//EN"
 "http://www.w3.org/TR/2001/REC-SVG-20010904/DTD/svg10.dtd">
<svg version="1.0" xmlns="http://www.w3.org/2000/svg"
 width="300.000000pt" height="240.000000pt" viewBox="0 0 300.000000 240.000000"
 preserveAspectRatio="xMidYMid meet">

<g transform="translate(0.000000,240.000000) scale(0.100000,-0.100000)"
fill="#ffffff" stroke="none">
<path d="M1605 2151 c-33 -10 -94 -33 -135 -51 -123 -52 -176 -69 -376 -115
-214 -49 -211 -49 -346 -122 -53 -29 -103 -53 -111 -53 -23 0 -27 -32 -27
-262 0 -232 11 -312 49 -352 11 -12 29 -43 40 -69 12 -27 40 -69 63 -93 24
-25 64 -67 90 -94 44 -46 46 -51 53 -124 6 -60 3 -94 -13 -163 -42 -177 -37
-200 55 -267 113 -83 159 -96 400 -119 29 -3 84 -20 122 -37 82 -38 92 -39
195 -11 86 23 151 60 206 116 19 19 54 45 77 56 30 15 54 37 77 73 51 79 138
144 206 155 47 8 67 50 79 167 6 49 21 138 35 199 22 93 26 136 26 281 l1 172
-32 73 c-31 70 -33 82 -38 229 -3 85 -9 160 -13 166 -5 7 -31 20 -59 30 -35
13 -65 34 -94 66 -29 33 -54 50 -85 58 -24 6 -66 25 -95 41 -60 34 -190 69
-249 68 -23 0 -68 -9 -101 -18z m201 -16 c33 -7 98 -32 144 -54 46 -23 92 -41
101 -41 27 0 36 -19 64 -150 50 -239 58 -266 101 -361 62 -136 63 -132 -48
-127 -51 3 -101 8 -110 12 -13 6 -18 4 -18 -7 0 -18 49 -27 154 -27 l79 0 -7
-47 c-4 -27 -11 -142 -15 -258 -5 -152 -12 -220 -23 -245 -14 -34 -44 -168
-40 -182 1 -4 -24 -15 -56 -23 -31 -9 -70 -21 -87 -26 -36 -11 -95 -67 -95
-88 0 -36 -51 -120 -102 -167 -62 -59 -116 -89 -185 -104 -26 -6 -57 -15 -69
-21 -17 -9 -40 -3 -120 29 -54 22 -153 60 -219 85 -74 28 -153 67 -205 101
-47 31 -102 59 -122 62 -35 6 -38 9 -38 41 0 19 9 71 21 116 16 64 20 98 15
155 -4 39 -3 72 1 72 31 0 98 -28 153 -64 142 -93 164 -106 184 -106 12 0 32
-7 44 -16 19 -13 22 -13 22 -1 0 14 -25 27 -80 43 -13 4 -36 15 -50 24 -122
83 -190 121 -237 131 -49 11 -60 20 -141 106 -48 52 -95 112 -104 135 -10 22
-27 53 -38 68 -34 48 -50 118 -50 226 0 82 3 104 16 115 9 8 41 45 70 84 30
38 78 102 109 142 30 40 64 77 75 83 11 6 18 15 15 21 -9 14 -54 -25 -105 -91
-120 -158 -161 -210 -171 -215 -6 -4 -9 32 -7 105 l3 112 130 69 c125 65 140
70 330 114 146 33 241 61 350 104 222 88 248 93 361 66z m416 -218 l56 -25 4
-154 c3 -146 5 -156 34 -223 32 -72 49 -135 36 -135 -4 0 -20 8 -37 19 -23 14
-41 44 -77 127 -25 60 -49 118 -52 129 -9 31 -66 308 -66 319 0 5 10 0 23 -11
12 -11 47 -32 79 -46z m109 -547 c17 -10 19 -22 19 -143 0 -96 -6 -155 -20
-217 -11 -47 -25 -116 -30 -155 -29 -199 -35 -215 -77 -215 -19 0 -23 4 -19
18 3 9 12 46 21 82 8 36 22 90 30 120 10 37 15 103 15 210 0 171 16 310 35
310 4 0 15 -5 26 -10z m-240 -800 c-23 -17 -57 -55 -76 -85 -31 -48 -75 -88
-75 -69 0 4 10 33 21 65 22 61 54 90 117 109 51 16 55 10 13 -20z m-1050 -153
c46 -31 116 -68 154 -83 75 -29 108 -49 65 -40 -14 3 -58 10 -98 15 -54 7 -88
18 -129 43 -64 38 -143 105 -143 120 0 23 72 -3 151 -55z"/>
<path d="M1775 1732 c-27 -36 -69 -91 -93 -120 -46 -57 -49 -89 -4 -36 35 39
166 207 170 217 2 4 -2 7 -10 7 -7 -1 -35 -31 -63 -68z"/>
<path d="M1420 1666 c-65 -18 -140 -53 -140 -65 0 -14 17 -14 25 -1 8 13 160
60 196 60 18 0 28 4 24 10 -8 13 -49 11 -105 -4z"/>
<path d="M1553 1572 c3 -51 12 -108 19 -128 11 -32 15 -35 43 -30 16 3 54 8
83 12 34 4 50 10 44 16 -6 6 -33 6 -73 0 -36 -6 -68 -6 -73 -2 -12 12 -25 91
-25 157 -1 28 -6 55 -13 59 -8 5 -10 -16 -5 -84z"/>
<path d="M940 1638 c1 -7 26 -33 58 -58 31 -25 87 -74 124 -109 37 -34 72 -61
79 -59 6 2 -26 37 -72 78 -46 41 -104 94 -130 118 -49 44 -59 50 -59 30z"/>
<path d="M1254 1583 c16 -54 36 -159 36 -188 0 -48 -26 -60 -126 -59 l-81 1
-2 -57 c-1 -33 7 -83 19 -121 11 -35 20 -74 20 -86 0 -32 14 -36 70 -17 43 14
57 15 98 4 26 -7 52 -17 59 -22 16 -13 36 -143 29 -194 -4 -30 -2 -44 8 -47
22 -9 320 55 342 73 10 9 9 17 -6 43 -16 28 -40 125 -40 163 0 18 93 54 139
54 22 0 42 3 44 8 3 4 -8 49 -24 100 -15 51 -34 120 -40 155 -7 34 -16 66 -21
72 -18 21 -6 -64 23 -164 48 -161 47 -151 6 -151 -33 0 -118 -30 -143 -51 -12
-10 18 -175 36 -193 6 -6 10 -13 10 -16 0 -10 -62 -27 -181 -50 -57 -12 -112
-23 -121 -26 -14 -4 -16 0 -11 30 8 51 -16 192 -36 209 -30 26 -112 40 -165
26 -26 -6 -48 -10 -50 -8 -1 2 -12 38 -24 79 -22 76 -28 137 -14 155 4 6 36
10 72 11 36 0 79 7 95 15 26 12 30 21 33 59 4 58 -31 210 -49 210 -6 0 -8 -8
-5 -17z"/>
<path d="M1449 1388 c0 -2 -1 -19 -3 -40 -4 -55 -26 -97 -58 -114 -34 -18 -28
-34 13 -34 40 0 79 -39 79 -80 0 -16 5 -30 10 -30 6 0 10 16 10 35 0 54 24
101 62 122 l33 18 -32 3 c-37 4 -81 49 -90 93 -3 16 -9 29 -14 29 -5 0 -9 -1
-10 -2z m55 -170 l-17 -36 -33 20 -33 19 22 44 22 43 28 -27 c28 -28 28 -28
11 -63z"/>
<path d="M1762 1053 c-17 -6 -5 -23 17 -23 10 0 70 -30 135 -66 65 -36 122
-64 128 -62 13 5 -11 21 -131 88 -107 59 -131 69 -149 63z"/>
<path d="M1216 909 c-15 -39 -25 -73 -22 -77 8 -7 8 -7 39 64 28 64 33 84 19
84 -5 0 -21 -32 -36 -71z"/>
<path d="M1122 703 c-18 -35 -44 -124 -38 -130 8 -9 10 -7 38 75 14 39 22 72
17 72 -5 0 -12 -8 -17 -17z"/>
</g>
</svg>
