<?xml version="1.0" standalone="no"?>
<!DOCTYPE svg PUBLIC "-//W3C//DTD SVG 20010904//EN"
 "http://www.w3.org/TR/2001/REC-SVG-20010904/DTD/svg10.dtd">
<svg version="1.0" xmlns="http://www.w3.org/2000/svg"
 width="300.000000pt" height="480.000000pt" viewBox="0 0 300.000000 480.000000"
 preserveAspectRatio="xMidYMid meet">

<g transform="translate(0.000000,480.000000) scale(0.100000,-0.100000)"
fill="#ffffff" stroke="none">
<path d="M1382 3734 c-68 -14 -140 -59 -183 -115 -64 -83 -128 -365 -127 -562
0 -120 -1 -130 -22 -152 -34 -36 -16 -66 57 -100 72 -35 189 -47 199 -22 3 9
-1 24 -10 32 -9 9 -18 26 -21 38 -32 143 -32 139 13 159 113 49 184 63 312 62
150 0 210 -14 210 -48 0 -51 -21 -131 -40 -151 -23 -25 -18 -51 11 -60 36 -12
117 25 174 77 45 41 55 56 55 83 0 18 -6 38 -14 44 -7 6 -16 31 -19 55 -14
101 -99 413 -139 507 -43 101 -43 102 -93 121 -101 40 -260 54 -363 32z m241
-19 c41 -6 143 -37 153 -48 7 -7 57 -124 76 -177 32 -91 108 -419 108 -465 0
-36 -6 -49 -32 -76 -29 -29 -108 -73 -116 -65 -2 2 2 34 9 71 6 37 9 93 6 123
-8 78 -57 173 -113 218 -31 26 -42 40 -34 48 13 13 13 26 0 26 -5 0 -10 -7
-10 -15 0 -18 -8 -18 -40 0 -42 24 -146 19 -208 -10 -72 -33 -145 -109 -165
-171 -27 -80 -32 -179 -13 -268 9 -43 16 -80 16 -83 0 -7 -41 4 -104 28 -42
15 -54 25 -55 42 -12 173 -9 291 10 392 33 178 72 287 122 338 23 24 55 52 71
62 57 38 179 49 319 30z m22 -394 c28 -16 62 -42 76 -57 33 -36 75 -118 83
-162 5 -29 4 -33 -13 -27 -11 3 -45 10 -78 15 -144 24 -282 4 -446 -65 -17 -7
-18 -4 -12 51 11 86 40 148 96 198 88 79 206 98 294 47z m304 -407 c-52 -53
-132 -90 -163 -76 -20 9 -19 10 9 17 77 20 182 97 186 138 1 7 4 1 6 -12 4
-18 -6 -34 -38 -67z m-821 -72 c49 -22 100 -38 142 -45 14 -2 4 -5 -22 -6 -51
-1 -143 29 -180 58 -20 17 -21 21 -8 37 14 16 15 16 18 -3 2 -13 20 -27 50
-41z"/>
<path d="M1675 3639 c-50 -15 -265 -38 -343 -36 -39 1 -72 -1 -72 -5 0 -38
441 2 465 42 7 12 -9 12 -50 -1z"/>
<path d="M1725 3590 c3 -5 8 -10 11 -10 2 0 4 5 4 10 0 6 -5 10 -11 10 -5 0
-7 -4 -4 -10z"/>
<path d="M1776 3571 c-4 -5 -2 -12 3 -15 5 -4 12 -2 15 3 4 5 2 12 -3 15 -5 4
-12 2 -15 -3z"/>
<path d="M1620 3556 c0 -9 5 -16 10 -16 6 0 10 4 10 9 0 6 -4 13 -10 16 -5 3
-10 -1 -10 -9z"/>
<path d="M1490 3549 c0 -5 5 -7 10 -4 6 3 10 8 10 11 0 2 -4 4 -10 4 -5 0 -10
-5 -10 -11z"/>
<path d="M1230 3534 c0 -8 5 -12 10 -9 6 4 8 11 5 16 -9 14 -15 11 -15 -7z"/>
<path d="M1340 3530 c0 -5 5 -10 10 -10 6 0 10 5 10 10 0 6 -4 10 -10 10 -5 0
-10 -4 -10 -10z"/>
<path d="M1695 3530 c-3 -5 1 -10 10 -10 9 0 13 5 10 10 -3 6 -8 10 -10 10 -2
0 -7 -4 -10 -10z"/>
<path d="M1630 3505 c0 -8 9 -15 20 -15 24 0 27 15 4 24 -22 9 -24 8 -24 -9z"/>
<path d="M1562 3499 c2 -6 8 -10 13 -10 5 0 11 4 13 10 2 6 -4 11 -13 11 -9 0
-15 -5 -13 -11z"/>
<path d="M1296 3482 c-3 -6 -1 -14 5 -17 15 -10 25 3 12 16 -7 7 -13 7 -17 1z"/>
<path d="M1390 3475 c0 -8 5 -15 10 -15 6 0 10 7 10 15 0 8 -4 15 -10 15 -5 0
-10 -7 -10 -15z"/>
<path d="M1805 3470 c-3 -5 -1 -10 4 -10 6 0 11 5 11 10 0 6 -2 10 -4 10 -3 0
-8 -4 -11 -10z"/>
<path d="M1500 3450 c0 -5 7 -10 16 -10 8 0 12 5 9 10 -3 6 -10 10 -16 10 -5
0 -9 -4 -9 -10z"/>
<path d="M1650 3451 c0 -6 5 -13 10 -16 6 -3 10 1 10 9 0 9 -4 16 -10 16 -5 0
-10 -4 -10 -9z"/>
<path d="M1190 3435 c0 -8 5 -15 10 -15 6 0 10 7 10 15 0 8 -4 15 -10 15 -5 0
-10 -7 -10 -15z"/>
<path d="M1260 3434 c0 -8 5 -12 10 -9 6 3 10 10 10 16 0 5 -4 9 -10 9 -5 0
-10 -7 -10 -16z"/>
<path d="M1350 3424 c0 -8 5 -12 10 -9 6 4 8 11 5 16 -9 14 -15 11 -15 -7z"/>
<path d="M1585 3430 c3 -5 8 -10 11 -10 2 0 4 5 4 10 0 6 -5 10 -11 10 -5 0
-7 -4 -4 -10z"/>
<path d="M1766 3432 c-3 -6 -1 -14 5 -17 15 -10 25 3 12 16 -7 7 -13 7 -17 1z"/>
<path d="M1420 3415 c0 -8 5 -15 10 -15 6 0 10 7 10 15 0 8 -4 15 -10 15 -5 0
-10 -7 -10 -15z"/>
<path d="M1722 3401 c4 -13 18 -16 19 -4 0 4 -5 9 -11 12 -7 2 -11 -2 -8 -8z"/>
<path d="M1826 3401 c-4 -5 -2 -12 3 -15 5 -4 12 -2 15 3 4 5 2 12 -3 15 -5 4
-12 2 -15 -3z"/>
<path d="M1280 3385 c0 -8 5 -15 10 -15 6 0 10 7 10 15 0 8 -4 15 -10 15 -5 0
-10 -7 -10 -15z"/>
<path d="M1180 3356 c0 -9 7 -16 16 -16 9 0 14 5 12 12 -6 18 -28 21 -28 4z"/>
<path d="M1360 3360 c0 -5 5 -10 10 -10 6 0 10 5 10 10 0 6 -4 10 -10 10 -5 0
-10 -4 -10 -10z"/>
<path d="M1750 3350 c0 -5 5 -10 10 -10 6 0 10 5 10 10 0 6 -4 10 -10 10 -5 0
-10 -4 -10 -10z"/>
<path d="M1840 3340 c0 -5 7 -10 15 -10 8 0 15 5 15 10 0 6 -7 10 -15 10 -8 0
-15 -4 -15 -10z"/>
<path d="M1260 3310 c0 -5 7 -10 16 -10 8 0 12 5 9 10 -3 6 -10 10 -16 10 -5
0 -9 -4 -9 -10z"/>
<path d="M1805 3300 c-3 -5 1 -10 10 -10 9 0 13 5 10 10 -3 6 -8 10 -10 10 -2
0 -7 -4 -10 -10z"/>
<path d="M1170 3276 c0 -9 5 -16 10 -16 6 0 10 4 10 9 0 6 -4 13 -10 16 -5 3
-10 -1 -10 -9z"/>
<path d="M1140 3190 c0 -11 4 -20 9 -20 11 0 22 26 14 34 -12 12 -23 5 -23
-14z"/>
<path d="M1220 3199 c0 -5 5 -7 10 -4 6 3 10 8 10 11 0 2 -4 4 -10 4 -5 0 -10
-5 -10 -11z"/>
<path d="M1930 2713 c-36 -13 -69 -59 -89 -121 l-22 -67 -175 3 c-171 4 -186
2 -361 -36 -20 -4 -23 0 -23 31 0 91 -28 137 -85 137 -44 0 -88 -38 -121 -102
-29 -58 -46 -144 -35 -183 5 -20 -1 -42 -21 -83 -32 -62 -36 -118 -13 -163 16
-29 15 -31 -20 -72 -34 -39 -36 -45 -30 -91 7 -54 20 -85 44 -102 13 -10 11
-17 -18 -49 -38 -44 -37 -75 3 -128 24 -32 25 -34 10 -76 -20 -59 -10 -94 37
-134 21 -19 39 -36 39 -39 0 -3 -13 -8 -29 -11 -35 -7 -39 -17 -47 -117 -7
-78 -6 -79 22 -105 33 -29 136 -85 158 -85 7 0 36 -7 64 -16 28 -9 61 -14 74
-11 26 7 58 62 58 102 0 13 5 27 11 31 8 5 10 -3 5 -27 -20 -110 -21 -102 22
-141 39 -35 93 -58 139 -58 57 0 120 46 154 113 l19 37 -22 31 c-19 26 -23 43
-23 106 0 52 4 78 13 80 9 4 12 -16 12 -76 0 -62 4 -87 20 -114 20 -33 22 -34
73 -30 119 10 234 56 257 103 15 30 27 125 20 154 -5 17 -11 44 -14 60 -6 23
-11 27 -31 23 -38 -7 -30 7 26 48 82 59 109 142 69 220 -20 39 -20 39 0 72 26
45 26 103 -1 137 -18 23 -19 28 -5 41 16 17 36 77 36 111 0 12 -5 35 -11 53
-10 28 -9 35 10 55 27 28 27 54 0 111 -21 44 -21 47 -5 141 12 73 13 101 5
117 -48 92 -133 144 -199 120z m95 -30 c21 -10 48 -36 65 -64 l30 -46 -21
-129 c-12 -71 -26 -133 -30 -138 -18 -21 -20 6 -5 86 25 133 23 178 -7 223
-15 22 -44 50 -64 62 -45 27 -21 31 32 6z m-125 -59 c-11 -25 -20 -57 -20 -70
0 -22 -24 -43 -35 -32 -7 6 25 98 43 126 25 38 32 24 12 -24z m95 30 c45 -29
69 -81 66 -143 -1 -30 -4 -58 -7 -60 -3 -3 -24 4 -47 16 -23 12 -59 28 -79 37
-39 15 -39 16 -16 96 11 36 35 70 50 70 5 0 20 -7 33 -16z m-873 -75 c-47 -61
-47 -61 -50 -150 -3 -62 1 -102 11 -134 13 -38 14 -45 2 -45 -8 0 -19 18 -25
43 -6 23 -15 57 -20 75 -18 69 21 193 76 242 55 48 58 35 6 -31z m107 20 c6
-18 10 -55 10 -83 l-1 -51 -9 55 c-5 30 -16 64 -24 77 -19 28 -19 33 -1 33 8
0 19 -14 25 -31z m-34 -19 c3 -10 10 -42 14 -70 6 -37 5 -50 -4 -50 -7 0 -36
-16 -64 -35 l-51 -35 0 50 c0 54 8 75 47 128 27 36 49 41 58 12z m670 -84 c27
-4 80 -21 118 -39 57 -27 67 -35 63 -52 -3 -11 -6 -25 -6 -32 0 -6 -15 -17
-34 -23 -19 -6 -40 -18 -46 -26 -17 -19 -157 -61 -272 -80 -137 -23 -455 -23
-524 0 -48 16 -52 20 -64 62 -12 42 -11 46 9 68 46 49 184 106 311 129 34 7
383 1 445 -7z m265 -224 c1 -28 -48 -75 -105 -102 -75 -36 -200 -85 -257 -101
-83 -22 -269 -35 -388 -27 -242 17 -317 35 -370 88 -25 25 -26 84 -4 140 27
68 37 54 38 -55 1 -48 2 -50 31 -53 17 -2 39 4 50 11 17 13 18 18 7 41 -14 31
-15 30 34 9 32 -13 74 -16 234 -16 268 1 451 33 567 99 23 13 46 24 51 24 11
0 4 -38 -10 -57 -13 -17 12 -53 37 -53 28 0 45 19 45 50 0 14 3 36 7 50 l7 25
12 -30 c7 -17 13 -36 14 -43z m-62 -9 c-5 -26 -38 -29 -38 -4 0 15 6 21 21 21
14 0 19 -5 17 -17z m-958 -48 c16 -20 1 -38 -28 -33 -16 2 -18 7 -11 26 10 26
22 28 39 7z m996 -70 c3 -13 1 -47 -6 -75 -10 -43 -19 -55 -57 -81 -58 -40
-224 -113 -304 -133 -111 -27 -264 -39 -439 -33 -163 6 -235 18 -296 50 -35
18 -40 26 -49 90 -7 42 -5 48 28 83 l34 38 66 -22 c68 -22 270 -43 412 -43
169 0 372 48 515 122 69 35 88 36 96 4z m-22 -197 c25 -35 19 -78 -16 -132
-53 -79 -212 -155 -412 -196 -73 -15 -127 -18 -276 -16 -201 3 -291 18 -362
63 -36 22 -68 67 -68 95 0 12 55 78 65 78 2 0 30 -7 62 -16 80 -21 351 -30
490 -15 155 16 242 41 369 104 60 29 114 54 121 55 6 1 19 -8 27 -20z m7 -215
c23 -61 -7 -137 -72 -183 l-29 -22 -20 24 c-20 23 -21 22 -23 -22 -2 -20 -12
-29 -61 -48 -89 -36 -122 -39 -131 -13 -9 30 -28 26 -23 -4 3 -14 1 -25 -6
-25 -6 0 -40 -5 -75 -10 -56 -8 -66 -7 -77 8 -12 16 -13 16 -19 0 -6 -14 -19
-18 -65 -18 -37 0 -60 5 -63 13 -4 9 -8 9 -14 1 -4 -6 -33 -14 -65 -18 -53 -7
-57 -6 -63 15 -7 22 -8 22 -21 5 -12 -17 -19 -17 -81 -6 -105 18 -105 19 -99
45 8 31 -10 41 -24 14 l-12 -21 -25 24 c-40 37 -45 53 -32 104 10 40 14 45 33
39 141 -46 158 -48 371 -49 142 0 228 4 265 13 164 39 277 82 356 136 47 32
62 32 75 -2z m-157 -272 c-10 -9 -134 -41 -156 -41 -7 1 25 13 72 29 82 27
104 30 84 12z m94 -50 c7 -28 7 -52 1 -68 -5 -13 -9 -39 -9 -56 0 -26 -8 -37
-39 -59 -46 -33 -136 -58 -206 -58 -46 0 -53 3 -63 25 -7 14 -12 61 -12 105 0
74 1 79 23 82 12 2 28 -4 34 -12 11 -13 13 -12 19 6 4 16 23 25 88 42 46 12
96 29 112 37 34 17 38 14 52 -44z m-840 -2 c44 -7 72 -17 72 -25 0 -14 -63 -9
-124 12 -22 7 -43 11 -48 8 -4 -3 -8 2 -8 11 0 11 6 15 18 11 9 -2 50 -10 90
-17z m547 2 c-8 -8 -131 -41 -151 -41 -2 0 -4 7 -4 15 0 8 13 16 33 19 107 18
134 19 122 7z m-682 -13 c12 -7 31 -13 42 -15 53 -6 160 -35 166 -45 6 -9 12
-8 23 1 12 10 18 9 35 -8 24 -24 27 -64 10 -140 -12 -57 -38 -86 -71 -78 -131
30 -238 79 -259 119 -14 26 -3 159 14 170 15 10 15 10 40 -4z m355 -21 c3 -16
-3 -18 -54 -15 -61 3 -85 23 -37 31 55 9 88 3 91 -16z m152 9 c0 -22 -112 -37
-125 -16 -13 21 8 30 66 30 43 0 59 -4 59 -14z m75 -99 c0 -49 6 -83 18 -106
24 -47 22 -55 -20 -102 -46 -51 -74 -62 -137 -53 -38 5 -59 15 -89 44 -40 37
-40 37 -29 81 6 24 8 77 5 117 -5 60 -3 72 10 72 8 0 17 -7 21 -15 3 -8 10
-15 16 -15 5 0 10 7 10 15 0 10 10 15 29 15 16 0 43 3 60 6 26 5 31 3 31 -12
1 -17 2 -17 13 -3 12 16 32 27 52 28 6 1 10 -29 10 -72z"/>
</g>
</svg>
