<?xml version="1.0" standalone="no"?>
<!DOCTYPE svg PUBLIC "-//W3C//DTD SVG 20010904//EN"
 "http://www.w3.org/TR/2001/REC-SVG-20010904/DTD/svg10.dtd">
<svg version="1.0" xmlns="http://www.w3.org/2000/svg"
 width="300.000000pt" height="480.000000pt" viewBox="0 0 300.000000 480.000000"
 preserveAspectRatio="xMidYMid meet">

<g transform="translate(0.000000,480.000000) scale(0.100000,-0.100000)"
fill="#ffffff" stroke="none">
<path d="M1342 3473 c-13 -3 -40 -21 -60 -41 -46 -46 -72 -124 -72 -214 l0
-65 -56 -7 c-143 -17 -207 -107 -175 -243 23 -96 -26 -221 -129 -327 -95 -98
-120 -169 -80 -226 18 -26 19 -31 6 -71 -32 -101 -60 -167 -91 -219 -67 -113
-85 -157 -85 -214 0 -143 80 -268 190 -295 34 -9 64 -24 80 -41 14 -15 43 -38
65 -52 37 -24 52 -26 180 -31 118 -5 152 -10 210 -32 103 -38 172 -56 246 -62
56 -5 79 -1 156 25 50 17 124 33 164 37 41 4 123 23 183 42 96 31 115 42 154
82 60 61 142 187 143 220 1 14 3 57 5 94 4 57 0 76 -17 107 -19 34 -20 39 -6
61 9 13 23 52 32 87 14 55 15 94 6 315 -6 139 -15 270 -21 292 -5 22 -14 92
-20 155 -22 274 -31 337 -56 410 -14 41 -32 82 -40 91 -22 24 -94 57 -139 63
-92 13 -264 -48 -337 -119 -40 -39 -68 -108 -68 -165 0 -44 -3 -48 -35 -42
-20 3 -25 10 -25 34 0 16 -28 85 -61 154 -66 133 -102 176 -166 193 -39 11
-42 11 -81 4z m51 -20 c4 -3 0 -14 -8 -22 -27 -31 -85 -198 -85 -247 0 -38 -3
-45 -16 -40 -9 3 -24 6 -35 6 -41 0 -17 192 33 255 29 37 94 66 111 48z m100
-53 c19 -23 45 -64 58 -93 13 -28 36 -76 52 -105 15 -30 27 -67 27 -83 0 -28
-2 -29 -44 -29 -43 0 -44 1 -50 38 -20 112 -73 193 -136 207 -36 8 -37 15 -8
66 29 52 56 51 101 -1z m510 -58 c-32 -27 -70 -67 -86 -89 -30 -43 -67 -140
-67 -174 0 -17 -5 -20 -22 -16 -13 3 -40 9 -60 12 -37 7 -38 8 -38 54 0 58 38
141 76 168 65 45 179 92 227 93 26 0 25 -3 -30 -48z m208 15 c26 -17 40 -39
61 -97 28 -75 36 -133 58 -410 5 -63 14 -133 20 -155 13 -49 33 -517 25 -564
-4 -19 -16 -59 -27 -89 l-21 -55 -13 31 c-25 60 -52 208 -41 227 6 12 7 95 2
234 -4 119 -8 297 -9 396 -1 152 -4 186 -20 220 -10 22 -31 76 -47 120 -31 84
-65 129 -106 139 -38 10 -16 26 36 26 33 0 58 -7 82 -23z m-88 -46 c19 -17 39
-48 47 -73 7 -24 27 -74 44 -113 31 -69 31 -72 32 -250 0 -99 4 -263 8 -365
l8 -185 -22 42 c-12 23 -43 63 -70 90 -68 68 -72 83 -64 239 4 72 4 142 1 156
-4 14 -23 33 -47 47 -22 12 -40 29 -40 37 0 28 -79 102 -117 109 -35 6 -35 7
-30 45 11 83 78 193 142 231 42 26 69 24 108 -10z m-715 0 c54 -28 72 -52 93
-128 11 -37 19 -71 19 -75 0 -14 -50 -8 -127 15 l-75 22 5 55 c5 51 31 130 43
130 2 0 21 -9 42 -19z m-8 -211 c43 -13 114 -24 209 -30 171 -11 351 -52 351
-78 0 -4 -14 -16 -30 -25 -32 -19 -49 -47 -77 -124 -15 -39 -17 -75 -15 -203
3 -180 -7 -242 -53 -325 -37 -67 -102 -114 -191 -140 -74 -21 -334 -68 -341
-61 -3 3 9 43 26 88 38 94 52 198 31 223 -18 22 -57 11 -97 -27 -39 -37 -59
-78 -74 -146 l-10 -51 -53 34 c-29 18 -89 43 -136 55 -199 52 -217 118 -76
270 77 82 105 131 133 230 14 51 15 69 5 106 -31 117 5 191 108 223 52 16 214
5 290 -19z m600 -221 c0 -56 -4 -73 -20 -89 -24 -24 -62 -40 -96 -40 -20 0
-24 5 -24 30 0 49 54 156 86 173 43 22 54 7 54 -74z m55 -1 c35 -16 39 -40 31
-184 -9 -157 -2 -184 68 -252 63 -61 86 -104 86 -160 0 -74 50 -281 75 -312
37 -45 45 -79 40 -161 -3 -45 -12 -96 -20 -113 -24 -50 -119 -169 -154 -193
-49 -33 -207 -81 -293 -88 -45 -4 -113 -19 -160 -36 -46 -16 -102 -29 -126
-29 -57 0 -164 25 -264 61 -70 26 -101 31 -217 36 -148 6 -172 14 -226 68 -21
21 -58 41 -99 55 -82 27 -136 84 -160 170 -27 96 -22 148 25 237 23 43 49 89
58 103 10 14 30 61 46 105 15 44 32 90 36 102 8 21 9 21 56 6 26 -8 71 -20 98
-27 52 -13 134 -56 156 -82 9 -11 7 -37 -10 -127 -29 -143 -50 -191 -112 -248
-44 -41 -50 -51 -52 -90 -2 -42 0 -44 27 -47 109 -13 215 112 241 283 16 107
26 135 48 135 12 0 66 9 120 20 53 11 127 24 163 30 77 12 175 58 220 102 18
16 47 62 65 101 l34 72 0 158 -1 157 28 0 c46 0 108 30 123 61 8 15 15 44 15
64 0 40 0 39 35 23z m-761 -529 c-1 -51 -9 -82 -41 -154 -21 -49 -45 -117 -51
-150 -6 -33 -16 -85 -22 -115 -27 -140 -112 -240 -206 -240 -25 0 -26 2 -20
32 4 21 23 48 51 73 58 53 88 123 114 260 28 150 51 245 67 276 17 33 82 91
97 86 8 -2 12 -28 11 -68z"/>
<path d="M1254 2813 c2 -10 7 -27 10 -39 4 -11 -1 -40 -9 -64 -18 -50 -18 -50
-6 -50 5 0 16 21 25 47 12 36 14 55 6 85 -6 21 -15 38 -21 38 -6 0 -8 -8 -5
-17z"/>
<path d="M1985 2345 l-7 -95 43 -77 c43 -78 44 -79 44 -180 0 -94 -2 -103 -24
-127 -14 -14 -21 -29 -17 -33 14 -15 55 46 62 93 13 90 0 164 -45 250 l-42 79
7 93 c4 59 3 92 -4 92 -5 0 -13 -43 -17 -95z"/>
<path d="M804 1935 c-20 -30 -44 -110 -44 -145 0 -38 23 -65 46 -55 17 7 17 9
2 12 -38 9 -34 86 8 162 27 49 28 51 14 51 -5 0 -17 -11 -26 -25z"/>
<path d="M1695 1845 c6 -68 4 -88 -15 -137 -12 -32 -29 -62 -38 -67 -9 -5 -14
-12 -11 -15 14 -14 39 8 61 52 19 39 23 63 22 135 0 57 -5 92 -13 100 -10 10
-11 -4 -6 -68z"/>
</g>
</svg>
