<?xml version="1.0" standalone="no"?>
<!DOCTYPE svg PUBLIC "-//W3C//DTD SVG 20010904//EN"
 "http://www.w3.org/TR/2001/REC-SVG-20010904/DTD/svg10.dtd">
<svg version="1.0" xmlns="http://www.w3.org/2000/svg"
 width="300.000000pt" height="240.000000pt" viewBox="0 0 300.000000 240.000000"
 preserveAspectRatio="xMidYMid meet">

<g transform="translate(0.000000,240.000000) scale(0.100000,-0.100000)"
fill="#ffffff" stroke="none">
<path d="M365 1993 c3 -10 15 -49 26 -88 10 -38 31 -100 45 -138 25 -66 30
-71 100 -115 40 -26 72 -51 70 -57 -1 -5 -31 -15 -66 -20 -66 -11 -81 -24 -59
-51 10 -12 24 -15 61 -10 31 4 48 3 48 -4 0 -5 -9 -10 -21 -10 -51 0 -113
-117 -107 -202 5 -77 53 -59 120 44 28 44 30 55 25 103 -7 65 9 91 64 100 29
5 41 2 65 -18 16 -13 52 -29 79 -37 85 -22 162 -48 187 -63 12 -7 51 -25 86
-38 85 -32 341 -240 409 -332 19 -26 44 -53 54 -61 11 -7 43 -44 72 -82 64
-83 93 -104 187 -134 61 -20 83 -34 148 -95 52 -48 103 -84 155 -110 58 -28
91 -53 125 -92 48 -54 115 -171 106 -184 -9 -15 16 -19 72 -13 41 5 65 14 81
30 30 30 29 34 -8 75 -17 19 -52 61 -77 94 -25 33 -57 73 -71 88 -48 52 -347
240 -401 252 -38 8 -203 148 -262 221 l-48 59 -1 100 c0 55 -4 120 -7 145 -7
44 -7 45 29 61 44 20 71 73 77 152 l4 57 -29 0 c-47 0 -82 -51 -96 -140 -3
-21 -6 -17 -17 23 -35 120 -49 -8 -25 -228 11 -109 -13 -108 -148 9 -49 42
-119 91 -156 109 -96 47 -139 83 -168 140 -19 38 -24 63 -22 101 6 138 -14
221 -61 246 -35 19 -50 -3 -50 -74 0 -64 22 -127 55 -160 14 -14 19 -34 19
-89 1 -38 6 -72 11 -74 7 -2 9 13 8 39 l-4 43 23 -42 c30 -55 86 -102 176
-147 40 -20 115 -72 166 -115 126 -106 134 -110 159 -80 17 21 18 33 13 89 -4
36 -9 92 -12 125 l-4 60 16 -40 c11 -27 18 -87 21 -184 l6 -143 65 -74 c35
-41 67 -74 71 -74 4 0 31 -22 61 -50 30 -27 75 -59 100 -70 136 -63 334 -186
408 -254 19 -17 48 -51 65 -76 17 -25 48 -65 69 -89 21 -24 38 -50 38 -57 0
-18 -26 -30 -82 -38 -42 -6 -48 -5 -48 10 0 26 -57 122 -106 179 -31 37 -68
64 -132 98 -50 26 -105 63 -124 81 -64 65 -120 106 -161 117 -99 26 -144 56
-192 130 -26 38 -55 74 -66 79 -10 6 -38 34 -60 63 -45 56 -140 144 -268 247
-89 72 -236 143 -381 186 -47 14 -101 36 -121 49 -43 30 -43 30 -146 4 -48
-12 -90 -18 -100 -14 -13 6 -3 11 35 17 86 13 138 48 95 62 -10 4 -49 28 -88
54 -68 47 -71 50 -98 127 -15 43 -25 80 -23 82 4 5 58 -73 81 -117 8 -15 31
-39 52 -51 44 -27 209 -103 262 -120 43 -14 125 -55 164 -82 16 -10 31 -16 34
-13 14 14 -108 84 -200 116 -34 12 -73 27 -87 35 -14 7 -60 29 -102 49 -43 21
-85 47 -93 59 -50 72 -110 168 -131 210 -23 44 -54 68 -39 30z m670 -175 c7
-18 16 -55 19 -83 6 -49 6 -49 -8 -20 -24 52 -46 135 -35 135 6 0 16 -15 24
-32z m-21 -75 c13 -46 21 -83 16 -83 -15 0 -50 99 -49 142 0 24 2 39 4 33 2
-5 15 -47 29 -92z m663 -171 c-9 -10 -23 -36 -31 -58 -17 -45 -21 -35 -6 15
10 35 39 75 48 66 3 -3 -2 -13 -11 -23z m11 -90 c-25 -50 -55 -72 -43 -31 4
13 19 49 33 79 25 51 27 53 30 27 2 -16 -7 -49 -20 -75z m-1168 -87 c-40 -81
-56 -77 -19 5 18 41 49 84 55 78 1 -2 -15 -39 -36 -83z m70 29 c0 -36 -36
-100 -79 -138 -26 -24 -26 -20 0 40 61 142 79 165 79 98z"/>
<path d="M792 968 c-47 -76 -91 -184 -102 -249 -7 -39 -9 -73 -5 -77 3 -4 25
-13 47 -22 30 -11 58 -35 103 -89 64 -78 97 -100 155 -100 48 -1 64 12 66 51
3 46 48 83 121 98 88 18 92 22 80 69 -8 28 -7 61 3 123 16 104 7 198 -18 198
-9 0 -26 -7 -36 -15 -28 -21 -80 -19 -128 6 -33 17 -46 19 -65 10 -37 -17 -89
-13 -135 9 -55 27 -63 26 -86 -12z m79 -8 c24 -11 63 -20 86 -20 31 0 45 -5
53 -19 18 -34 11 -86 -15 -125 -14 -20 -25 -41 -25 -46 0 -16 20 -11 26 5 4
10 13 13 26 9 21 -6 98 23 98 38 0 12 -18 10 -52 -8 -36 -19 -56 -7 -39 24 15
27 14 105 -1 120 -22 22 1 24 45 3 51 -25 97 -27 137 -6 l29 15 7 -36 c4 -20
3 -64 -2 -98 -5 -33 -8 -93 -9 -133 l0 -72 -35 -6 c-19 -4 -44 -9 -55 -11 -16
-4 -25 3 -39 32 -19 41 -17 44 34 74 28 16 2 21 -29 6 -16 -9 -48 -16 -71 -16
-22 0 -40 -4 -40 -10 0 -5 15 -10 34 -10 30 0 36 -4 50 -41 l16 -40 -34 -40
c-18 -22 -36 -53 -40 -69 -5 -25 -10 -30 -35 -30 -47 0 -93 28 -130 78 -32 42
-33 47 -17 56 54 32 59 41 48 77 -6 19 -16 54 -22 78 -7 26 -15 40 -21 34 -5
-5 -1 -35 10 -76 l20 -67 -22 -15 c-28 -20 -29 -20 -98 13 l-60 27 6 40 c13
82 51 181 98 252 12 18 23 33 23 33 1 0 21 -9 45 -20z"/>
</g>
</svg>
