<?xml version="1.0" standalone="no"?>
<!DOCTYPE svg PUBLIC "-//W3C//DTD SVG 20010904//EN"
 "http://www.w3.org/TR/2001/REC-SVG-20010904/DTD/svg10.dtd">
<svg version="1.0" xmlns="http://www.w3.org/2000/svg"
 width="400.000000pt" height="320.000000pt" viewBox="0 0 400.000000 320.000000"
 preserveAspectRatio="xMidYMid meet">

<g transform="translate(0.000000,320.000000) scale(0.100000,-0.100000)"
fill="#ffffff" stroke="none">
<path d="M2595 2586 c-25 -38 -15 -107 24 -162 17 -25 31 -54 31 -65 0 -29
-26 -86 -55 -121 -14 -16 -25 -38 -25 -49 0 -25 23 -71 45 -89 27 -23 29 -2 1
30 -34 40 -33 63 3 108 17 20 36 58 42 84 14 50 13 52 -36 133 -27 43 -31 78
-15 121 14 36 6 42 -15 10z"/>
<path d="M2459 2072 c-52 -30 -93 -79 -349 -417 -95 -126 -209 -273 -251 -326
-94 -117 -119 -156 -119 -190 0 -18 -34 -68 -112 -165 -261 -325 -288 -360
-288 -372 0 -38 61 33 300 347 85 112 122 153 141 157 33 7 75 51 165 169 37
50 100 129 138 176 127 153 271 332 340 421 64 84 108 118 148 118 20 0 68 45
68 64 0 7 -18 12 -41 13 -23 1 -49 9 -58 18 -23 20 -28 19 -82 -13z m114 -21
c52 -11 39 -28 -40 -52 -35 -10 -53 -25 -100 -87 -32 -41 -98 -124 -148 -184
-49 -60 -111 -137 -137 -170 -26 -33 -67 -83 -91 -112 -24 -28 -82 -100 -129
-161 -103 -132 -129 -158 -151 -149 -35 13 -35 12 218 339 64 83 149 193 187
245 128 171 248 318 266 324 9 3 28 13 42 21 17 10 28 11 37 3 7 -6 28 -14 46
-17z"/>
<path d="M2471 2016 c-19 -23 2 -26 29 -5 24 18 24 19 4 19 -12 0 -27 -6 -33
-14z"/>
<path d="M2394 1945 c-9 -14 -14 -28 -11 -32 7 -6 46 36 47 50 0 16 -20 6 -36
-18z"/>
<path d="M2310 1849 c-15 -28 -4 -38 15 -13 17 22 19 34 5 34 -5 0 -14 -9 -20
-21z"/>
<path d="M2202 1697 c-12 -13 -22 -30 -22 -38 1 -15 50 35 50 52 0 13 -4 11
-28 -14z"/>
<path d="M2100 1581 c-20 -39 -4 -43 23 -6 15 21 16 25 3 25 -8 0 -20 -9 -26
-19z"/>
<path d="M2013 1453 c-14 -5 -18 -33 -5 -33 4 0 13 9 20 20 12 20 8 23 -15 13z"/>
<path d="M1902 1328 c-13 -13 -16 -38 -4 -38 4 0 15 12 25 25 13 19 15 25 4
25 -7 0 -18 -5 -25 -12z"/>
<path d="M1813 1205 c-8 -22 6 -33 17 -15 13 20 12 30 0 30 -6 0 -13 -7 -17
-15z"/>
</g>
</svg>
