<?xml version="1.0" standalone="no"?>
<!DOCTYPE svg PUBLIC "-//W3C//DTD SVG 20010904//EN"
 "http://www.w3.org/TR/2001/REC-SVG-20010904/DTD/svg10.dtd">
<svg version="1.0" xmlns="http://www.w3.org/2000/svg"
 width="300.000000pt" height="240.000000pt" viewBox="0 0 300.000000 240.000000"
 preserveAspectRatio="xMidYMid meet">

<g transform="translate(0.000000,240.000000) scale(0.100000,-0.100000)"
fill="#ffffff" stroke="none">
<path d="M1605 2151 c-33 -10 -94 -33 -135 -51 -123 -52 -176 -69 -376 -115
-214 -49 -211 -49 -346 -122 -53 -29 -103 -53 -111 -53 -23 0 -27 -32 -27
-262 0 -232 11 -312 49 -352 11 -12 29 -43 40 -69 12 -27 40 -69 63 -93 24
-25 64 -67 90 -94 44 -46 46 -51 53 -124 6 -60 3 -94 -13 -163 -42 -177 -37
-200 55 -267 113 -83 159 -96 400 -119 29 -3 84 -20 122 -37 82 -38 92 -39
195 -11 86 23 151 60 206 116 19 19 54 45 77 56 30 15 54 37 77 73 51 79 138
144 206 155 47 8 67 50 79 167 6 49 21 138 35 199 22 93 26 136 26 281 l1 172
-32 73 c-31 70 -33 82 -38 229 -3 85 -9 160 -13 166 -5 7 -31 20 -59 30 -35
13 -65 34 -94 66 -29 33 -54 50 -85 58 -24 6 -66 25 -95 41 -60 34 -190 69
-249 68 -23 0 -68 -9 -101 -18z m201 -16 c33 -7 98 -32 144 -54 46 -23 92 -41
101 -41 27 0 36 -19 64 -150 50 -239 58 -266 101 -361 62 -136 63 -132 -48
-127 -51 3 -101 8 -110 12 -13 6 -18 4 -18 -7 0 -18 49 -27 154 -27 l79 0 -7
-47 c-4 -27 -11 -142 -15 -258 -5 -152 -12 -220 -23 -245 -14 -34 -44 -168
-40 -182 1 -4 -24 -15 -56 -23 -31 -9 -70 -21 -87 -26 -36 -11 -95 -67 -95
-88 0 -36 -51 -120 -102 -167 -62 -59 -116 -89 -185 -104 -26 -6 -57 -15 -69
-21 -17 -9 -40 -3 -120 29 -54 22 -153 60 -219 85 -74 28 -153 67 -205 101
-47 31 -102 59 -122 62 -35 6 -38 9 -38 41 0 19 9 71 21 116 16 64 20 98 15
155 -4 39 -3 72 1 72 31 0 98 -28 153 -64 142 -93 164 -106 184 -106 12 0 32
-7 44 -16 19 -13 22 -13 22 -1 0 14 -25 27 -80 43 -13 4 -36 15 -50 24 -122
83 -190 121 -237 131 -49 11 -60 20 -141 106 -48 52 -95 112 -104 135 -10 22
-27 53 -38 68 -34 48 -50 118 -50 226 0 82 3 104 16 115 9 8 41 45 70 84 30
38 78 102 109 142 30 40 64 77 75 83 11 6 18 15 15 21 -9 14 -54 -25 -105 -91
-120 -158 -161 -210 -171 -215 -6 -4 -9 32 -7 105 l3 112 130 69 c125 65 140
70 330 114 146 33 241 61 350 104 222 88 248 93 361 66z m416 -218 l56 -25 4
-154 c3 -146 5 -156 34 -223 32 -72 49 -135 36 -135 -4 0 -20 8 -37 19 -23 14
-41 44 -77 127 -25 60 -49 118 -52 129 -9 31 -66 308 -66 319 0 5 10 0 23 -11
12 -11 47 -32 79 -46z m109 -547 c17 -10 19 -22 19 -143 0 -96 -6 -155 -20
-217 -11 -47 -25 -116 -30 -155 -29 -199 -35 -215 -77 -215 -19 0 -23 4 -19
18 3 9 12 46 21 82 8 36 22 90 30 120 10 37 15 103 15 210 0 171 16 310 35
310 4 0 15 -5 26 -10z m-240 -800 c-23 -17 -57 -55 -76 -85 -31 -48 -75 -88
-75 -69 0 4 10 33 21 65 22 61 54 90 117 109 51 16 55 10 13 -20z m-1050 -153
c46 -31 116 -68 154 -83 75 -29 108 -49 65 -40 -14 3 -58 10 -98 15 -54 7 -88
18 -129 43 -64 38 -143 105 -143 120 0 23 72 -3 151 -55z"/>
<path d="M1700 1810 c0 -5 20 -10 45 -10 25 0 45 5 45 10 0 6 -20 10 -45 10
-25 0 -45 -4 -45 -10z"/>
<path d="M1246 1801 c-11 -4 -15 -10 -10 -13 14 -8 84 3 84 13 0 11 -47 11
-74 0z"/>
<path d="M1675 1770 c-4 -6 20 -10 64 -10 41 0 71 4 71 10 0 6 -28 10 -64 10
-36 0 -68 -4 -71 -10z"/>
<path d="M1258 1763 c-38 -4 -54 -23 -19 -23 44 0 110 13 105 21 -5 9 -16 9
-86 2z"/>
<path d="M1415 1733 c-157 -9 -215 -16 -215 -24 0 -6 38 -8 98 -4 167 10 252
13 395 14 89 1 136 5 132 11 -6 9 -277 11 -410 3z"/>
<path d="M1340 1683 c-172 -4 -201 -23 -35 -23 212 0 525 13 525 22 0 7 -175
8 -490 1z"/>
<path d="M1363 1637 c-83 -7 -155 -15 -158 -19 -10 -10 609 3 620 13 5 5 -18
9 -55 9 -36 0 -108 2 -160 4 -52 2 -163 -1 -247 -7z"/>
<path d="M1373 1577 c-68 -5 -123 -13 -123 -17 0 -11 513 1 525 11 5 5 -33 9
-92 9 -55 0 -120 2 -144 4 -24 2 -99 -1 -166 -7z"/>
<path d="M1490 1535 c-8 -2 -54 -7 -102 -10 -50 -4 -88 -11 -88 -17 0 -7 26
-8 78 -3 42 4 141 7 220 6 88 0 142 3 142 9 0 6 -30 10 -67 10 -38 0 -90 2
-118 4 -27 3 -57 3 -65 1z"/>
<path d="M1465 1489 c-22 -4 -61 -8 -87 -8 -27 -1 -48 -5 -48 -11 0 -6 70 -7
188 -3 176 5 201 8 191 17 -9 8 -206 12 -244 5z"/>
<path d="M1425 1438 c-84 -8 -104 -13 -94 -21 9 -8 379 6 379 14 0 5 -35 9
-77 9 -43 0 -87 2 -98 4 -11 2 -60 -1 -110 -6z"/>
<path d="M1415 1393 c-91 -4 -148 -14 -139 -22 5 -5 61 -5 124 0 63 4 173 8
243 8 83 1 126 5 122 11 -6 9 -195 11 -350 3z"/>
<path d="M1385 1338 c-60 -5 -114 -14 -120 -20 -7 -7 23 -7 95 -2 58 5 178 7
268 6 110 -2 162 0 162 7 0 7 -36 11 -97 12 -54 1 -120 2 -148 4 -27 1 -99 -2
-160 -7z"/>
<path d="M1430 1293 c-25 -3 -49 -8 -53 -13 -5 -4 61 -7 147 -6 146 1 178 5
140 20 -16 6 -155 5 -234 -1z"/>
<path d="M1745 1280 c3 -5 17 -10 31 -10 13 0 24 5 24 10 0 6 -14 10 -31 10
-17 0 -28 -4 -24 -10z"/>
<path d="M1255 1270 c-4 -6 7 -10 24 -10 17 0 31 5 31 10 0 6 -11 10 -24 10
-14 0 -28 -4 -31 -10z"/>
<path d="M1402 1233 c-33 -13 7 -18 127 -15 73 2 131 7 131 13 0 9 -234 12
-258 2z"/>
<path d="M1730 1230 c0 -5 18 -10 40 -10 22 0 40 5 40 10 0 6 -18 10 -40 10
-22 0 -40 -4 -40 -10z"/>
<path d="M1245 1220 c-4 -6 12 -10 40 -10 28 0 44 4 40 10 -3 6 -21 10 -40 10
-19 0 -37 -4 -40 -10z"/>
<path d="M1438 1183 c-55 -8 -27 -21 40 -18 37 2 91 4 120 4 28 1 52 6 52 11
0 10 -153 12 -212 3z"/>
<path d="M1735 1180 c-4 -6 12 -10 40 -10 28 0 44 4 40 10 -3 6 -21 10 -40 10
-19 0 -37 -4 -40 -10z"/>
<path d="M1265 1170 c-22 -5 -26 -9 -15 -14 17 -7 56 -4 65 6 10 10 -19 14
-50 8z"/>
<path d="M1455 1133 c-73 -11 -36 -20 75 -19 115 1 145 7 98 20 -25 6 -124 6
-173 -1z"/>
<path d="M1740 1130 c0 -5 16 -10 35 -10 19 0 35 5 35 10 0 6 -16 10 -35 10
-19 0 -35 -4 -35 -10z"/>
<path d="M1260 1120 c-21 -13 -10 -18 27 -13 18 3 30 9 27 14 -7 12 -35 11
-54 -1z"/>
<path d="M1453 1083 c-36 -2 -63 -9 -63 -15 0 -7 39 -8 123 -4 67 3 130 6 140
6 10 0 16 4 13 9 -6 9 -90 10 -213 4z"/>
<path d="M1750 1080 c0 -5 16 -10 36 -10 21 0 33 4 29 10 -3 6 -19 10 -36 10
-16 0 -29 -4 -29 -10z"/>
<path d="M1250 1060 c0 -5 13 -10 29 -10 17 0 33 5 36 10 4 6 -8 10 -29 10
-20 0 -36 -4 -36 -10z"/>
<path d="M1730 1030 c0 -5 18 -10 40 -10 22 0 40 5 40 10 0 6 -18 10 -40 10
-22 0 -40 -4 -40 -10z"/>
<path d="M1283 1023 c-13 -2 -23 -9 -23 -15 0 -6 12 -8 31 -4 17 3 36 6 41 6
5 0 6 5 3 10 -6 10 -13 11 -52 3z"/>
<path d="M1408 1023 c-58 -9 -25 -21 45 -17 39 2 107 4 150 4 44 0 77 4 77 10
0 10 -212 12 -272 3z"/>
<path d="M1435 971 c-27 -3 -45 -9 -39 -13 14 -9 274 3 274 14 0 9 -155 8
-235 -1z"/>
<path d="M1720 970 c0 -5 18 -10 40 -10 22 0 40 5 40 10 0 6 -18 10 -40 10
-22 0 -40 -4 -40 -10z"/>
<path d="M1275 960 c-4 -6 10 -10 35 -10 25 0 39 4 35 10 -3 6 -19 10 -35 10
-16 0 -32 -4 -35 -10z"/>
<path d="M1435 933 c-39 -6 -58 -23 -24 -23 45 0 99 12 93 21 -5 9 -15 9 -69
2z"/>
<path d="M1570 930 c0 -5 25 -10 56 -10 34 0 53 4 49 10 -3 6 -28 10 -56 10
-27 0 -49 -4 -49 -10z"/>
<path d="M1576 892 c-6 -10 92 -27 102 -17 9 9 -1 13 -49 20 -27 4 -49 3 -53
-3z"/>
<path d="M1395 880 c-4 -6 15 -10 49 -10 30 0 58 5 61 10 4 6 -15 10 -49 10
-30 0 -58 -4 -61 -10z"/>
<path d="M1423 843 c-13 -2 -23 -9 -23 -15 0 -6 12 -8 31 -4 17 3 42 6 56 6
14 0 21 4 18 10 -6 10 -40 11 -82 3z"/>
<path d="M1570 840 c0 -5 25 -10 55 -10 30 0 55 5 55 10 0 6 -25 10 -55 10
-30 0 -55 -4 -55 -10z"/>
<path d="M1570 800 c-18 -11 -20 -11 53 -16 34 -3 57 0 57 6 0 5 -8 10 -19 10
-10 0 -31 2 -47 5 -16 3 -36 1 -44 -5z"/>
<path d="M1418 793 c-10 -2 -18 -8 -18 -13 0 -11 101 -1 115 11 9 9 -65 11
-97 2z"/>
<path d="M1425 753 c-41 -10 -41 -26 0 -19 22 3 48 6 58 6 10 0 15 5 12 10 -6
10 -35 11 -70 3z"/>
<path d="M1580 750 c0 -5 25 -10 56 -10 34 0 53 4 49 10 -3 6 -28 10 -56 10
-27 0 -49 -4 -49 -10z"/>
<path d="M1418 703 c-10 -2 -18 -9 -18 -15 0 -6 10 -8 23 -4 12 3 32 6 45 6
12 0 22 5 22 10 0 10 -40 12 -72 3z"/>
<path d="M1595 700 c3 -5 26 -10 51 -10 28 0 43 4 39 10 -3 6 -26 10 -51 10
-28 0 -43 -4 -39 -10z"/>
<path d="M1625 670 c-4 -6 5 -10 19 -10 14 0 26 5 26 10 0 6 -9 10 -19 10 -11
0 -23 -4 -26 -10z"/>
<path d="M1410 660 c0 -5 14 -10 31 -10 17 0 28 4 24 10 -3 6 -17 10 -31 10
-13 0 -24 -4 -24 -10z"/>
</g>
</svg>
