<?xml version="1.0" standalone="no"?>
<!DOCTYPE svg PUBLIC "-//W3C//DTD SVG 20010904//EN"
 "http://www.w3.org/TR/2001/REC-SVG-20010904/DTD/svg10.dtd">
<svg version="1.0" xmlns="http://www.w3.org/2000/svg"
 width="300.000000pt" height="240.000000pt" viewBox="0 0 300.000000 240.000000"
 preserveAspectRatio="xMidYMid meet">

<g transform="translate(0.000000,240.000000) scale(0.100000,-0.100000)"
fill="#ffffff" stroke="none">
<path d="M1605 2151 c-33 -10 -94 -33 -135 -51 -123 -52 -176 -69 -376 -115
-214 -49 -211 -49 -346 -122 -53 -29 -103 -53 -111 -53 -23 0 -27 -32 -27
-262 0 -232 11 -312 49 -352 11 -12 29 -43 40 -69 12 -27 40 -69 63 -93 24
-25 64 -67 90 -94 44 -46 46 -51 53 -124 6 -60 3 -94 -13 -163 -42 -177 -37
-200 55 -267 113 -83 159 -96 400 -119 29 -3 84 -20 122 -37 82 -38 92 -39
195 -11 86 23 151 60 206 116 19 19 54 45 77 56 30 15 54 37 77 73 51 79 138
144 206 155 47 8 67 50 79 167 6 49 21 138 35 199 22 93 26 136 26 281 l1 172
-32 73 c-31 70 -33 82 -38 229 -3 85 -9 160 -13 166 -5 7 -31 20 -59 30 -35
13 -65 34 -94 66 -29 33 -54 50 -85 58 -24 6 -66 25 -95 41 -60 34 -190 69
-249 68 -23 0 -68 -9 -101 -18z m201 -16 c33 -7 98 -32 144 -54 46 -23 92 -41
101 -41 27 0 36 -19 64 -150 50 -239 58 -266 101 -361 62 -136 63 -132 -48
-127 -51 3 -101 8 -110 12 -13 6 -18 4 -18 -7 0 -18 49 -27 154 -27 l79 0 -7
-47 c-4 -27 -11 -142 -15 -258 -5 -152 -12 -220 -23 -245 -14 -34 -44 -168
-40 -182 1 -4 -24 -15 -56 -23 -31 -9 -70 -21 -87 -26 -36 -11 -95 -67 -95
-88 0 -36 -51 -120 -102 -167 -62 -59 -116 -89 -185 -104 -26 -6 -57 -15 -69
-21 -17 -9 -40 -3 -120 29 -54 22 -153 60 -219 85 -74 28 -153 67 -205 101
-47 31 -102 59 -122 62 -35 6 -38 9 -38 41 0 19 9 71 21 116 16 64 20 98 15
155 -4 39 -3 72 1 72 31 0 98 -28 153 -64 142 -93 164 -106 184 -106 12 0 32
-7 44 -16 19 -13 22 -13 22 -1 0 14 -25 27 -80 43 -13 4 -36 15 -50 24 -122
83 -190 121 -237 131 -49 11 -60 20 -141 106 -48 52 -95 112 -104 135 -10 22
-27 53 -38 68 -34 48 -50 118 -50 226 0 82 3 104 16 115 9 8 41 45 70 84 30
38 78 102 109 142 30 40 64 77 75 83 11 6 18 15 15 21 -9 14 -54 -25 -105 -91
-120 -158 -161 -210 -171 -215 -6 -4 -9 32 -7 105 l3 112 130 69 c125 65 140
70 330 114 146 33 241 61 350 104 222 88 248 93 361 66z m416 -218 l56 -25 4
-154 c3 -146 5 -156 34 -223 32 -72 49 -135 36 -135 -4 0 -20 8 -37 19 -23 14
-41 44 -77 127 -25 60 -49 118 -52 129 -9 31 -66 308 -66 319 0 5 10 0 23 -11
12 -11 47 -32 79 -46z m109 -547 c17 -10 19 -22 19 -143 0 -96 -6 -155 -20
-217 -11 -47 -25 -116 -30 -155 -29 -199 -35 -215 -77 -215 -19 0 -23 4 -19
18 3 9 12 46 21 82 8 36 22 90 30 120 10 37 15 103 15 210 0 171 16 310 35
310 4 0 15 -5 26 -10z m-240 -800 c-23 -17 -57 -55 -76 -85 -31 -48 -75 -88
-75 -69 0 4 10 33 21 65 22 61 54 90 117 109 51 16 55 10 13 -20z m-1050 -153
c46 -31 116 -68 154 -83 75 -29 108 -49 65 -40 -14 3 -58 10 -98 15 -54 7 -88
18 -129 43 -64 38 -143 105 -143 120 0 23 72 -3 151 -55z"/>
<path d="M1040 1672 c0 -14 120 -125 127 -118 4 4 -20 33 -52 66 -57 57 -75
70 -75 52z"/>
<path d="M1395 1657 c-83 -31 -118 -51 -150 -89 -40 -47 -81 -140 -106 -238
-20 -79 -21 -93 -11 -205 11 -112 48 -281 72 -326 9 -15 22 -19 66 -19 48 0
61 -5 102 -35 38 -30 47 -33 54 -21 5 9 2 81 -7 168 l-17 153 -38 33 c-69 59
-73 180 -10 282 15 25 31 60 35 79 7 32 6 34 -19 29 -35 -7 -33 4 10 42 44 38
73 50 124 50 51 0 80 -12 124 -50 43 -38 45 -49 10 -42 -25 5 -26 3 -19 -29 4
-19 20 -54 35 -79 63 -102 59 -223 -10 -282 l-38 -33 -17 -153 c-9 -87 -12
-159 -7 -168 7 -12 16 -9 54 21 41 30 54 35 102 35 44 0 57 4 66 19 24 45 61
214 72 326 10 111 9 126 -10 204 -38 147 -91 241 -160 285 -52 32 -159 66
-206 65 -23 0 -68 -10 -101 -22z m209 -21 c120 -43 175 -105 223 -251 44 -132
34 -326 -25 -522 -18 -58 -18 -58 -60 -61 -41 -3 -42 -3 -32 22 43 115 64 407
36 512 -32 121 -114 217 -207 243 -111 31 -242 -80 -285 -243 -28 -105 -7
-397 36 -512 10 -25 9 -25 -32 -22 -42 3 -42 3 -60 61 -35 115 -50 213 -51
327 -1 99 3 126 26 195 48 145 102 207 220 251 80 30 130 30 211 0z m-272
-268 c-67 -97 -61 -244 13 -305 33 -27 34 -31 45 -133 6 -58 13 -125 17 -149
l6 -44 -31 21 c-16 12 -35 22 -40 22 -16 0 -42 77 -63 183 -40 206 -16 437 49
471 25 13 27 13 30 -5 2 -10 -10 -38 -26 -61z m388 -14 c27 -88 27 -255 1
-391 -21 -106 -47 -183 -63 -183 -5 0 -24 -10 -40 -22 l-31 -21 6 44 c4 24 11
91 17 149 11 102 12 106 45 133 73 61 80 208 14 304 -16 23 -29 51 -29 62 0
21 1 21 30 6 23 -12 33 -28 50 -81z"/>
<path d="M1885 1620 c-32 -33 -56 -62 -52 -66 7 -7 127 104 127 118 0 18 -18
5 -75 -52z"/>
<path d="M1010 1530 c0 -9 82 -70 94 -70 17 0 1 20 -39 48 -49 35 -55 37 -55
22z"/>
<path d="M1935 1509 c-38 -29 -55 -49 -40 -49 13 0 95 61 95 70 0 16 -12 11
-55 -21z"/>
<path d="M1465 1387 c-22 -30 -41 -45 -67 -51 -45 -11 -52 -27 -34 -71 11 -25
12 -44 5 -75 -5 -23 -7 -45 -4 -51 4 -5 26 -9 50 -9 36 0 47 -5 64 -27 l21
-28 21 28 c17 22 28 27 64 27 24 0 46 4 50 9 3 6 1 28 -4 51 -7 31 -6 50 5 75
18 44 11 60 -34 71 -26 6 -45 21 -67 51 -16 23 -32 42 -35 42 -3 0 -19 -19
-35 -42z m62 -27 c9 -16 20 -30 24 -30 4 0 23 -7 42 -15 l36 -15 -15 -36 c-8
-19 -12 -44 -9 -55 3 -10 8 -28 11 -39 5 -18 1 -20 -39 -20 -35 0 -48 -5 -61
-22 l-16 -23 -16 23 c-13 17 -26 22 -61 22 -47 0 -46 -3 -28 57 3 12 -1 38 -9
57 l-15 36 36 15 c19 8 38 15 42 15 4 0 15 14 24 30 10 17 22 30 27 30 5 0 17
-13 27 -30z"/>
<path d="M1472 1288 c-20 -20 -15 -66 8 -73 34 -11 60 4 60 34 0 30 -16 51
-40 51 -9 0 -21 -5 -28 -12z m46 -36 c3 -17 -2 -22 -17 -22 -14 0 -21 6 -21
18 0 38 33 41 38 4z"/>
<path d="M1020 1393 c0 -12 71 -55 78 -48 3 3 -7 17 -23 30 -30 24 -55 32 -55
18z"/>
<path d="M1925 1375 c-16 -13 -26 -27 -23 -30 7 -7 78 36 78 48 0 14 -25 6
-55 -18z"/>
</g>
</svg>
