<?xml version="1.0" standalone="no"?>
<!DOCTYPE svg PUBLIC "-//W3C//DTD SVG 20010904//EN"
 "http://www.w3.org/TR/2001/REC-SVG-20010904/DTD/svg10.dtd">
<svg version="1.0" xmlns="http://www.w3.org/2000/svg"
 width="480.000000pt" height="300.000000pt" viewBox="0 0 480.000000 300.000000"
 preserveAspectRatio="xMidYMid meet">

<g transform="translate(0.000000,300.000000) scale(0.100000,-0.100000)"
fill="#ffffff" stroke="none">
<path d="M2575 2395 c-33 -8 -65 -14 -71 -14 -6 -1 -31 -15 -56 -31 -41 -27
-46 -35 -51 -76 -2 -25 -8 -48 -12 -52 -4 -4 -64 -7 -135 -8 -120 -1 -130 -2
-174 -28 -25 -15 -53 -37 -61 -50 -12 -18 -28 -25 -73 -29 -97 -10 -227 -82
-326 -180 -330 -329 -358 -854 -54 -1014 49 -26 62 -28 158 -27 85 0 115 4
160 23 66 27 174 98 214 140 l29 30 13 -24 c15 -29 5 -122 -20 -177 -9 -21
-16 -57 -16 -82 l0 -44 65 -31 c36 -18 107 -41 157 -51 50 -11 107 -24 127
-30 20 -5 55 -10 79 -10 42 0 43 1 66 53 13 29 31 59 40 66 9 7 16 20 16 27 0
35 29 7 65 -62 l39 -77 76 7 c99 8 196 37 276 81 77 44 81 61 31 157 -31 60
-33 68 -27 131 4 37 12 73 19 80 16 21 70 152 96 237 60 200 69 372 23 450
-25 43 -53 128 -45 136 2 2 19 -8 38 -22 65 -49 105 -64 169 -64 33 0 60 1 60
3 -1 18 -45 138 -60 162 -30 48 -154 164 -195 181 -20 8 -55 14 -78 14 -23 -1
-63 4 -89 11 l-47 12 6 49 c5 39 3 48 -10 48 -8 0 -17 4 -19 8 -7 16 -81 55
-141 73 -72 22 -174 24 -262 4z m265 -26 c35 -11 71 -26 80 -33 8 -7 23 -16
33 -19 23 -9 22 -19 -8 -47 l-24 -23 -63 19 c-83 24 -263 25 -327 1 -57 -22
-58 -22 -76 14 -15 28 -15 32 0 49 14 15 79 37 160 54 57 11 165 4 225 -15z
m-389 -121 c35 -69 115 -128 175 -128 29 0 31 -4 40 -68 8 -61 1 -64 -61 -31
-67 36 -144 98 -171 139 -23 34 -25 46 -20 85 4 25 9 45 11 45 3 0 14 -19 26
-42z m535 -2 c-4 -20 -12 -41 -19 -48 -7 -7 -27 -34 -45 -59 -44 -65 -152
-139 -202 -139 -4 0 0 25 8 56 14 50 20 58 62 79 56 28 190 132 190 147 0 6 3
9 6 5 4 -3 3 -22 0 -41z m-173 8 c40 -9 74 -18 76 -20 6 -5 -39 -41 -89 -70
-62 -37 -77 -54 -93 -110 l-15 -49 -7 58 c-8 63 -9 64 -90 86 -50 13 -114 65
-100 80 16 16 124 39 188 40 32 1 90 -6 130 -15z m-615 -75 c4 -24 -42 -84
-64 -82 -53 5 -104 17 -104 24 0 4 15 20 34 34 57 44 128 56 134 24z m212 -18
c11 -22 39 -55 62 -74 58 -47 159 -107 181 -107 15 0 17 -10 17 -75 0 -69 -2
-75 -21 -75 -11 0 -17 -4 -14 -10 3 -5 14 -10 23 -10 15 0 17 -9 14 -72 -4
-91 -6 -98 -32 -98 -12 0 -18 -4 -15 -10 3 -5 14 -10 24 -10 15 0 19 -11 25
-61 10 -103 9 -109 -19 -109 -31 0 -33 -17 -2 -22 21 -3 22 -8 25 -90 l3 -88
-26 0 c-14 0 -25 -4 -25 -10 0 -5 12 -10 26 -10 24 0 26 -3 20 -32 -3 -18 -8
-63 -12 -100 -6 -62 -9 -68 -30 -68 -12 0 -26 -4 -29 -10 -4 -6 6 -10 23 -10
23 0 31 -5 34 -24 7 -38 -5 -49 -73 -63 -58 -12 -68 -11 -168 17 -204 55 -271
90 -271 141 0 10 21 47 46 81 61 81 129 225 154 324 39 150 23 336 -37 446
-26 47 -88 113 -128 136 -18 10 -19 11 -3 29 10 10 24 35 33 55 14 36 17 37
72 41 32 2 68 4 80 5 17 2 28 -8 43 -37z m643 20 c25 -5 32 -15 52 -76 12 -38
31 -88 43 -110 11 -22 28 -71 38 -110 9 -38 28 -86 40 -105 66 -101 19 -406
-98 -640 -53 -105 -71 -117 -238 -170 -119 -38 -129 -39 -166 -27 -30 11 -40
20 -42 40 -3 25 -1 27 37 27 23 0 41 5 41 10 0 6 -18 10 -40 10 -40 0 -40 0
-39 38 1 20 6 66 13 102 10 60 13 65 39 68 37 4 35 22 -3 22 l-30 0 0 85 0 85
30 0 c17 0 30 5 30 10 0 6 -13 10 -30 10 -25 0 -30 4 -30 24 0 12 -3 51 -6 85
l-7 61 31 0 c42 0 50 18 10 22 -32 3 -33 4 -36 58 -5 87 4 120 34 120 14 0 22
4 19 10 -3 6 -17 10 -31 10 -23 0 -24 3 -24 59 0 66 1 67 73 93 68 24 137 78
181 142 40 58 47 61 109 47z m165 -30 c36 -18 145 -122 177 -168 14 -20 45
-106 45 -125 0 -13 -79 -9 -113 6 -53 22 -135 93 -157 136 -32 63 -62 149 -55
160 10 16 63 12 103 -9z m-1095 -77 c94 -32 181 -137 213 -259 33 -122 8 -330
-55 -470 -67 -147 -203 -306 -323 -375 -172 -99 -357 -92 -468 19 -163 164
-159 482 12 768 43 73 189 222 253 259 121 70 266 93 368 58z m967 -1076 c0
-28 -7 -38 -50 -67 -52 -35 -195 -91 -235 -91 -16 0 -25 7 -29 27 -11 41 7 51
181 103 40 12 83 30 95 40 32 27 38 25 38 -12z m-845 -23 c89 -38 283 -88 311
-81 22 6 24 4 24 -34 0 -34 5 -43 30 -59 29 -17 30 -18 11 -35 -11 -10 -25
-32 -32 -49 -29 -75 -44 -78 -189 -46 -135 30 -189 47 -237 76 -49 29 -53 49
-27 126 15 46 30 57 50 38 24 -24 301 -101 364 -101 47 0 14 17 -56 29 -88 15
-208 49 -282 81 -45 20 -52 26 -52 51 0 35 8 36 85 4z m870 -90 c14 -26 29
-61 32 -79 5 -32 2 -35 -48 -64 -71 -40 -171 -70 -264 -78 -60 -5 -75 -4 -75
7 0 8 -14 34 -30 58 -32 47 -36 61 -19 61 6 0 25 6 42 14 18 7 59 18 92 25 33
6 98 31 145 55 47 24 88 44 92 45 3 0 18 -19 33 -44z m-365 16 c0 -15 -10 -20
-46 -26 -34 -5 -43 -10 -35 -18 7 -7 21 -7 48 1 42 13 47 11 39 -16 -8 -23
-34 -32 -91 -32 -56 0 -67 10 -63 56 3 43 18 51 101 53 40 1 47 -2 47 -18z"/>
<path d="M1868 2027 c-201 -69 -386 -302 -438 -552 -16 -78 -14 -227 4 -294
19 -68 75 -153 126 -190 54 -39 115 -54 203 -50 286 15 567 401 544 749 -18
273 -204 417 -439 337z m214 -13 c163 -55 242 -260 192 -502 -61 -299 -305
-552 -533 -554 -123 -1 -215 61 -267 179 -65 146 -48 334 48 531 126 258 372
411 560 346z"/>
<path d="M1733 1613 c-16 -6 -17 -49 -3 -58 16 -10 41 16 38 38 -3 22 -15 28
-35 20z"/>
<path d="M1878 1573 c-15 -32 -152 -141 -183 -145 -22 -3 -33 -44 -17 -60 17
-17 52 1 52 26 0 30 140 140 179 141 22 0 26 4 26 30 0 42 -38 48 -57 8z m42
-8 c0 -8 -4 -15 -10 -15 -5 0 -10 7 -10 15 0 8 5 15 10 15 6 0 10 -7 10 -15z
m-210 -176 c0 -6 -4 -7 -10 -4 -5 3 -10 11 -10 16 0 6 5 7 10 4 6 -3 10 -11
10 -16z"/>
<path d="M1859 1391 c-14 -11 -20 -24 -16 -34 9 -23 61 -7 65 20 4 28 -22 36
-49 14z"/>
</g>
</svg>
