<?xml version="1.0" standalone="no"?>
<!DOCTYPE svg PUBLIC "-//W3C//DTD SVG 20010904//EN"
 "http://www.w3.org/TR/2001/REC-SVG-20010904/DTD/svg10.dtd">
<svg version="1.0" xmlns="http://www.w3.org/2000/svg"
 width="300.000000pt" height="240.000000pt" viewBox="0 0 300.000000 240.000000"
 preserveAspectRatio="xMidYMid meet">

<g transform="translate(0.000000,240.000000) scale(0.100000,-0.100000)"
fill="#ffffff" stroke="none">
<path d="M1070 2049 c-100 -26 -220 -84 -302 -147 -37 -29 -76 -52 -87 -52
-22 0 -41 -27 -41 -60 0 -11 -13 -47 -30 -80 -56 -112 -75 -199 -75 -355 0
-112 4 -148 18 -179 9 -22 20 -36 23 -33 4 3 8 37 10 74 5 98 46 250 98 356
24 50 49 98 54 106 8 12 172 -115 808 -624 l797 -638 29 32 c16 18 27 38 25
44 -2 7 -329 270 -728 585 -398 315 -755 598 -793 628 l-68 56 43 45 c84 85
282 198 397 225 29 7 52 18 52 25 0 20 -142 15 -230 -8z m85 -27 c-215 -85
-397 -246 -485 -428 -44 -91 -87 -229 -97 -311 -5 -43 -8 -51 -16 -38 -6 11
-7 68 -5 139 13 287 141 487 384 597 81 37 194 68 249 68 39 0 39 0 -30 -27z
m-483 -214 c-7 -7 -12 -8 -12 -2 0 14 12 26 19 19 2 -3 -1 -11 -7 -17z m908
-683 c415 -329 765 -607 778 -620 22 -21 23 -23 6 -39 -9 -9 -23 -15 -30 -12
-14 5 -1510 1201 -1548 1237 -16 15 -17 21 -7 33 9 11 18 13 30 6 9 -5 356
-277 771 -605z"/>
</g>
</svg>
