<?xml version="1.0" standalone="no"?>
<!DOCTYPE svg PUBLIC "-//W3C//DTD SVG 20010904//EN"
 "http://www.w3.org/TR/2001/REC-SVG-20010904/DTD/svg10.dtd">
<svg version="1.0" xmlns="http://www.w3.org/2000/svg"
 width="400.000000pt" height="320.000000pt" viewBox="0 0 400.000000 320.000000"
 preserveAspectRatio="xMidYMid meet">

<g transform="translate(0.000000,320.000000) scale(0.100000,-0.100000)"
fill="#FFFFFF" stroke="none">
<path d="M1845 2569 c-11 -16 4 -97 31 -168 13 -35 24 -66 24 -70 0 -12 -194
-208 -212 -214 -9 -3 -24 -21 -34 -39 -50 -99 -142 -243 -188 -295 -74 -82
-86 -108 -86 -196 0 -119 30 -165 154 -236 l56 -33 -18 -26 c-35 -50 -73 -146
-84 -213 -10 -57 -9 -76 6 -131 27 -100 45 -124 101 -131 87 -12 172 18 242
86 l43 41 67 -65 c38 -36 90 -76 116 -88 46 -22 175 -65 299 -98 67 -18 84
-11 94 41 12 68 -19 136 -171 369 l-80 123 30 42 c17 22 37 43 45 45 8 3 37
10 63 17 57 15 138 83 167 141 37 71 21 215 -25 232 -26 11 -74 98 -81 148 -5
35 -19 65 -55 114 -30 42 -56 92 -68 133 -17 55 -30 76 -83 129 -48 49 -58 63
-42 63 23 0 56 -20 101 -63 18 -17 36 -27 40 -23 5 4 -14 28 -42 52 -38 33
-64 47 -107 56 l-57 12 39 42 c56 61 76 107 71 161 -2 19 -59 25 -111 12 -48
-12 -50 -12 -74 14 -23 24 -32 27 -95 27 -39 0 -73 -5 -76 -11z m159 -34 c11
-17 26 -25 45 -25 21 0 28 -5 27 -17 -1 -14 6 -18 31 -17 25 0 30 -3 21 -13
-16 -20 -38 -16 -64 12 -13 14 -34 25 -49 25 -21 0 -25 5 -25 27 0 21 -3 24
-12 15 -16 -16 -43 -15 -58 3 -11 13 -7 15 28 15 31 0 43 -5 56 -25z m179 -11
c13 -13 -3 -20 -37 -16 -20 2 -36 8 -36 13 0 10 63 12 73 3z m-217 -36 c-9 -5
-24 -7 -34 -5 -14 3 -12 6 8 14 29 12 50 5 26 -9z m-19 -25 c16 3 41 9 56 13
24 5 34 2 53 -20 28 -29 51 -33 80 -11 10 8 22 15 27 15 16 0 5 -20 -38 -68
-49 -54 -76 -63 -159 -53 l-49 6 -23 60 c-31 80 -30 90 1 69 15 -10 36 -14 52
-11z m81 -170 c53 -4 62 -7 57 -21 -3 -9 -9 -35 -12 -58 -4 -34 -1 -46 16 -63
43 -43 82 -15 47 35 -17 24 -32 94 -20 93 5 -1 37 -32 71 -69 44 -48 65 -80
72 -111 15 -59 35 -98 81 -152 28 -35 39 -58 44 -98 9 -65 15 -77 77 -145 l49
-54 0 -73 c0 -66 -3 -79 -32 -122 -33 -50 -100 -99 -150 -110 -16 -4 -31 -5
-33 -3 -2 2 6 31 18 64 20 57 20 63 5 86 -24 37 -175 73 -267 64 l-68 -7 -6
74 c-12 144 -29 144 -138 -3 -45 -60 -85 -110 -90 -110 -4 0 -22 -19 -38 -42
-17 -24 -48 -63 -70 -88 -38 -43 -40 -44 -58 -27 -11 9 -25 17 -31 17 -6 0
-35 14 -63 32 -65 40 -88 87 -89 179 0 73 17 124 50 154 41 36 106 129 174
247 37 64 75 120 84 123 9 3 60 50 112 106 84 88 98 99 120 93 14 -3 53 -8 88
-11z m97 -142 c-10 -9 -35 30 -35 53 0 17 4 14 21 -13 11 -18 17 -36 14 -40z
m-171 -503 c28 -291 28 -299 6 -442 -11 -77 -29 -154 -39 -174 -24 -47 -118
-145 -158 -166 -71 -36 -203 -44 -203 -11 0 7 -6 15 -13 18 -17 6 -47 110 -47
158 0 47 25 131 61 201 27 53 97 143 205 265 26 29 61 74 79 100 39 58 80 103
94 103 5 0 12 -24 15 -52z m256 -129 c76 -18 89 -24 94 -45 7 -28 -16 -91 -61
-162 -38 -60 -56 -71 -81 -49 -27 24 -87 47 -125 47 l-34 0 -7 88 c-4 48 -10
97 -12 109 -5 18 -1 22 28 26 74 9 113 6 198 -14z m-71 -263 c25 -18 67 -69
114 -140 163 -244 204 -335 179 -392 -11 -22 -16 -25 -45 -19 -17 4 -55 15
-83 25 -29 10 -80 26 -115 35 -98 25 -187 77 -243 141 l-48 55 25 37 c30 43
41 83 57 206 l12 88 54 -4 c36 -3 65 -13 93 -32z"/>
<path d="M1967 2049 c-22 -11 -36 -23 -33 -26 8 -8 86 27 86 39 0 12 -11 9
-53 -13z"/>
<path d="M2210 1770 c0 -6 11 -15 24 -20 13 -5 27 -18 31 -29 3 -12 11 -21 17
-21 5 0 7 7 4 16 -3 9 -6 20 -6 25 0 8 -51 39 -65 39 -3 0 -5 -5 -5 -10z"/>
<path d="M1668 1719 c-16 -11 -28 -27 -28 -35 0 -19 3 -18 39 13 48 43 39 60
-11 22z"/>
<path d="M1925 1528 c-2 -7 -6 -57 -10 -110 -7 -104 -31 -205 -66 -272 -38
-73 -131 -206 -163 -232 -30 -24 -30 -25 -6 -22 50 6 195 231 229 356 20 72
40 292 27 292 -4 0 -8 -6 -11 -12z"/>
<path d="M2125 1464 c-74 -22 -78 -24 -72 -31 8 -8 167 30 167 40 0 11 -39 7
-95 -9z"/>
<path d="M2000 1042 c0 -19 72 -75 136 -106 38 -19 84 -46 103 -60 19 -14 39
-26 43 -26 35 0 -48 60 -159 115 -40 20 -81 47 -92 61 -19 24 -31 31 -31 16z"/>
</g>
</svg>
