<?xml version="1.0" standalone="no"?>
<!DOCTYPE svg PUBLIC "-//W3C//DTD SVG 20010904//EN"
 "http://www.w3.org/TR/2001/REC-SVG-20010904/DTD/svg10.dtd">
<svg version="1.0" xmlns="http://www.w3.org/2000/svg"
 width="300.000000pt" height="240.000000pt" viewBox="0 0 300.000000 240.000000"
 preserveAspectRatio="xMidYMid meet">

<g transform="translate(0.000000,240.000000) scale(0.100000,-0.100000)"
fill="#ffffff" stroke="none">
<path d="M1605 2151 c-33 -10 -94 -33 -135 -51 -123 -52 -176 -69 -376 -115
-214 -49 -211 -49 -346 -122 -53 -29 -103 -53 -111 -53 -23 0 -27 -32 -27
-262 0 -232 11 -312 49 -352 11 -12 29 -43 40 -69 12 -27 40 -69 63 -93 24
-25 64 -67 90 -94 44 -46 46 -51 53 -124 6 -60 3 -94 -13 -163 -42 -177 -37
-200 55 -267 113 -83 159 -96 400 -119 29 -3 84 -20 122 -37 82 -38 92 -39
195 -11 86 23 151 60 206 116 19 19 54 45 77 56 30 15 54 37 77 73 51 79 138
144 206 155 47 8 67 50 79 167 6 49 21 138 35 199 22 93 26 136 26 281 l1 172
-32 73 c-31 70 -33 82 -38 229 -3 85 -9 160 -13 166 -5 7 -31 20 -59 30 -35
13 -65 34 -94 66 -29 33 -54 50 -85 58 -24 6 -66 25 -95 41 -60 34 -190 69
-249 68 -23 0 -68 -9 -101 -18z m201 -16 c33 -7 98 -32 144 -54 46 -23 92 -41
101 -41 27 0 36 -19 64 -150 50 -239 58 -266 101 -361 62 -136 63 -132 -48
-127 -51 3 -101 8 -110 12 -13 6 -18 4 -18 -7 0 -18 49 -27 154 -27 l79 0 -7
-47 c-4 -27 -11 -142 -15 -258 -5 -152 -12 -220 -23 -245 -14 -34 -44 -168
-40 -182 1 -4 -24 -15 -56 -23 -31 -9 -70 -21 -87 -26 -36 -11 -95 -67 -95
-88 0 -36 -51 -120 -102 -167 -62 -59 -116 -89 -185 -104 -26 -6 -57 -15 -69
-21 -17 -9 -40 -3 -120 29 -54 22 -153 60 -219 85 -74 28 -153 67 -205 101
-47 31 -102 59 -122 62 -35 6 -38 9 -38 41 0 19 9 71 21 116 16 64 20 98 15
155 -4 39 -3 72 1 72 31 0 98 -28 153 -64 142 -93 164 -106 184 -106 12 0 32
-7 44 -16 19 -13 22 -13 22 -1 0 14 -25 27 -80 43 -13 4 -36 15 -50 24 -122
83 -190 121 -237 131 -49 11 -60 20 -141 106 -48 52 -95 112 -104 135 -10 22
-27 53 -38 68 -34 48 -50 118 -50 226 0 82 3 104 16 115 9 8 41 45 70 84 30
38 78 102 109 142 30 40 64 77 75 83 11 6 18 15 15 21 -9 14 -54 -25 -105 -91
-120 -158 -161 -210 -171 -215 -6 -4 -9 32 -7 105 l3 112 130 69 c125 65 140
70 330 114 146 33 241 61 350 104 222 88 248 93 361 66z m416 -218 l56 -25 4
-154 c3 -146 5 -156 34 -223 32 -72 49 -135 36 -135 -4 0 -20 8 -37 19 -23 14
-41 44 -77 127 -25 60 -49 118 -52 129 -9 31 -66 308 -66 319 0 5 10 0 23 -11
12 -11 47 -32 79 -46z m109 -547 c17 -10 19 -22 19 -143 0 -96 -6 -155 -20
-217 -11 -47 -25 -116 -30 -155 -29 -199 -35 -215 -77 -215 -19 0 -23 4 -19
18 3 9 12 46 21 82 8 36 22 90 30 120 10 37 15 103 15 210 0 171 16 310 35
310 4 0 15 -5 26 -10z m-240 -800 c-23 -17 -57 -55 -76 -85 -31 -48 -75 -88
-75 -69 0 4 10 33 21 65 22 61 54 90 117 109 51 16 55 10 13 -20z m-1050 -153
c46 -31 116 -68 154 -83 75 -29 108 -49 65 -40 -14 3 -58 10 -98 15 -54 7 -88
18 -129 43 -64 38 -143 105 -143 120 0 23 72 -3 151 -55z"/>
<path d="M2011 1606 c-19 -23 -90 -28 -146 -11 -107 32 -162 12 -196 -72 -12
-29 -37 -66 -55 -83 -44 -38 -44 -60 -9 -217 5 -21 10 -22 98 -20 91 2 94 3
146 41 63 47 152 151 181 213 15 33 20 60 18 101 -3 57 -16 74 -37 48z m-176
-21 c46 -17 148 -20 175 -5 36 19 35 -46 -3 -128 -25 -55 -149 -187 -198 -213
-28 -14 -59 -19 -112 -19 l-74 0 -12 57 c-18 93 -15 121 21 156 17 18 42 55
54 84 23 50 59 82 94 82 8 0 33 -6 55 -14z"/>
<path d="M1734 1518 c-9 -18 -24 -43 -32 -55 -8 -14 -10 -23 -4 -23 6 0 19 13
28 29 10 16 26 32 37 35 11 3 17 11 15 22 -5 30 -26 26 -44 -8z"/>
<path d="M1840 1502 c0 -5 7 -13 16 -16 25 -10 94 -7 94 4 0 6 -18 10 -39 10
-22 0 -46 3 -55 6 -9 3 -16 2 -16 -4z"/>
<path d="M1790 1433 c0 -13 65 -53 85 -53 12 0 2 11 -28 30 -51 32 -57 34 -57
23z"/>
<path d="M1720 1392 c0 -17 66 -87 71 -76 3 5 -12 27 -33 49 -21 22 -38 34
-38 27z"/>
<path d="M1660 1355 c0 -20 32 -85 42 -85 11 0 11 1 -12 54 -22 48 -30 57 -30
31z"/>
<path d="M1165 1585 c-38 -18 -139 -19 -165 -2 -17 10 -22 9 -31 -3 -14 -21
-2 -105 23 -153 27 -53 164 -189 218 -217 39 -20 52 -21 126 -15 96 8 91 2
100 135 l6 85 -30 17 c-20 10 -42 38 -61 77 -44 86 -107 112 -186 76z m118
-16 c14 -6 35 -32 48 -61 13 -28 40 -64 60 -82 l36 -31 -8 -73 c-12 -112 -8
-107 -95 -110 -95 -4 -130 15 -233 123 -77 81 -110 139 -111 191 l0 31 68 -4
c45 -3 80 0 107 11 48 18 96 20 128 5z"/>
<path d="M1237 1528 c-2 -7 15 -32 39 -56 27 -26 44 -37 44 -28 0 8 -5 18 -11
22 -6 3 -17 22 -25 40 -14 34 -38 45 -47 22z"/>
<path d="M1108 1483 c-21 -2 -38 -9 -38 -15 0 -13 89 -3 104 12 10 10 7 10
-66 3z"/>
<path d="M1188 1406 c-15 -13 -33 -26 -40 -29 -7 -2 -10 -8 -6 -12 9 -9 88 41
88 55 0 16 -13 11 -42 -14z"/>
<path d="M1262 1351 c-34 -42 -38 -51 -23 -51 14 0 64 67 59 80 -2 6 -18 -7
-36 -29z"/>
<path d="M1337 1320 c-10 -29 -16 -54 -13 -57 9 -9 38 67 34 89 -2 13 -9 2
-21 -32z"/>
<path d="M1464 1563 c12 -54 19 -230 11 -316 l-7 -88 -36 -18 c-147 -76 -177
-257 -62 -371 90 -91 222 -94 316 -8 117 108 93 298 -46 371 -30 16 -58 34
-61 40 -18 34 -34 167 -34 285 l0 132 -44 0 c-42 0 -43 -1 -37 -27z m61 -111
c1 -71 8 -153 19 -210 l19 -93 47 -20 c57 -25 93 -60 116 -114 38 -92 7 -203
-75 -260 -39 -27 -50 -30 -121 -30 -71 0 -82 3 -121 30 -59 42 -89 102 -89
180 0 54 5 69 33 111 20 32 48 57 77 71 24 13 48 30 53 39 12 21 15 326 4 377
-7 34 -6 37 15 37 23 0 23 -2 23 -118z"/>
<path d="M1450 953 c-25 -2 -60 -6 -79 -9 -31 -5 -33 -7 -27 -37 9 -45 49
-101 91 -127 42 -26 119 -29 162 -6 56 29 113 110 113 161 l0 25 -107 -2 c-60
-1 -128 -3 -153 -5z m240 -31 c0 -37 -56 -108 -104 -131 -58 -29 -108 -22
-161 21 -39 33 -72 95 -58 109 10 10 74 15 216 17 97 2 107 0 107 -16z"/>
<path d="M1585 910 c-3 -5 3 -10 15 -10 12 0 18 5 15 10 -3 6 -10 10 -15 10
-5 0 -12 -4 -15 -10z"/>
<path d="M1420 890 c0 -5 9 -10 20 -10 11 0 20 5 20 10 0 6 -9 10 -20 10 -11
0 -20 -4 -20 -10z"/>
<path d="M1520 879 c0 -5 5 -7 10 -4 6 3 10 8 10 11 0 2 -4 4 -10 4 -5 0 -10
-5 -10 -11z"/>
<path d="M1455 840 c-3 -5 3 -10 14 -10 12 0 21 5 21 10 0 6 -6 10 -14 10 -8
0 -18 -4 -21 -10z"/>
<path d="M1578 843 c6 -2 18 -2 25 0 6 3 1 5 -13 5 -14 0 -19 -2 -12 -5z"/>
</g>
</svg>
