<?xml version="1.0" standalone="no"?>
<!DOCTYPE svg PUBLIC "-//W3C//DTD SVG 20010904//EN"
 "http://www.w3.org/TR/2001/REC-SVG-20010904/DTD/svg10.dtd">
<svg version="1.0" xmlns="http://www.w3.org/2000/svg"
 width="300.000000pt" height="240.000000pt" viewBox="0 0 300.000000 240.000000"
 preserveAspectRatio="xMidYMid meet">

<g transform="translate(0.000000,240.000000) scale(0.100000,-0.100000)"
fill="#ffffff" stroke="none">
<path d="M1140 1975 c-7 -9 -10 -25 -6 -41 7 -25 117 -194 157 -239 9 -11 38
-60 63 -110 63 -123 116 -171 276 -248 147 -71 200 -119 256 -233 31 -62 38
-88 42 -154 l5 -80 -39 -2 c-68 -2 -98 3 -122 23 -15 11 -40 19 -64 19 -32 0
-46 -6 -70 -32 -56 -60 -60 -71 -42 -108 16 -30 16 -35 0 -60 -9 -16 -16 -44
-16 -63 l0 -34 -52 4 c-72 6 -114 20 -173 58 -109 71 -135 120 -151 299 -7 77
-18 161 -24 186 -18 71 -64 132 -181 241 -83 78 -116 116 -139 162 -16 33 -30
70 -30 83 0 25 -27 57 -41 49 -20 -13 -1 -114 35 -183 8 -16 52 -63 96 -103
83 -74 157 -164 191 -230 14 -28 20 -68 24 -165 7 -159 16 -192 70 -274 83
-124 171 -175 315 -184 55 -3 88 -10 99 -20 49 -44 239 16 338 107 58 53 94
123 82 156 -5 13 -17 30 -26 36 -13 10 -16 28 -14 96 2 93 -12 175 -40 230
-33 67 -136 157 -229 201 -253 120 -256 122 -361 317 -83 153 -186 311 -203
311 -7 0 -19 -7 -26 -15z m103 -120 c29 -44 81 -134 117 -198 90 -167 117
-194 258 -262 167 -81 172 -84 228 -132 69 -58 104 -111 120 -180 15 -65 19
-223 5 -223 -12 0 -21 36 -21 86 0 93 -59 218 -141 302 -28 28 -78 60 -148 94
-109 52 -192 106 -224 142 -10 12 -35 56 -57 98 -21 43 -54 98 -72 122 -126
171 -165 237 -151 259 7 12 11 7 86 -108z m-347 -383 l56 -67 -59 60 c-44 45
-62 74 -75 116 -10 31 -18 62 -17 70 0 8 9 -14 20 -49 14 -44 37 -83 75 -130z
m252 -285 c14 -37 25 -103 33 -194 17 -206 49 -266 180 -344 54 -32 81 -42
140 -48 41 -5 77 -6 82 -4 4 2 7 -2 7 -10 0 -12 -14 -14 -72 -10 -40 2 -89 9
-108 15 -87 27 -201 147 -234 246 -10 30 -19 98 -21 173 -3 68 -8 133 -11 144
-10 33 -65 116 -122 185 -54 64 -54 64 25 -16 62 -62 85 -94 101 -137z m605
-304 c4 -3 2 -12 -4 -19 -6 -7 -9 -23 -6 -36 l4 -23 8 23 c6 17 15 22 43 22
l36 0 -29 -30 c-29 -30 -100 -70 -124 -70 -23 0 -7 44 19 51 27 7 22 10 -38
25 l-34 9 22 28 c17 21 30 27 59 27 21 0 41 -3 44 -7z m227 -50 c16 -9 33 -27
39 -40 9 -20 8 -23 -8 -23 -14 0 -18 -5 -14 -21 14 -53 -89 -141 -215 -183
-128 -43 -167 -28 -179 71 -7 65 13 87 86 97 41 5 61 15 94 45 23 20 53 45 67
54 31 22 94 22 130 0z m-328 -53 c6 -38 -19 -49 -32 -14 -14 36 -12 44 9 44
13 0 20 -9 23 -30z"/>
<path d="M1855 790 c-10 -11 -14 -20 -9 -20 12 1 44 25 44 34 0 12 -17 6 -35
-14z"/>
<path d="M1925 800 c3 -5 13 -10 21 -10 8 0 14 5 14 10 0 6 -9 10 -21 10 -11
0 -17 -4 -14 -10z"/>
<path d="M1785 739 c-4 -6 -5 -13 -2 -16 7 -7 27 6 27 18 0 12 -17 12 -25 -2z"/>
<path d="M1705 689 c-12 -19 5 -23 22 -6 16 16 16 17 1 17 -9 0 -20 -5 -23
-11z"/>
<path d="M1650 655 c-7 -9 -10 -18 -7 -22 8 -7 37 15 37 28 0 14 -16 11 -30
-6z"/>
<path d="M1640 591 c0 -6 5 -13 10 -16 6 -3 10 1 10 9 0 9 -4 16 -10 16 -5 0
-10 -4 -10 -9z"/>
</g>
</svg>
