<?xml version="1.0" standalone="no"?>
<!DOCTYPE svg PUBLIC "-//W3C//DTD SVG 20010904//EN"
 "http://www.w3.org/TR/2001/REC-SVG-20010904/DTD/svg10.dtd">
<svg version="1.0" xmlns="http://www.w3.org/2000/svg"
 width="300.000000pt" height="240.000000pt" viewBox="0 0 300.000000 240.000000"
 preserveAspectRatio="xMidYMid meet">

<g transform="translate(0.000000,240.000000) scale(0.100000,-0.100000)"
fill="#ffffff" stroke="none">
<path d="M1455 1851 c-11 -5 -83 -11 -160 -14 -86 -3 -165 -13 -204 -23 -61
-17 -65 -21 -108 -84 -58 -88 -84 -201 -62 -270 13 -41 18 -46 59 -57 25 -7
66 -20 91 -30 l47 -17 93 31 c160 53 241 95 283 146 42 52 85 163 86 220 0 85
-53 126 -125 98z m89 -33 c17 -23 20 -89 7 -123 -6 -16 -16 -19 -44 -17 -23 2
-55 -6 -89 -22 -45 -22 -54 -23 -61 -10 -12 22 -29 7 -17 -16 5 -10 10 -30 10
-44 0 -33 18 -34 26 -2 3 14 13 31 22 38 23 20 93 41 120 36 l23 -3 -25 -50
c-14 -28 -40 -65 -58 -82 -45 -43 -315 -152 -339 -137 -11 6 -12 55 -1 69 4 6
22 11 40 12 33 1 62 18 62 34 0 5 -13 3 -30 -6 -40 -21 -53 -19 -84 12 -32 32
-43 25 -24 -14 8 -17 13 -45 10 -67 -3 -30 -8 -36 -21 -30 -14 6 -86 30 -118
39 -18 6 -25 80 -13 142 13 60 44 128 84 178 l23 29 17 -31 c9 -18 16 -41 16
-52 0 -21 4 -22 103 -35 27 -3 37 -1 34 7 -2 7 -27 14 -57 17 -52 5 -53 6 -71
51 l-18 46 42 13 c23 6 104 14 182 17 77 3 149 9 160 14 38 15 73 10 89 -13z"/>
<path d="M1960 1598 c-141 -17 -325 -95 -335 -141 -22 -106 -36 -236 -28 -267
10 -38 41 -60 83 -60 35 0 98 -54 108 -93 5 -18 16 -33 25 -35 9 -2 42 13 74
34 70 45 160 72 272 83 70 7 88 13 103 31 30 37 23 73 -25 129 -31 36 -49 70
-61 113 -19 70 -75 199 -91 210 -12 9 -25 9 -125 -4z m147 -76 c39 -86 57
-146 50 -166 -5 -11 -20 -16 -50 -16 -53 0 -71 17 -62 58 4 21 1 34 -11 46
-21 22 -29 14 -14 -14 9 -17 8 -29 -9 -62 -21 -43 -19 -72 3 -42 11 14 16 15
36 4 14 -7 44 -10 76 -8 30 3 54 1 54 -3 0 -4 18 -29 40 -54 71 -82 48 -119
-80 -128 -89 -7 -196 -41 -265 -85 l-50 -31 -9 26 c-7 22 -4 30 28 60 28 26
36 42 36 69 0 19 -4 34 -10 34 -5 0 -10 -14 -10 -31 0 -22 -10 -40 -35 -63
l-34 -33 -22 23 c-24 25 -56 40 -111 49 -33 5 -37 9 -43 44 -5 31 10 159 30
248 3 13 18 29 34 37 28 15 29 15 44 -22 8 -20 19 -53 24 -72 8 -32 12 -35 48
-38 46 -4 65 -17 65 -43 0 -11 5 -19 10 -19 17 0 11 39 -10 60 -12 12 -33 20
-55 20 -30 0 -35 4 -40 28 -4 15 -13 45 -21 67 -13 37 -13 41 3 53 27 20 139
51 218 61 117 14 108 18 142 -57z"/>
<path d="M961 1209 c-31 -12 -140 -90 -166 -119 -11 -12 -37 -33 -57 -46 -35
-23 -38 -28 -38 -73 0 -48 74 -282 92 -289 5 -2 15 -17 23 -33 9 -16 20 -29
25 -29 5 0 48 19 97 41 l88 42 100 -6 c55 -4 117 -9 137 -13 34 -6 38 -4 58
27 31 52 80 214 80 268 0 54 -9 65 -60 76 -19 4 -71 27 -115 50 -44 24 -106
50 -137 59 -31 9 -60 21 -63 26 -12 20 -40 28 -64 19z m73 -66 c9 -32 -3 -53
-30 -53 -13 0 -24 -4 -24 -10 0 -16 47 -12 64 6 9 8 16 26 16 39 l0 24 50 -15
c27 -8 82 -32 122 -54 40 -21 90 -42 111 -45 37 -7 37 -8 37 -55 0 -53 -53
-230 -79 -261 -15 -19 -21 -19 -81 -10 -36 6 -93 11 -127 11 l-62 0 9 31 c5
18 7 35 5 40 -3 4 5 28 17 53 21 44 24 46 64 46 50 0 94 15 94 31 0 7 -6 8
-17 3 -10 -4 -42 -10 -71 -12 -49 -4 -55 -7 -78 -44 l-26 -41 -23 29 c-36 45
-40 22 -5 -28 28 -39 30 -46 19 -76 -9 -26 -25 -40 -80 -67 -38 -19 -75 -35
-83 -35 -24 0 -62 62 -90 147 -26 77 -26 84 -12 112 21 39 30 44 89 45 28 1
52 6 54 11 2 6 -22 10 -59 9 -59 0 -64 -2 -83 -32 -11 -17 -23 -31 -27 -32 -5
0 -8 22 -8 48 0 45 3 50 43 80 23 18 68 54 101 81 32 27 72 56 89 64 27 14 33
14 53 -1 13 -10 25 -27 28 -39z"/>
</g>
</svg>
